<svg width="27" height="20" viewBox="0 0 27 20" fill="none" xmlns="http://www.w3.org/2000/svg">
<g clip-path="url(#clip0_80_772)">
<path d="M0.166687 0H26.8334V20H0.166687V0Z" fill="#74ACDF"/>
<path d="M0.166687 6.66669H26.8334V13.3334H0.166687V6.66669Z" fill="white"/>
<path d="M13.3721 10.052L14.5121 12.532C14.5121 12.532 14.5321 12.58 14.5641 12.568C14.5961 12.552 14.5761 12.508 14.5761 12.508L13.6281 9.948M13.6001 10.912C13.5841 11.288 13.8161 11.496 13.7881 11.832C13.7561 12.172 13.9401 12.36 13.9881 12.492C14.0281 12.624 13.9361 12.7 13.9761 12.72C14.0161 12.74 14.0961 12.636 14.0721 12.448C14.0441 12.264 13.9041 12.208 13.9361 11.796C13.9681 11.384 13.7681 11.288 13.8161 10.916" fill="#F6B40E"/>
<path d="M13.3721 10.052L14.5121 12.532C14.5121 12.532 14.5321 12.58 14.5641 12.568C14.5961 12.552 14.5761 12.508 14.5761 12.508L13.6281 9.948M13.6001 10.912C13.5841 11.288 13.8161 11.496 13.7881 11.832C13.7561 12.172 13.9401 12.36 13.9881 12.492C14.0281 12.624 13.9361 12.7 13.9761 12.72C14.0161 12.74 14.0961 12.636 14.0721 12.448C14.0441 12.264 13.9041 12.208 13.9361 11.796C13.9681 11.384 13.7681 11.288 13.8161 10.916" stroke="#85340A" stroke-width="0.132"/>
<path d="M13.3619 9.99904L13.4661 12.7265C13.4661 12.7265 13.4662 12.7785 13.5004 12.7797C13.5361 12.7771 13.5344 12.7288 13.5344 12.7288L13.6382 10.0009M13.2435 10.8808C13.0848 11.2221 13.2195 11.503 13.0651 11.8027C12.9054 12.1046 13.0035 12.3487 12.9973 12.489C12.9837 12.6263 12.8697 12.6613 12.899 12.6951C12.9283 12.7289 13.042 12.6634 13.0917 12.4805C13.1363 12.2998 13.0284 12.1945 13.2156 11.8261C13.4028 11.4577 13.2548 11.2925 13.4415 10.9672" fill="#F6B40E"/>
<path d="M13.3619 9.99904L13.4661 12.7265C13.4661 12.7265 13.4662 12.7785 13.5004 12.7797C13.5361 12.7771 13.5344 12.7288 13.5344 12.7288L13.6382 10.0009M13.2435 10.8808C13.0848 11.2221 13.2195 11.503 13.0651 11.8027C12.9054 12.1046 13.0035 12.3487 12.9973 12.489C12.9837 12.6263 12.8697 12.6613 12.899 12.6951C12.9283 12.7289 13.042 12.6634 13.0917 12.4805C13.1363 12.2998 13.0284 12.1945 13.2156 11.8261C13.4028 11.4577 13.2548 11.2925 13.4415 10.9672" stroke="#85340A" stroke-width="0.132"/>
<path d="M13.3727 9.94622L12.4252 12.5059C12.4252 12.5059 12.4054 12.554 12.4365 12.5682C12.4705 12.5795 12.4875 12.5342 12.4875 12.5342L13.6273 10.0537M12.9259 10.7156C12.6487 10.9701 12.6656 11.2812 12.4083 11.499C12.1452 11.7168 12.1424 11.9799 12.083 12.1071C12.0179 12.2288 11.8991 12.2174 11.9133 12.2599C11.9274 12.3023 12.0575 12.2853 12.1735 12.1354C12.2838 11.9855 12.2244 11.8469 12.5384 11.5782C12.8523 11.3095 12.7788 11.1002 13.0758 10.8711" fill="#F6B40E"/>
<path d="M13.3727 9.94622L12.4252 12.5059C12.4252 12.5059 12.4054 12.554 12.4365 12.5682C12.4705 12.5795 12.4875 12.5342 12.4875 12.5342L13.6273 10.0537M12.9259 10.7156C12.6487 10.9701 12.6656 11.2812 12.4083 11.499C12.1452 11.7168 12.1424 11.9799 12.083 12.1071C12.0179 12.2288 11.8991 12.2174 11.9133 12.2599C11.9274 12.3023 12.0575 12.2853 12.1735 12.1354C12.2838 11.9855 12.2244 11.8469 12.5384 11.5782C12.8523 11.3095 12.7788 11.1002 13.0758 10.8711" stroke="#85340A" stroke-width="0.132"/>
<path d="M13.4031 9.90162L11.5481 11.9039C11.5481 11.9039 11.5114 11.9407 11.5347 11.9657C11.5618 11.9892 11.5948 11.9538 11.5948 11.9538L13.5971 10.0983M12.6958 10.4414C12.3423 10.5705 12.2389 10.8644 11.9178 10.9671C11.5914 11.0677 11.4881 11.3096 11.3845 11.4045C11.2779 11.4919 11.1725 11.436 11.1693 11.4806C11.1661 11.5252 11.2928 11.5594 11.4573 11.4652C11.6166 11.369 11.6148 11.2182 12.0076 11.0901C12.4005 10.962 12.4127 10.7405 12.7747 10.6425" fill="#F6B40E"/>
<path d="M13.4031 9.90162L11.5481 11.9039C11.5481 11.9039 11.5114 11.9407 11.5347 11.9657C11.5618 11.9892 11.5948 11.9538 11.5948 11.9538L13.5971 10.0983M12.6958 10.4414C12.3423 10.5705 12.2389 10.8644 11.9178 10.9671C11.5914 11.0677 11.4881 11.3096 11.3845 11.4045C11.2779 11.4919 11.1725 11.436 11.1693 11.4806C11.1661 11.5252 11.2928 11.5594 11.4573 11.4652C11.6166 11.369 11.6148 11.2182 12.0076 11.0901C12.4005 10.962 12.4127 10.7405 12.7747 10.6425" stroke="#85340A" stroke-width="0.132"/>
<path d="M13.672 10.976C13.692 11.336 13.896 11.496 13.856 11.828C13.944 11.568 13.732 11.364 13.744 10.98M13.436 10.028L14.216 11.732L13.564 9.97595" fill="#85340A"/>
<path d="M13.2854 10.9675C13.1661 11.3078 13.2934 11.5336 13.1294 11.8251C13.3102 11.6185 13.1924 11.3489 13.3504 10.9987M13.4302 10.0013L13.4987 11.8741L13.5683 10.0023" fill="#85340A"/>
<path d="M12.9316 10.8117C12.6912 11.0804 12.7223 11.3378 12.4592 11.5443C12.7053 11.4227 12.6996 11.1285 12.9797 10.8655M13.435 9.97451L12.7817 11.731L13.5623 10.0283" fill="#85340A"/>
<path d="M12.6641 10.5324C12.3392 10.6886 12.2694 10.9383 11.9474 11.0284C12.2213 11.0102 12.3286 10.7363 12.688 10.6004M13.4496 9.95154L12.1738 11.3243L13.5467 10.0499" fill="#85340A"/>
<path d="M13.448 9.87201L10.968 11.012C10.968 11.012 10.92 11.032 10.932 11.064C10.948 11.096 10.992 11.076 10.992 11.076L13.552 10.128M12.588 10.1C12.212 10.084 12.004 10.316 11.668 10.288C11.328 10.256 11.14 10.44 11.008 10.488C10.876 10.528 10.8 10.436 10.78 10.476C10.76 10.516 10.864 10.596 11.052 10.572C11.236 10.544 11.292 10.404 11.704 10.436C12.116 10.468 12.212 10.268 12.584 10.316" fill="#F6B40E"/>
<path d="M13.448 9.87201L10.968 11.012C10.968 11.012 10.92 11.032 10.932 11.064C10.948 11.096 10.992 11.076 10.992 11.076L13.552 10.128M12.588 10.1C12.212 10.084 12.004 10.316 11.668 10.288C11.328 10.256 11.14 10.44 11.008 10.488C10.876 10.528 10.8 10.436 10.78 10.476C10.76 10.516 10.864 10.596 11.052 10.572C11.236 10.544 11.292 10.404 11.704 10.436C12.116 10.468 12.212 10.268 12.584 10.316" stroke="#85340A" stroke-width="0.132"/>
<path d="M13.501 9.86181L10.7735 9.96598C10.7735 9.96598 10.7215 9.96609 10.7203 10.0002C10.7229 10.0359 10.7712 10.0343 10.7712 10.0343L13.4991 10.1381M12.6192 9.74335C12.2779 9.58468 11.997 9.71942 11.6973 9.56497C11.3954 9.40529 11.1513 9.50334 11.011 9.49718C10.8737 9.48362 10.8387 9.36953 10.8049 9.39884C10.7711 9.42814 10.8366 9.54185 11.0195 9.59162C11.2002 9.63616 11.3055 9.52825 11.6739 9.71548C12.0423 9.90271 12.2075 9.75467 12.5328 9.94138" fill="#F6B40E"/>
<path d="M13.501 9.86181L10.7735 9.96598C10.7735 9.96598 10.7215 9.96609 10.7203 10.0002C10.7229 10.0359 10.7712 10.0343 10.7712 10.0343L13.4991 10.1381M12.6192 9.74335C12.2779 9.58468 11.997 9.71942 11.6973 9.56497C11.3954 9.40529 11.1513 9.50334 11.011 9.49718C10.8737 9.48362 10.8387 9.36953 10.8049 9.39884C10.7711 9.42814 10.8366 9.54185 11.0195 9.59162C11.2002 9.63616 11.3055 9.52825 11.6739 9.71548C12.0423 9.90271 12.2075 9.75467 12.5328 9.94138" stroke="#85340A" stroke-width="0.132"/>
<path d="M13.5538 9.87269L10.9941 8.92517C10.9941 8.92517 10.946 8.90537 10.9318 8.93648C10.9205 8.97042 10.9658 8.98739 10.9658 8.98739L13.4463 10.1272M12.7844 9.4258C12.5299 9.14861 12.2188 9.16558 12.001 8.9082C11.7832 8.64515 11.5201 8.64232 11.3929 8.58293C11.2712 8.51787 11.2826 8.39908 11.2401 8.41322C11.1977 8.42736 11.2147 8.55747 11.3646 8.67344C11.5145 8.78374 11.6531 8.72435 11.9218 9.0383C12.1905 9.35226 12.3998 9.27872 12.6289 9.5757" fill="#F6B40E"/>
<path d="M13.5538 9.87269L10.9941 8.92517C10.9941 8.92517 10.946 8.90537 10.9318 8.93648C10.9205 8.97042 10.9658 8.98739 10.9658 8.98739L13.4463 10.1272M12.7844 9.4258C12.5299 9.14861 12.2188 9.16558 12.001 8.9082C11.7832 8.64515 11.5201 8.64232 11.3929 8.58293C11.2712 8.51787 11.2826 8.39908 11.2401 8.41322C11.1977 8.42736 11.2147 8.55747 11.3646 8.67344C11.5145 8.78374 11.6531 8.72435 11.9218 9.0383C12.1905 9.35226 12.3998 9.27872 12.6289 9.5757" stroke="#85340A" stroke-width="0.132"/>
<path d="M13.5984 9.90294L11.5961 8.04798C11.5961 8.04798 11.5593 8.01129 11.5343 8.03462C11.5108 8.06165 11.5462 8.09464 11.5462 8.09464L13.4017 10.097M13.0586 9.19566C12.9295 8.84215 12.6356 8.73877 12.5329 8.41763C12.4323 8.09127 12.1904 7.98799 12.0955 7.88441C12.0081 7.77776 12.064 7.67234 12.0194 7.66917C11.9748 7.666 11.9406 7.7927 12.0348 7.9572C12.131 8.11648 12.2818 8.11464 12.4099 8.50753C12.538 8.90041 12.7595 8.91257 12.8575 9.27462" fill="#F6B40E"/>
<path d="M13.5984 9.90294L11.5961 8.04798C11.5961 8.04798 11.5593 8.01129 11.5343 8.03462C11.5108 8.06165 11.5462 8.09464 11.5462 8.09464L13.4017 10.097M13.0586 9.19566C12.9295 8.84215 12.6356 8.73877 12.5329 8.41763C12.4323 8.09127 12.1904 7.98799 12.0955 7.88441C12.0081 7.77776 12.064 7.67234 12.0194 7.66917C11.9748 7.666 11.9406 7.7927 12.0348 7.9572C12.131 8.11648 12.2818 8.11464 12.4099 8.50753C12.538 8.90041 12.7595 8.91257 12.8575 9.27462" stroke="#85340A" stroke-width="0.132"/>
<path d="M12.524 10.172C12.164 10.192 12.004 10.396 11.672 10.356C11.932 10.444 12.136 10.232 12.52 10.244M13.472 9.93597L11.768 10.716L13.524 10.064" fill="#85340A"/>
<path d="M12.5324 9.78536C12.1922 9.66608 11.9663 9.79332 11.6749 9.62931C11.8814 9.81011 12.151 9.69232 12.5012 9.85035M13.4986 9.93011L11.6258 9.99865L13.4976 10.0683" fill="#85340A"/>
<path d="M12.6883 9.43145C12.4196 9.19103 12.1622 9.22215 11.9557 8.9591C12.0773 9.20518 12.3715 9.19952 12.6345 9.47953M13.5255 9.93491L11.769 9.28154L13.4717 10.0622" fill="#85340A"/>
<path d="M12.9676 9.16411C12.8114 8.83917 12.5617 8.76942 12.4716 8.44738C12.4898 8.72127 12.7637 8.82861 12.8996 9.18797M13.5485 9.94964L12.1757 8.67384L13.4501 10.0467" fill="#85340A"/>
<path d="M13.6281 9.948L12.4881 7.468C12.4881 7.468 12.4681 7.42 12.4361 7.432C12.4041 7.448 12.4241 7.492 12.4241 7.492L13.3721 10.052M13.4001 9.088C13.4161 8.712 13.1841 8.504 13.2121 8.168C13.2441 7.828 13.0601 7.64 13.0121 7.508C12.9721 7.376 13.0641 7.3 13.0241 7.28C12.9841 7.26 12.9041 7.364 12.9281 7.552C12.9561 7.736 13.0961 7.792 13.0641 8.204C13.0321 8.616 13.2321 8.712 13.1841 9.084" fill="#F6B40E"/>
<path d="M13.6281 9.948L12.4881 7.468C12.4881 7.468 12.4681 7.42 12.4361 7.432C12.4041 7.448 12.4241 7.492 12.4241 7.492L13.3721 10.052M13.4001 9.088C13.4161 8.712 13.1841 8.504 13.2121 8.168C13.2441 7.828 13.0601 7.64 13.0121 7.508C12.9721 7.376 13.0641 7.3 13.0241 7.28C12.9841 7.26 12.9041 7.364 12.9281 7.552C12.9561 7.736 13.0961 7.792 13.0641 8.204C13.0321 8.616 13.2321 8.712 13.1841 9.084" stroke="#85340A" stroke-width="0.132"/>
<path d="M13.6382 10.001L13.534 7.27348C13.534 7.27348 13.5339 7.22148 13.4998 7.22032C13.4641 7.22286 13.4657 7.27116 13.4657 7.27116L13.3619 9.99908M13.7567 9.11917C13.9153 8.77792 13.7806 8.49697 13.935 8.19726C14.0947 7.89539 13.9967 7.65128 14.0028 7.51096C14.0164 7.3737 14.1305 7.3387 14.1012 7.30491C14.0719 7.27113 13.9582 7.33659 13.9084 7.51947C13.8638 7.70018 13.9717 7.80549 13.7845 8.17388C13.5973 8.54228 13.7453 8.7075 13.5586 9.03282" fill="#F6B40E"/>
<path d="M13.6382 10.001L13.534 7.27348C13.534 7.27348 13.5339 7.22148 13.4998 7.22032C13.4641 7.22286 13.4657 7.27116 13.4657 7.27116L13.3619 9.99908M13.7567 9.11917C13.9153 8.77792 13.7806 8.49697 13.935 8.19726C14.0947 7.89539 13.9967 7.65128 14.0028 7.51096C14.0164 7.3737 14.1305 7.3387 14.1012 7.30491C14.0719 7.27113 13.9582 7.33659 13.9084 7.51947C13.8638 7.70018 13.9717 7.80549 13.7845 8.17388C13.5973 8.54228 13.7453 8.7075 13.5586 9.03282" stroke="#85340A" stroke-width="0.132"/>
<path d="M13.6273 10.0538L14.5748 7.49405C14.5748 7.49405 14.5946 7.44597 14.5635 7.43183C14.5295 7.42051 14.5125 7.46577 14.5125 7.46577L13.3727 9.9463M14.0741 9.28445C14.3513 9.02989 14.3344 8.71876 14.5917 8.50097C14.8548 8.28318 14.8576 8.02014 14.917 7.89286C14.9821 7.77124 15.1009 7.78255 15.0867 7.74013C15.0726 7.6977 14.9425 7.71467 14.8265 7.86458C14.7162 8.01448 14.7756 8.15308 14.4616 8.42178C14.1477 8.69048 14.2212 8.89978 13.9242 9.12888" fill="#F6B40E"/>
<path d="M13.6273 10.0538L14.5748 7.49405C14.5748 7.49405 14.5946 7.44597 14.5635 7.43183C14.5295 7.42051 14.5125 7.46577 14.5125 7.46577L13.3727 9.9463M14.0741 9.28445C14.3513 9.02989 14.3344 8.71876 14.5917 8.50097C14.8548 8.28318 14.8576 8.02014 14.917 7.89286C14.9821 7.77124 15.1009 7.78255 15.0867 7.74013C15.0726 7.6977 14.9425 7.71467 14.8265 7.86458C14.7162 8.01448 14.7756 8.15308 14.4616 8.42178C14.1477 8.69048 14.2212 8.89978 13.9242 9.12888" stroke="#85340A" stroke-width="0.132"/>
<path d="M13.5971 10.0984L15.452 8.09611C15.452 8.09611 15.4887 8.05926 15.4654 8.03429C15.4384 8.01085 15.4054 8.04616 15.4054 8.04616L13.403 9.90167M14.3043 9.55863C14.6578 9.42953 14.7612 9.13559 15.0824 9.03287C15.4087 8.93233 15.512 8.69039 15.6156 8.59553C15.7222 8.50806 15.8277 8.56397 15.8308 8.51936C15.834 8.47475 15.7073 8.44064 15.5428 8.53476C15.3835 8.63104 15.3854 8.78182 14.9925 8.90992C14.5996 9.03802 14.5874 9.25953 14.2254 9.35754" fill="#F6B40E"/>
<path d="M13.5971 10.0984L15.452 8.09611C15.452 8.09611 15.4887 8.05926 15.4654 8.03429C15.4384 8.01085 15.4054 8.04616 15.4054 8.04616L13.403 9.90167M14.3043 9.55863C14.6578 9.42953 14.7612 9.13559 15.0824 9.03287C15.4087 8.93233 15.512 8.69039 15.6156 8.59553C15.7222 8.50806 15.8277 8.56397 15.8308 8.51936C15.834 8.47475 15.7073 8.44064 15.5428 8.53476C15.3835 8.63104 15.3854 8.78182 14.9925 8.90992C14.5996 9.03802 14.5874 9.25953 14.2254 9.35754" stroke="#85340A" stroke-width="0.132"/>
<path d="M13.328 9.02405C13.308 8.66405 13.104 8.50405 13.144 8.17205C13.056 8.43205 13.268 8.63605 13.256 9.02005M13.564 9.97205L12.784 8.26805L13.436 10.024" fill="#85340A"/>
<path d="M13.7146 9.0325C13.8339 8.69225 13.7066 8.46636 13.8706 8.17494C13.6898 8.38147 13.8076 8.65107 13.6496 9.00125M13.5698 9.99865L13.5013 8.12587L13.4317 9.99771" fill="#85340A"/>
<path d="M14.0686 9.18827C14.309 8.91957 14.2779 8.66218 14.5409 8.45571C14.2948 8.57733 14.3005 8.87149 14.0205 9.13453M13.5651 10.0255L14.2185 8.26903L13.4378 9.97175" fill="#85340A"/>
<path d="M14.3359 9.46764C14.6608 9.3114 14.7306 9.0617 15.0526 8.9716C14.7787 8.9898 14.6714 9.26373 14.312 9.39959M13.5504 10.0485L14.8262 8.67574L13.4533 9.9501" fill="#85340A"/>
<path d="M13.552 10.128L16.032 8.98799C16.032 8.98799 16.08 8.96799 16.068 8.93599C16.052 8.90399 16.008 8.92399 16.008 8.92399L13.448 9.87199M14.412 9.89999C14.788 9.91599 14.996 9.68399 15.332 9.71199C15.672 9.74399 15.86 9.55999 15.992 9.51199C16.124 9.47199 16.2 9.56399 16.22 9.52399C16.24 9.48399 16.136 9.40399 15.948 9.42799C15.764 9.45599 15.708 9.59599 15.296 9.56399C14.884 9.53199 14.788 9.73199 14.416 9.68399" fill="#F6B40E"/>
<path d="M13.552 10.128L16.032 8.98799C16.032 8.98799 16.08 8.96799 16.068 8.93599C16.052 8.90399 16.008 8.92399 16.008 8.92399L13.448 9.87199M14.412 9.89999C14.788 9.91599 14.996 9.68399 15.332 9.71199C15.672 9.74399 15.86 9.55999 15.992 9.51199C16.124 9.47199 16.2 9.56399 16.22 9.52399C16.24 9.48399 16.136 9.40399 15.948 9.42799C15.764 9.45599 15.708 9.59599 15.296 9.56399C14.884 9.53199 14.788 9.73199 14.416 9.68399" stroke="#85340A" stroke-width="0.132"/>
<path d="M13.499 10.1382L16.2265 10.034C16.2265 10.034 16.2785 10.0339 16.2797 9.99975C16.2771 9.96407 16.2288 9.96571 16.2288 9.96571L13.5009 9.86187M14.3808 10.2567C14.7221 10.4153 15.003 10.2806 15.3027 10.435C15.6046 10.5947 15.8487 10.4967 15.989 10.5028C16.1263 10.5164 16.1613 10.6305 16.1951 10.6012C16.2289 10.5719 16.1634 10.4582 15.9805 10.4084C15.7998 10.3638 15.6945 10.4717 15.3261 10.2845C14.9577 10.0973 14.7925 10.2453 14.4672 10.0586" fill="#F6B40E"/>
<path d="M13.499 10.1382L16.2265 10.034C16.2265 10.034 16.2785 10.0339 16.2797 9.99975C16.2771 9.96407 16.2288 9.96571 16.2288 9.96571L13.5009 9.86187M14.3808 10.2567C14.7221 10.4153 15.003 10.2806 15.3027 10.435C15.6046 10.5947 15.8487 10.4967 15.989 10.5028C16.1263 10.5164 16.1613 10.6305 16.1951 10.6012C16.2289 10.5719 16.1634 10.4582 15.9805 10.4084C15.7998 10.3638 15.6945 10.4717 15.3261 10.2845C14.9577 10.0973 14.7925 10.2453 14.4672 10.0586" stroke="#85340A" stroke-width="0.132"/>
<path d="M13.4462 10.1273L16.0059 11.0748C16.0059 11.0748 16.054 11.0946 16.0682 11.0635C16.0795 11.0296 16.0342 11.0126 16.0342 11.0126L13.5537 9.87275M14.2156 10.5742C14.4701 10.8514 14.7812 10.8344 14.999 11.0918C15.2168 11.3548 15.4799 11.3577 15.6071 11.4171C15.7288 11.4821 15.7174 11.6009 15.7599 11.5868C15.8023 11.5726 15.7853 11.4425 15.6354 11.3266C15.4855 11.2163 15.3469 11.2757 15.0782 10.9617C14.8095 10.6477 14.6002 10.7213 14.3711 10.4243" fill="#F6B40E"/>
<path d="M13.4462 10.1273L16.0059 11.0748C16.0059 11.0748 16.054 11.0946 16.0682 11.0635C16.0795 11.0296 16.0342 11.0126 16.0342 11.0126L13.5537 9.87275M14.2156 10.5742C14.4701 10.8514 14.7812 10.8344 14.999 11.0918C15.2168 11.3548 15.4799 11.3577 15.6071 11.4171C15.7288 11.4821 15.7174 11.6009 15.7599 11.5868C15.8023 11.5726 15.7853 11.4425 15.6354 11.3266C15.4855 11.2163 15.3469 11.2757 15.0782 10.9617C14.8095 10.6477 14.6002 10.7213 14.3711 10.4243" stroke="#85340A" stroke-width="0.132"/>
<path d="M13.4016 10.0971L15.4039 11.952C15.4039 11.952 15.4407 11.9887 15.4657 11.9654C15.4892 11.9384 15.4538 11.9054 15.4538 11.9054L13.5983 9.90301M13.9414 10.8043C14.0705 11.1578 14.3644 11.2612 14.4671 11.5824C14.5677 11.9087 14.8096 12.012 14.9045 12.1156C14.9919 12.2222 14.936 12.3277 14.9806 12.3308C15.0252 12.334 15.0594 12.2073 14.9652 12.0428C14.869 11.8835 14.7182 11.8854 14.5901 11.4925C14.462 11.0996 14.2405 11.0874 14.1425 10.7254" fill="#F6B40E"/>
<path d="M13.4016 10.0971L15.4039 11.952C15.4039 11.952 15.4407 11.9887 15.4657 11.9654C15.4892 11.9384 15.4538 11.9054 15.4538 11.9054L13.5983 9.90301M13.9414 10.8043C14.0705 11.1578 14.3644 11.2612 14.4671 11.5824C14.5677 11.9087 14.8096 12.012 14.9045 12.1156C14.9919 12.2222 14.936 12.3277 14.9806 12.3308C15.0252 12.334 15.0594 12.2073 14.9652 12.0428C14.869 11.8835 14.7182 11.8854 14.5901 11.4925C14.462 11.0996 14.2405 11.0874 14.1425 10.7254" stroke="#85340A" stroke-width="0.132"/>
<path d="M14.476 9.82803C14.836 9.80803 14.996 9.60403 15.328 9.64403C15.068 9.55603 14.864 9.76803 14.48 9.75603M13.528 10.064L15.232 9.28403L13.476 9.93603" fill="#85340A"/>
<path d="M14.4676 10.2146C14.8078 10.3339 15.0337 10.2067 15.3251 10.3707C15.1186 10.1899 14.849 10.3077 14.4988 10.1496M13.5014 10.0699L15.3742 10.0014L13.5024 9.93173" fill="#85340A"/>
<path d="M14.3117 10.5686C14.5804 10.809 14.8378 10.7779 15.0443 11.0409C14.9227 10.7948 14.6285 10.8005 14.3655 10.5205M13.4745 10.0651L15.231 10.7185L13.5283 9.93781" fill="#85340A"/>
<path d="M14.0324 10.8359C14.1886 11.1608 14.4383 11.2306 14.5284 11.5526C14.5102 11.2787 14.2363 11.1714 14.1004 10.812M13.4515 10.0504L14.8243 11.3262L13.5499 9.95334" fill="#85340A"/>
<path d="M13.5001 11.1125C14.1145 11.1125 14.6126 10.6144 14.6126 10C14.6126 9.3856 14.1145 8.88751 13.5001 8.88751C12.8857 8.88751 12.3876 9.3856 12.3876 10C12.3876 10.6144 12.8857 11.1125 13.5001 11.1125Z" fill="#F6B40E" stroke="#85340A" stroke-width="0.175"/>
<path d="M13.8792 9.76251C13.8042 9.76251 13.7292 9.79585 13.6875 9.86251C13.7708 9.94168 13.9625 9.94585 14.0917 9.85418C14.0644 9.82521 14.0314 9.80213 13.9949 9.78637C13.9584 9.7706 13.919 9.76248 13.8792 9.76251ZM13.8792 9.77918C13.95 9.77918 14.0208 9.81251 14.0292 9.84585C13.9458 9.94168 13.8083 9.92918 13.7208 9.86251C13.7376 9.83596 13.7611 9.81429 13.7889 9.79967C13.8166 9.78504 13.8478 9.77798 13.8792 9.77918Z" fill="#843511"/>
<path d="M13.8917 9.70831C13.7792 9.70831 13.7542 9.73748 13.7042 9.77915C13.6542 9.82081 13.6251 9.81248 13.6209 9.82081C13.6084 9.82915 13.6209 9.85415 13.6334 9.84581C13.6542 9.83748 13.6876 9.82081 13.7376 9.77915C13.7876 9.73748 13.8417 9.73748 13.8917 9.73748C14.0459 9.73748 14.1292 9.86248 14.1501 9.85415C14.1626 9.84581 14.0626 9.70831 13.8917 9.70831Z" fill="#85340A"/>
<path d="M14.2001 9.76247C14.0042 9.59164 13.7542 9.56247 13.6167 9.69164C13.5845 9.73451 13.563 9.78454 13.5542 9.83747C13.5376 9.93331 13.5667 10.0375 13.6417 10.1458L13.6084 10.1625C13.543 10.0431 13.5195 9.90514 13.5417 9.77081C13.5472 9.73818 13.5556 9.70611 13.5667 9.67497C13.7542 9.52081 14.0126 9.50831 14.2001 9.75831V9.76247Z" fill="#85340A"/>
<path d="M13.8751 9.925C13.9188 9.925 13.9542 9.88955 13.9542 9.84583C13.9542 9.80211 13.9188 9.76666 13.8751 9.76666C13.8313 9.76666 13.7959 9.80211 13.7959 9.84583C13.7959 9.88955 13.8313 9.925 13.8751 9.925Z" fill="#85340A"/>
<path d="M14.0958 9.89582C13.95 10.0083 13.8042 9.99998 13.7208 9.94998C13.6375 9.89582 13.6375 9.87915 13.6542 9.87915C13.6708 9.87915 13.6875 9.89582 13.7542 9.93332C13.825 9.96665 13.925 9.96665 14.0958 9.89582Z" fill="#85340A"/>
<path d="M13.3333 10.1542C13.32 10.1555 13.3072 10.1603 13.2961 10.1679C13.2851 10.1756 13.2762 10.1859 13.2702 10.198C13.2643 10.21 13.2615 10.2234 13.2622 10.2368C13.2629 10.2503 13.2669 10.2633 13.274 10.2747C13.2811 10.2861 13.291 10.2956 13.3027 10.3021C13.3144 10.3086 13.3277 10.3121 13.3411 10.3121C13.3545 10.3122 13.3677 10.3088 13.3795 10.3023C13.3913 10.2958 13.4012 10.2864 13.4083 10.275C13.4358 10.2921 13.4677 10.3008 13.5 10.3H13.5083C13.5421 10.3019 13.5756 10.2931 13.6042 10.275C13.6119 10.2856 13.6221 10.2941 13.6338 10.2998C13.6456 10.3054 13.6586 10.3081 13.6717 10.3075C13.6848 10.3069 13.6975 10.3031 13.7087 10.2964C13.7199 10.2897 13.7293 10.2804 13.7361 10.2692C13.7428 10.2579 13.7466 10.2452 13.7472 10.2322C13.7479 10.2191 13.7452 10.2061 13.7396 10.1943C13.734 10.1825 13.7255 10.1723 13.715 10.1646C13.7044 10.1568 13.6921 10.1518 13.6792 10.15C13.7 10.1625 13.7125 10.1792 13.7125 10.2042C13.7125 10.2292 13.6917 10.2542 13.6625 10.2542C13.6492 10.2542 13.6365 10.2489 13.6272 10.2395C13.6178 10.2302 13.6125 10.2175 13.6125 10.2042C13.6026 10.2248 13.5873 10.2422 13.5682 10.2547C13.5491 10.2672 13.527 10.2742 13.5042 10.275C13.4821 10.2735 13.4608 10.2661 13.4425 10.2537C13.4242 10.2412 13.4095 10.2242 13.4 10.2042C13.4 10.2111 13.3986 10.218 13.3958 10.2243C13.3931 10.2307 13.389 10.2364 13.3839 10.2411C13.3788 10.2458 13.3728 10.2494 13.3663 10.2517C13.3597 10.2539 13.3527 10.2548 13.3458 10.2542C13.3208 10.2542 13.2958 10.2292 13.2958 10.2042C13.2958 10.1792 13.3083 10.1625 13.3292 10.1542H13.3333ZM13.4167 10.3834C13.3292 10.3834 13.2917 10.4584 13.2167 10.5084C13.2583 10.4917 13.2958 10.4584 13.3542 10.425C13.4125 10.3917 13.4667 10.4334 13.5 10.4334C13.5333 10.4334 13.5833 10.3917 13.6458 10.425C13.7042 10.4584 13.7417 10.4917 13.7833 10.5084C13.7042 10.4584 13.6708 10.3834 13.5833 10.3834C13.5542 10.3863 13.5259 10.3948 13.5 10.4084C13.4744 10.3933 13.4461 10.3834 13.4167 10.3792V10.3834Z" fill="#85340A"/>
<path d="M13.3834 10.4833C13.35 10.4833 13.3084 10.4917 13.2417 10.5083C13.3959 10.475 13.4292 10.5292 13.5 10.5292C13.5667 10.5292 13.6 10.475 13.7542 10.5083C13.5875 10.4583 13.55 10.4917 13.5 10.4917C13.4667 10.4917 13.4417 10.4792 13.3834 10.4833Z" fill="#85340A"/>
<path d="M13.25 10.5083H13.2167C13.3958 10.5292 13.3125 10.6333 13.5 10.6333C13.6875 10.6333 13.6042 10.5292 13.7833 10.5083C13.5958 10.4917 13.6542 10.6042 13.5 10.6042C13.3542 10.6042 13.4 10.5083 13.25 10.5083ZM13.6542 10.7875C13.6542 10.7466 13.6379 10.7074 13.609 10.6785C13.5801 10.6496 13.5409 10.6333 13.5 10.6333C13.4591 10.6333 13.4199 10.6496 13.391 10.6785C13.3621 10.7074 13.3458 10.7466 13.3458 10.7875C13.354 10.7527 13.3736 10.7217 13.4016 10.6995C13.4296 10.6773 13.4643 10.6653 13.5 10.6653C13.5357 10.6653 13.5704 10.6773 13.5984 10.6995C13.6264 10.7217 13.646 10.7527 13.6542 10.7875Z" fill="#85340A"/>
<path d="M12.8083 9.76247C13.0042 9.59164 13.2542 9.56247 13.3917 9.69164C13.424 9.73451 13.4454 9.78454 13.4542 9.83747C13.4708 9.93331 13.4417 10.0375 13.3667 10.1458L13.4 10.1625C13.4654 10.0431 13.4889 9.90514 13.4667 9.77081C13.4612 9.73818 13.4529 9.70611 13.4417 9.67497C13.2542 9.52081 12.9958 9.50831 12.8083 9.75831V9.76247Z" fill="#85340A"/>
<path d="M13.1167 9.70831C13.2292 9.70831 13.2542 9.73748 13.3042 9.77915C13.3542 9.82081 13.3833 9.81248 13.3875 9.82081C13.4 9.82915 13.3875 9.85415 13.375 9.84581C13.3542 9.83748 13.3208 9.82081 13.2708 9.77915C13.2208 9.73748 13.1667 9.73748 13.1167 9.73748C12.9625 9.73748 12.8792 9.86248 12.8583 9.85415C12.8458 9.84581 12.9458 9.70831 13.1167 9.70831Z" fill="#85340A"/>
<path d="M13.1126 9.76251C13.0376 9.76251 12.9626 9.79585 12.9209 9.86251C13.0042 9.94168 13.1959 9.94585 13.3251 9.85418C13.2978 9.82521 13.2648 9.80213 13.2283 9.78637C13.1918 9.7706 13.1524 9.76248 13.1126 9.76251ZM13.1126 9.77918C13.1834 9.77918 13.2542 9.81251 13.2626 9.84585C13.1792 9.94168 13.0417 9.92918 12.9542 9.86251C12.971 9.83596 12.9945 9.81429 13.0223 9.79967C13.05 9.78504 13.0812 9.77798 13.1126 9.77918Z" fill="#843511"/>
<path d="M13.1209 9.925C13.1646 9.925 13.2001 9.88955 13.2001 9.84583C13.2001 9.80211 13.1646 9.76666 13.1209 9.76666C13.0772 9.76666 13.0417 9.80211 13.0417 9.84583C13.0417 9.88955 13.0772 9.925 13.1209 9.925Z" fill="#85340A"/>
<path d="M12.9125 9.89582C13.0583 10.0083 13.2041 9.99998 13.2875 9.94998C13.3708 9.89582 13.3708 9.87915 13.3541 9.87915C13.3375 9.87915 13.3208 9.89582 13.2541 9.93332C13.1833 9.96665 13.0833 9.96665 12.9125 9.89582Z" fill="#85340A"/>
</g>
<defs>
<clipPath id="clip0_80_772">
<rect width="26.6667" height="20" fill="white" transform="translate(0.166687)"/>
</clipPath>
</defs>
</svg>
