<svg width="27" height="20" viewBox="0 0 27 20" fill="none" xmlns="http://www.w3.org/2000/svg">
<g clip-path="url(#clip0_80_825)">
<path fill-rule="evenodd" clip-rule="evenodd" d="M0.166748 0H26.8334V20H0.166748V0Z" fill="#229E45"/>
<path fill-rule="evenodd" clip-rule="evenodd" d="M13.5584 18.1666L26.1209 10.0125L13.4834 1.83331L0.879272 10.0291L13.5584 18.1666Z" fill="#F8E509"/>
<path fill-rule="evenodd" clip-rule="evenodd" d="M19.0334 10C19.0334 12.9292 16.6542 15.3042 13.7167 15.3042C12.667 15.3025 11.6414 14.9897 10.7694 14.4052C9.89749 13.8207 9.21841 12.9909 8.81804 12.0205C8.41766 11.0502 8.31397 9.98287 8.52007 8.95359C8.72617 7.92431 9.23281 6.97925 9.97594 6.23786C10.7191 5.49648 11.6653 4.99206 12.6951 4.78839C13.7249 4.58471 14.7919 4.69091 15.7613 5.09357C16.7307 5.49623 17.559 6.17726 18.1414 7.05058C18.7238 7.92389 19.0342 8.95028 19.0334 10Z" fill="#2B49A3"/>
<path fill-rule="evenodd" clip-rule="evenodd" d="M11.9709 13.1792L11.8042 13.0834L11.6376 13.1667L11.6751 12.9792L11.5417 12.8375L11.7292 12.8167L11.8209 12.65L11.9001 12.825L12.0834 12.8584L11.9459 12.9834M15.5292 14.0792L15.3667 13.9834L15.2001 14.0667L15.2334 13.8792L15.1042 13.7417L15.2917 13.7208L15.3792 13.55L15.4626 13.725L15.6459 13.7584L15.5042 13.8875M13.9959 12.6375L13.8542 12.5542L13.7084 12.6292L13.7417 12.4667L13.6251 12.3458L13.7917 12.3292L13.8667 12.1792L13.9334 12.3334L14.0959 12.3625L13.9709 12.475M17.5959 12.1208L17.4542 12.0375L17.3084 12.1125L17.3417 11.95L17.2292 11.8333L17.3917 11.8167L17.4667 11.6709L17.5334 11.8209L17.6917 11.85L17.5709 11.9583M13.9334 11.0417L13.7667 10.95L13.6001 11.0333L13.6334 10.8417L13.5042 10.7042L13.6917 10.6833L13.7792 10.5125L13.8626 10.6875L14.0459 10.7208L13.9042 10.8542M9.54589 9.39585L9.37922 9.30418L9.21256 9.38752L9.25422 9.19585L9.11672 9.05835L9.30839 9.03752L9.39172 8.86668L9.47506 9.04168L9.65839 9.07502L9.52089 9.20418M10.0751 11.5875L9.90839 11.4917L9.74172 11.575L9.77922 11.3875L9.64589 11.25L9.83339 11.225L9.92089 11.0583L10.0042 11.2334L10.1876 11.2667L10.0501 11.3958M15.5501 8.59168L15.4001 8.50835L15.2501 8.58335L15.2834 8.41668L15.1667 8.29168L15.3334 8.27085L15.4126 8.12085L15.4834 8.27918L15.6501 8.30835L15.5251 8.42085M15.2459 10.0167L15.1334 9.95002L15.0126 10.0083L15.0376 9.87502L14.9459 9.77918L15.0792 9.76252L15.1417 9.64585L15.1959 9.77085L15.3209 9.79168L15.2292 9.88335M9.30422 11.9834L9.19172 11.9209L9.07922 11.975L9.10422 11.85L9.01672 11.7584L9.14172 11.7417L9.20006 11.6292L9.25422 11.7458L9.37922 11.7708L9.28339 11.8542M17.6251 12.4917L17.5334 12.4459L17.4417 12.4875L17.4626 12.3917L17.3917 12.325L17.4917 12.3125L17.5417 12.2292L17.5834 12.3125L17.6876 12.3334L17.6084 12.3959" fill="#FFFFEF"/>
<path fill-rule="evenodd" clip-rule="evenodd" d="M9.30422 11.9833L9.19172 11.9208L9.07922 11.975L9.10422 11.85L9.01672 11.7583L9.14172 11.7416L9.20006 11.6292L9.25422 11.7458L9.37922 11.7708L9.28339 11.8542" fill="#FFFFEF"/>
<path fill-rule="evenodd" clip-rule="evenodd" d="M9.30422 11.9834L9.19172 11.9209L9.07922 11.975L9.10422 11.85L9.01672 11.7584L9.14172 11.7417L9.20006 11.6292L9.25422 11.7458L9.37922 11.7708L9.28339 11.8542M11.0459 11.9792L10.9376 11.9209L10.8251 11.975L10.8501 11.85L10.7626 11.7584L10.8876 11.7417L10.9459 11.6292L11.0001 11.7458L11.1251 11.7667L11.0292 11.8542M10.8292 12.5625L10.7209 12.5L10.6084 12.5583L10.6334 12.4333L10.5459 12.3375L10.6709 12.3209L10.7292 12.2083L10.7834 12.325L10.9084 12.35L10.8126 12.4333M14.4542 11.5084L14.3459 11.4417L14.2292 11.5L14.2542 11.375L14.1709 11.2792L14.2959 11.2667L14.3542 11.1542L14.4042 11.2708L14.5292 11.2917L14.4376 11.3792M13.3917 11.5042L13.2792 11.4417L13.1667 11.5L13.1917 11.375L13.1084 11.2792L13.2334 11.2667L13.2917 11.15L13.3417 11.2708L13.4667 11.2917L13.3751 11.3792M10.5084 11.1375L10.4376 11.0958L10.3667 11.1292L10.3834 11.05L10.3292 10.9917L10.4084 10.9834L10.4417 10.9125L10.4751 10.9875L10.5542 11L10.4959 11.0542M17.4876 12.9459L17.3792 12.8834L17.2667 12.9417L17.2917 12.8167L17.2042 12.7208L17.3292 12.7042L17.3876 12.5917L17.4417 12.7083L17.5667 12.7334L17.4709 12.8167M16.6042 13.0667L16.5126 13.0084L16.4167 13.0583L16.4376 12.95L16.3667 12.875L16.4709 12.8625L16.5209 12.7667L16.5626 12.8667L16.6667 12.8834L16.5876 12.9583M17.0209 13.0542L16.9376 13.0042L16.8501 13.0459L16.8667 12.95L16.8001 12.8792L16.8959 12.8667L16.9417 12.7833L16.9834 12.8667L17.0792 12.8875L17.0084 12.9542M18.2209 12.0042L18.1376 11.9625L18.0542 12.0042L18.0751 11.9083L18.0084 11.8375L18.1042 11.825L18.1459 11.7417L18.1876 11.8292L18.2751 11.8458L18.2084 11.9125M16.5917 13.6542L16.4876 13.5958L16.3751 13.6458L16.4001 13.5292L16.3167 13.4459L16.4417 13.4333L16.4959 13.3292L16.5459 13.4375L16.6709 13.4583L16.5751 13.5375M16.6001 14.1292L16.5001 14.0709L16.4001 14.125L16.4251 14.0084L16.3459 13.925L16.4584 13.9083L16.5084 13.8042L16.5542 13.9125L16.6667 13.9333L16.5834 14.0167M15.7917 13.0542L15.7126 13.0042L15.6292 13.0459L15.6459 12.9542L15.5834 12.8834L15.6751 12.875L15.7167 12.7917L15.7584 12.875L15.8501 12.8917L15.7834 12.9583M15.0417 13.0542L14.9584 13.0042L14.8751 13.0459L14.8959 12.9542L14.8292 12.8834L14.9251 12.875L14.9667 12.7917L15.0084 12.875L15.0959 12.8917L15.0292 12.9583M13.7626 11.9333L13.6792 11.8875L13.5959 11.9292L13.6167 11.8333L13.5501 11.7667L13.6417 11.7542L13.6834 11.6709L13.7251 11.7542L13.8167 11.775L13.7501 11.8375M13.9042 14.2125L13.8376 14.175L13.7626 14.2125L13.7792 14.1292L13.7251 14.0709L13.8042 14.0625L13.8417 13.9917L13.8751 14.0667L13.9542 14.0792L13.8959 14.1334M11.9709 10.525L11.8042 10.4292L11.6376 10.5125L11.6751 10.325L11.5417 10.1875L11.7292 10.1625L11.8209 9.99585L11.9001 10.1709L12.0834 10.2042L11.9459 10.3333" fill="#FFFFEF"/>
<path fill-rule="evenodd" clip-rule="evenodd" d="M18.6835 11.9084C18.7867 11.6405 18.8675 11.3646 18.9251 11.0834C16.1001 8.60419 12.9543 7.33336 8.97929 7.59586C8.83512 7.87482 8.71658 8.1663 8.62512 8.46669C13.3335 8.01669 16.7918 10.1 18.6835 11.9084Z" fill="white"/>
<path d="M17.4168 10.5167L17.5126 10.5708C17.4983 10.5991 17.4939 10.6314 17.5001 10.6625C17.5099 10.6927 17.5307 10.718 17.5584 10.7333C17.5876 10.7542 17.6168 10.7667 17.6418 10.7625C17.6668 10.7625 17.6834 10.75 17.6959 10.7333C17.7032 10.7223 17.7062 10.7089 17.7043 10.6958C17.7008 10.6804 17.6937 10.6661 17.6834 10.6542C17.6751 10.6417 17.6543 10.6125 17.6209 10.5792C17.5867 10.5438 17.561 10.501 17.5459 10.4542C17.5355 10.4187 17.5382 10.3807 17.5535 10.347C17.5688 10.3134 17.5957 10.2863 17.6293 10.2708C17.6596 10.2582 17.6931 10.2553 17.7251 10.2625C17.7643 10.2715 17.8011 10.2885 17.8334 10.3125C17.8918 10.3542 17.9293 10.3958 17.9418 10.4458C17.9475 10.4692 17.9483 10.4936 17.944 10.5173C17.9397 10.541 17.9304 10.5635 17.9168 10.5833L17.8168 10.5208C17.8293 10.4958 17.8334 10.4708 17.8251 10.45C17.8209 10.4292 17.8043 10.4083 17.7751 10.3917C17.7537 10.3745 17.7275 10.3643 17.7001 10.3625C17.6925 10.3622 17.6851 10.364 17.6785 10.3677C17.6718 10.3714 17.6664 10.3768 17.6626 10.3833C17.6543 10.3958 17.6543 10.4083 17.6584 10.425C17.6626 10.4417 17.6834 10.475 17.7251 10.5167C17.7668 10.5583 17.7918 10.5958 17.8084 10.6208C17.8233 10.6481 17.83 10.6791 17.8278 10.7102C17.8256 10.7412 17.8145 10.7709 17.7959 10.7958C17.7764 10.8242 17.7488 10.8459 17.7168 10.8583C17.6855 10.8727 17.6506 10.8771 17.6168 10.8708C17.5793 10.8625 17.5418 10.8458 17.5001 10.8167C17.4376 10.775 17.4001 10.7292 17.3876 10.6792C17.374 10.6225 17.383 10.5627 17.4126 10.5125L17.4168 10.5167ZM16.9334 10.2L17.0376 10.2542C17.0247 10.2829 17.0218 10.3152 17.0293 10.3458C17.0399 10.3744 17.0607 10.3981 17.0876 10.4125C17.1209 10.4333 17.1459 10.4417 17.1709 10.4375C17.1959 10.4375 17.2126 10.425 17.2251 10.4042C17.2314 10.3943 17.2343 10.3826 17.2334 10.3708C17.2334 10.3583 17.2251 10.3417 17.2126 10.3292C17.1912 10.3034 17.169 10.2784 17.1459 10.2542C17.1001 10.2083 17.0709 10.1708 17.0626 10.1375C17.0558 10.1161 17.0537 10.0934 17.0566 10.0711C17.0595 10.0488 17.0672 10.0273 17.0793 10.0083C17.0951 9.98262 17.1183 9.96229 17.1459 9.95C17.1746 9.9368 17.2065 9.93245 17.2376 9.9375C17.2761 9.94399 17.313 9.95816 17.3459 9.97917C17.4084 10.0208 17.4459 10.0625 17.4584 10.1083C17.466 10.1318 17.4685 10.1565 17.4656 10.181C17.4627 10.2054 17.4546 10.229 17.4418 10.25L17.3376 10.1917C17.3501 10.1625 17.3543 10.1417 17.3459 10.1208C17.3376 10.1 17.3209 10.0792 17.2918 10.0625C17.2687 10.046 17.241 10.0372 17.2126 10.0375C17.2057 10.038 17.1991 10.0401 17.1933 10.0437C17.1875 10.0474 17.1827 10.0524 17.1793 10.0583C17.1709 10.0708 17.1709 10.0833 17.1751 10.1C17.1793 10.1167 17.2043 10.15 17.2459 10.1917C17.2876 10.2333 17.3168 10.2667 17.3293 10.2917C17.346 10.3178 17.3548 10.3482 17.3548 10.3792C17.3548 10.4102 17.346 10.4405 17.3293 10.4667C17.3113 10.4957 17.2852 10.5189 17.2543 10.5333C17.223 10.5477 17.1881 10.5521 17.1543 10.5458C17.1114 10.5386 17.0703 10.523 17.0334 10.5C16.9796 10.4713 16.9381 10.4239 16.9168 10.3667C16.9007 10.311 16.9066 10.2513 16.9334 10.2ZM16.3418 10.0417L16.6459 9.54167L17.0126 9.77083L16.9626 9.85417L16.6959 9.6875L16.6293 9.8L16.8793 9.95417L16.8251 10.0375L16.5751 9.88333L16.4918 10.0208L16.7709 10.1875L16.7209 10.2708L16.3459 10.0417H16.3418ZM15.4793 9.33333L15.5251 9.25L15.7501 9.3625L15.6459 9.57083C15.6126 9.57917 15.5709 9.58333 15.5209 9.57917C15.4729 9.57387 15.4263 9.55975 15.3834 9.5375C15.333 9.51293 15.2899 9.47558 15.2584 9.42917C15.2298 9.38604 15.2152 9.33509 15.2168 9.28333C15.2189 9.22946 15.2331 9.17677 15.2584 9.12917C15.2835 9.07906 15.3207 9.03607 15.3668 9.00417C15.4108 8.97371 15.4632 8.9577 15.5168 8.95833C15.5584 8.95833 15.6001 8.97083 15.6501 9C15.7168 9.02917 15.7584 9.07083 15.7793 9.11667C15.8009 9.16217 15.8054 9.21398 15.7918 9.2625L15.6793 9.22917C15.6861 9.20126 15.6832 9.17183 15.6709 9.14583C15.6584 9.12083 15.6376 9.10417 15.6043 9.0875C15.5848 9.07641 15.5633 9.06956 15.541 9.06741C15.5187 9.06525 15.4963 9.06784 15.4751 9.075C15.4334 9.0875 15.3959 9.125 15.3668 9.18333C15.3376 9.24167 15.3251 9.29583 15.3376 9.34167C15.3433 9.3634 15.3538 9.38362 15.3682 9.40089C15.3826 9.41817 15.4006 9.43208 15.4209 9.44167C15.4418 9.45417 15.4668 9.4625 15.4918 9.4625C15.5166 9.46627 15.5419 9.46627 15.5668 9.4625L15.6001 9.39583L15.4793 9.33333ZM11.7209 8.40417L11.8043 7.82083L11.9793 7.85L12.0251 8.25833L12.1876 7.88333L12.3626 7.90833L12.2793 8.48333L12.1668 8.46667L12.2376 8.0125L12.0543 8.45L11.9418 8.43333L11.8959 7.9625L11.8293 8.42083L11.7209 8.40417ZM11.1334 8.33333L11.1876 7.75L11.6168 7.79167L11.6084 7.89167L11.2959 7.8625L11.2834 7.9875L11.5751 8.01667L11.5626 8.11667L11.2709 8.0875L11.2584 8.24583L11.5834 8.275L11.5751 8.375L11.1334 8.33333Z" fill="#309E3A"/>
<path d="M9.18764 7.97084C9.18764 7.90834 9.20014 7.8625 9.2168 7.82084C9.23141 7.7912 9.25116 7.7644 9.27514 7.74167C9.29651 7.72012 9.32202 7.70311 9.35014 7.69167C9.3918 7.67917 9.43347 7.67084 9.47514 7.67084C9.56264 7.67084 9.6293 7.70417 9.68347 7.75417C9.70925 7.78602 9.72843 7.82269 9.73988 7.86204C9.75132 7.90139 9.75481 7.94263 9.75014 7.98334C9.75014 8.075 9.72097 8.15 9.6668 8.20417C9.63897 8.2299 9.60604 8.2495 9.57016 8.2617C9.53427 8.2739 9.49622 8.27843 9.45847 8.275C9.42123 8.27538 9.3843 8.26819 9.34992 8.25386C9.31554 8.23954 9.28443 8.21838 9.25847 8.19167C9.20662 8.1303 9.18116 8.05091 9.18764 7.97084Z" fill="#309E3A"/>
<path d="M9.30847 7.97083C9.30847 8.03333 9.32097 8.08333 9.35014 8.12083C9.37931 8.15416 9.41681 8.175 9.46681 8.175C9.48844 8.17651 9.51013 8.17318 9.53031 8.16525C9.5505 8.15732 9.56866 8.14499 9.58347 8.12916C9.61264 8.09583 9.62514 8.04583 9.62931 7.975C9.62931 7.90833 9.62097 7.85833 9.58764 7.825C9.57407 7.8082 9.55693 7.79463 9.53748 7.78526C9.51802 7.7759 9.49673 7.77097 9.47514 7.77083C9.45322 7.77013 9.43141 7.77424 9.41126 7.78288C9.3911 7.79152 9.37308 7.80447 9.35847 7.82083C9.32514 7.85416 9.31264 7.90416 9.30847 7.97083Z" fill="#F7FFFF"/>
<path d="M9.87512 8.27083L9.88346 7.6875H10.1335C10.196 7.6875 10.2376 7.69583 10.2668 7.70833C10.296 7.71667 10.3168 7.7375 10.3335 7.7625C10.3501 7.7875 10.3585 7.82083 10.3585 7.85833C10.3588 7.89842 10.3439 7.93713 10.3168 7.96667C10.286 7.99552 10.2463 8.01314 10.2043 8.01667L10.2668 8.06667C10.2835 8.08333 10.3043 8.11667 10.3293 8.1625L10.4001 8.27917H10.2585L10.1751 8.14583L10.1168 8.0625C10.1067 8.05104 10.0938 8.04242 10.0793 8.0375C10.0603 8.03197 10.0407 8.02917 10.021 8.02917H9.99596V8.27083H9.87512Z" fill="#309E3A"/>
<path d="M10.0001 7.93748H10.0835C10.1418 7.93748 10.1793 7.93748 10.1918 7.92914C10.2043 7.92914 10.2168 7.91664 10.2251 7.90831C10.2335 7.89998 10.2376 7.87914 10.2376 7.86664C10.2376 7.84164 10.2335 7.82498 10.221 7.81664C10.2126 7.80414 10.196 7.79581 10.1793 7.79164H10.096L10.0001 7.78748V7.93331V7.93748Z" fill="white"/>
<path d="M10.5417 7.71667L10.7584 7.72917C10.8042 7.72917 10.8417 7.73334 10.8667 7.74168C10.8992 7.75344 10.9279 7.77356 10.9501 7.80001C10.9741 7.82914 10.9912 7.86333 11.0001 7.90001C11.0126 7.93751 11.0167 7.98334 11.0126 8.03751C11.0125 8.08004 11.0055 8.12227 10.9917 8.16251C10.9751 8.20417 10.9501 8.23751 10.9209 8.26251C10.8966 8.28251 10.8681 8.29676 10.8376 8.30418C10.8126 8.31251 10.7751 8.31251 10.7334 8.31251L10.5126 8.30001L10.5417 7.71667Z" fill="#309E3A"/>
<path d="M10.6543 7.82086L10.6334 8.20836H10.7918C10.8126 8.20836 10.8293 8.20003 10.8418 8.18753C10.8543 8.17503 10.8668 8.15836 10.8751 8.13336C10.8834 8.10836 10.8918 8.07086 10.8918 8.02503L10.8876 7.92086C10.8816 7.89889 10.8702 7.87881 10.8543 7.86253C10.8404 7.84861 10.8232 7.83856 10.8043 7.83336C10.7727 7.82635 10.7407 7.82216 10.7084 7.82086H10.6543Z" fill="white"/>
<path d="M13.4 8.75832L13.5375 8.19165L13.7209 8.23332L13.8542 8.27498C13.8834 8.29165 13.9084 8.31665 13.9209 8.35415C13.9375 8.38748 13.9375 8.42498 13.9292 8.47082C13.9209 8.50415 13.9084 8.53332 13.8875 8.55415C13.8722 8.57245 13.8531 8.58716 13.8315 8.59724C13.8099 8.60732 13.7864 8.61252 13.7625 8.61248C13.7334 8.61248 13.6917 8.60415 13.6375 8.59165L13.5667 8.57082L13.5167 8.78748L13.4 8.75832Z" fill="#309E3A"/>
<path d="M13.625 8.31665L13.5917 8.47498L13.6542 8.49165C13.6958 8.49998 13.7292 8.50832 13.7458 8.50415C13.762 8.5019 13.7772 8.49468 13.7891 8.48349C13.801 8.4723 13.8092 8.45768 13.8125 8.44165C13.8125 8.42082 13.8125 8.40415 13.8042 8.38748C13.795 8.37055 13.7803 8.3573 13.7625 8.34998L13.6833 8.32915L13.6292 8.31665H13.625Z" fill="white"/>
<path d="M13.9418 8.92085L14.1376 8.37085L14.3668 8.45418C14.4293 8.47502 14.4668 8.49585 14.4918 8.51252C14.5126 8.53335 14.5293 8.55418 14.5334 8.58752C14.5376 8.62085 14.5418 8.65002 14.5334 8.68335C14.5168 8.72502 14.4918 8.75418 14.4584 8.77502C14.4251 8.79168 14.3834 8.79585 14.3334 8.78752C14.3501 8.80835 14.3668 8.82918 14.3751 8.85418L14.4084 8.96668L14.4334 9.09585L14.3043 9.05002L14.2626 8.90002C14.255 8.86609 14.2453 8.83269 14.2334 8.80002C14.2279 8.78705 14.2193 8.77562 14.2084 8.76668C14.2001 8.75418 14.1834 8.74585 14.1543 8.73752L14.1334 8.72918L14.0501 8.96252L13.9418 8.92085Z" fill="#309E3A"/>
<path d="M14.1668 8.64171L14.2459 8.67088C14.3001 8.69171 14.3334 8.70004 14.3501 8.70004C14.3626 8.70004 14.3751 8.70004 14.3876 8.68754C14.4001 8.67921 14.4084 8.66671 14.4126 8.65004C14.4209 8.63338 14.4209 8.61671 14.4126 8.60004C14.4064 8.5839 14.3946 8.57056 14.3793 8.56254L14.2959 8.53338L14.2126 8.50421L14.1626 8.64171H14.1668Z" fill="white"/>
<path d="M14.6251 8.89999C14.6395 8.8512 14.6636 8.80584 14.696 8.76665C14.717 8.74151 14.7424 8.72035 14.771 8.70415C14.7968 8.68957 14.825 8.67969 14.8543 8.67499C14.896 8.67499 14.9376 8.67499 14.9835 8.69165C15.0207 8.70087 15.0556 8.71789 15.0858 8.7416C15.1159 8.7653 15.1407 8.79515 15.1585 8.82915C15.1918 8.89582 15.1918 8.97499 15.1668 9.06665C15.1462 9.14541 15.0953 9.21281 15.0251 9.25415C14.9626 9.29165 14.8876 9.29582 14.8085 9.27082C14.7713 9.26136 14.7366 9.24424 14.7064 9.22057C14.6763 9.19689 14.6515 9.16717 14.6335 9.13332C14.6168 9.09689 14.6075 9.05753 14.606 9.01749C14.6046 8.97744 14.6111 8.93751 14.6251 8.89999Z" fill="#309E3A"/>
<path d="M14.7418 8.93334C14.7251 8.99584 14.7209 9.05001 14.7418 9.09167C14.7626 9.13334 14.7918 9.15834 14.8376 9.17501C14.8793 9.18751 14.9209 9.18334 14.9626 9.15834C15.0043 9.13751 15.0293 9.09167 15.0501 9.02501C15.0709 8.96251 15.0709 8.91251 15.0501 8.87084C15.0419 8.85107 15.0294 8.83336 15.0136 8.81896C14.9977 8.80455 14.9789 8.79382 14.9584 8.78751C14.9379 8.78043 14.9161 8.77788 14.8946 8.78004C14.873 8.7822 14.8521 8.78901 14.8334 8.80001C14.7918 8.82501 14.7626 8.86667 14.7418 8.93334Z" fill="white"/>
<path d="M15.7626 9.71253L16.0292 9.19586L16.2501 9.30836C16.2917 9.32834 16.3297 9.35509 16.3626 9.38753C16.3834 9.40836 16.3959 9.43336 16.3959 9.4667C16.3959 9.50003 16.3959 9.5292 16.3792 9.55836C16.3632 9.59583 16.3334 9.62568 16.2959 9.6417C16.2542 9.65003 16.2126 9.65003 16.1667 9.63336C16.1834 9.65836 16.1917 9.68336 16.2001 9.7042C16.2084 9.7292 16.2126 9.7667 16.2167 9.82086L16.2251 9.9542L16.1001 9.8917L16.0834 9.73753C16.0814 9.70258 16.0773 9.66779 16.0709 9.63336C16.0681 9.61777 16.0608 9.60332 16.0501 9.5917L16.0001 9.56253L15.9792 9.55003L15.8667 9.7667L15.7626 9.71253Z" fill="#309E3A"/>
<path d="M16.0209 9.46671L16.1 9.50837C16.15 9.53337 16.1834 9.55004 16.1959 9.55004C16.2084 9.55004 16.225 9.55004 16.2375 9.54171C16.25 9.53754 16.2584 9.52504 16.2667 9.50837C16.275 9.49171 16.2792 9.47504 16.275 9.45837C16.2699 9.44179 16.2597 9.42722 16.2459 9.41671C16.2215 9.40174 16.1965 9.38784 16.1709 9.37504L16.0875 9.33337L16.0209 9.46671Z" fill="white"/>
<path d="M17.9209 10.7792C17.9478 10.7363 17.9833 10.6995 18.0251 10.6709C18.0531 10.6529 18.0841 10.6402 18.1167 10.6334C18.147 10.6272 18.1781 10.6272 18.2084 10.6334C18.2501 10.6417 18.2876 10.6584 18.3251 10.6834C18.3575 10.7036 18.3853 10.7303 18.4069 10.7619C18.4284 10.7934 18.4431 10.8291 18.4501 10.8667C18.4626 10.9375 18.4417 11.0167 18.3917 11.0959C18.3499 11.1647 18.2825 11.2142 18.2042 11.2334C18.1669 11.2414 18.1283 11.2415 18.091 11.2336C18.0536 11.2257 18.0184 11.21 17.9876 11.1875C17.9551 11.1673 17.9273 11.1406 17.9057 11.109C17.8842 11.0775 17.8695 11.0418 17.8626 11.0042C17.8501 10.9292 17.8709 10.8542 17.9209 10.7792Z" fill="#309E3A"/>
<path d="M18.0251 10.8458C17.9834 10.9 17.9709 10.95 17.9792 10.9958C17.9823 11.0169 17.9898 11.0372 18.0013 11.0551C18.0128 11.0731 18.028 11.0884 18.0459 11.1C18.0876 11.1292 18.1292 11.1375 18.1709 11.125C18.2126 11.1125 18.2542 11.0833 18.2917 11.025C18.3292 10.9667 18.3459 10.9167 18.3376 10.875C18.3334 10.8333 18.3084 10.7958 18.2709 10.7667C18.2334 10.7375 18.1876 10.7333 18.1459 10.7458C18.1042 10.7542 18.0626 10.7875 18.0209 10.8458H18.0251Z" fill="white"/>
<path d="M12.7417 8.52082L12.8375 8.11249L13.1375 8.18332L13.125 8.24999L12.9042 8.19999L12.8834 8.29165L13.0875 8.33749L13.0709 8.40832L12.8667 8.35832L12.8417 8.47082L13.0709 8.52499L13.0542 8.59165L12.7417 8.52082Z" fill="#309E3A"/>
</g>
<defs>
<clipPath id="clip0_80_825">
<rect width="26.6667" height="20" fill="white" transform="translate(0.166748)"/>
</clipPath>
</defs>
</svg>
