<svg width="28" height="20" viewBox="0 0 28 20" fill="none" xmlns="http://www.w3.org/2000/svg">
<g clip-path="url(#clip0_80_1197)">
<path d="M0.666748 0H27.3334V20H0.666748V0Z" fill="#DE2910"/>
<path d="M3.86673 7.4L5.66671 2L7.46669 7.4L2.66675 4.1H8.66667L3.86673 7.4Z" fill="#FFDE00"/>
<path d="M11.6739 2.10346L9.82147 2.51397L11.0571 1.07411L10.9359 3.01197L9.90793 1.29638L11.6739 2.10346Z" fill="#FFDE00"/>
<path d="M13.5434 4.47281L11.6768 4.13274L13.3741 3.28481L12.5109 5.02399L12.2287 3.04399L13.5434 4.47281Z" fill="#FFDE00"/>
<path d="M13.2709 7.79682L11.7053 6.72501L13.6008 6.64308L12.1033 7.87894L12.6532 5.95603L13.2709 7.79682Z" fill="#FFDE00"/>
<path d="M10.9162 9.96839L9.88607 8.37505L11.6662 9.03161L9.80756 9.59318L11.0575 8.03188L10.9162 9.96839Z" fill="#FFDE00"/>
</g>
<defs>
<clipPath id="clip0_80_1197">
<rect width="26.6667" height="20" fill="white" transform="translate(0.666748)"/>
</clipPath>
</defs>
</svg>
