<svg width="28" height="20" viewBox="0 0 28 20" fill="none" xmlns="http://www.w3.org/2000/svg">
<g clip-path="url(#clip0_80_1214)">
<path d="M0.666626 0H27.3333V20H0.666626V0Z" fill="#003399"/>
<path d="M14 9.10815L13.7037 10.0958L14.1976 10.1946L14 9.10815Z" fill="#FFCC00"/>
<path d="M14.0001 9.10815L14.2964 10.0958L13.8026 10.1946L14.0001 9.10815Z" fill="#FFCC00"/>
<path d="M14.9393 9.79058L13.9085 9.81399L13.9671 10.3142L14.9393 9.79058Z" fill="#FFCC00"/>
<path d="M14.9393 9.79059L14.0916 10.3776L13.845 9.93845L14.9393 9.79059Z" fill="#FFCC00"/>
<path d="M14.5806 10.8948L14.2398 9.92161L13.7822 10.132L14.5806 10.8948Z" fill="#FFCC00"/>
<path d="M14.5807 10.8948L13.7604 10.2699L14.1019 9.89977L14.5807 10.8948Z" fill="#FFCC00"/>
<path d="M13.0607 9.79058L14.0915 9.81399L14.0329 10.3142L13.0607 9.79058Z" fill="#FFCC00"/>
<path d="M13.0607 9.79059L13.9084 10.3776L14.155 9.93845L13.0607 9.79059Z" fill="#FFCC00"/>
<path d="M13.4194 10.8948L13.7602 9.92161L14.2178 10.132L13.4194 10.8948Z" fill="#FFCC00"/>
<path d="M13.4193 10.8948L14.2396 10.2699L13.8981 9.89977L13.4193 10.8948Z" fill="#FFCC00"/>
<path d="M14 9.10815L13.7037 10.0958L14.1976 10.1946L14 9.10815Z" fill="#FFCC00"/>
<path d="M14.0001 9.10815L14.2964 10.0958L13.8026 10.1946L14.0001 9.10815Z" fill="#FFCC00"/>
<path d="M14.9393 9.79058L13.9085 9.81399L13.9671 10.3142L14.9393 9.79058Z" fill="#FFCC00"/>
<path d="M14.9393 9.79059L14.0916 10.3776L13.845 9.93845L14.9393 9.79059Z" fill="#FFCC00"/>
<path d="M14.5806 10.8948L14.2398 9.92161L13.7822 10.132L14.5806 10.8948Z" fill="#FFCC00"/>
<path d="M14.5807 10.8948L13.7604 10.2699L14.1019 9.89977L14.5807 10.8948Z" fill="#FFCC00"/>
<path d="M13.0607 9.79058L14.0915 9.81399L14.0329 10.3142L13.0607 9.79058Z" fill="#FFCC00"/>
<path d="M13.0607 9.79059L13.9084 10.3776L14.155 9.93845L13.0607 9.79059Z" fill="#FFCC00"/>
<path d="M13.4194 10.8948L13.7602 9.92161L14.2178 10.132L13.4194 10.8948Z" fill="#FFCC00"/>
<path d="M13.4193 10.8948L14.2396 10.2699L13.8981 9.89977L13.4193 10.8948Z" fill="#FFCC00"/>
<path d="M14 9.10815L13.7037 10.0958L14.1976 10.1946L14 9.10815Z" fill="#FFCC00"/>
<path d="M14.0001 9.10815L14.2964 10.0958L13.8026 10.1946L14.0001 9.10815Z" fill="#FFCC00"/>
<path d="M14.9393 9.79058L13.9085 9.81399L13.9671 10.3142L14.9393 9.79058Z" fill="#FFCC00"/>
<path d="M14.9393 9.79059L14.0916 10.3776L13.845 9.93845L14.9393 9.79059Z" fill="#FFCC00"/>
<path d="M14.5806 10.8948L14.2398 9.92161L13.7822 10.132L14.5806 10.8948Z" fill="#FFCC00"/>
<path d="M14.5807 10.8948L13.7604 10.2699L14.1019 9.89977L14.5807 10.8948Z" fill="#FFCC00"/>
<path d="M13.0607 9.79058L14.0915 9.81399L14.0329 10.3142L13.0607 9.79058Z" fill="#FFCC00"/>
<path d="M13.0607 9.79059L13.9084 10.3776L14.155 9.93845L13.0607 9.79059Z" fill="#FFCC00"/>
<path d="M13.4194 10.8948L13.7602 9.92161L14.2178 10.132L13.4194 10.8948Z" fill="#FFCC00"/>
<path d="M13.4193 10.8948L14.2396 10.2699L13.8981 9.89977L13.4193 10.8948Z" fill="#FFCC00"/>
<path d="M10.5292 5.80759L11.3494 5.18272L11.008 4.81255L10.5292 5.80759Z" fill="#FFCC00"/>
<path d="M10.5293 5.80758L10.8701 4.83439L11.3276 5.04476L10.5293 5.80758Z" fill="#FFCC00"/>
<path d="M10.1704 4.70331L11.0182 5.29031L11.2647 4.85117L10.1704 4.70331Z" fill="#FFCC00"/>
<path d="M10.1704 4.7033L11.2013 4.72671L11.1426 5.22689L10.1704 4.7033Z" fill="#FFCC00"/>
<path d="M11.1098 4.02087L10.8135 5.00853L11.3073 5.10729L11.1098 4.02087Z" fill="#FFCC00"/>
<path d="M11.1098 4.02087L11.4061 5.00853L10.9123 5.10729L11.1098 4.02087Z" fill="#FFCC00"/>
<path d="M11.6903 5.80759L10.87 5.18272L11.2115 4.81255L11.6903 5.80759Z" fill="#FFCC00"/>
<path d="M11.6902 5.80758L11.3494 4.83439L10.8918 5.04476L11.6902 5.80758Z" fill="#FFCC00"/>
<path d="M12.0491 4.70331L11.2013 5.29031L10.9548 4.85117L12.0491 4.70331Z" fill="#FFCC00"/>
<path d="M12.0491 4.7033L11.0182 4.72671L11.0769 5.22689L12.0491 4.7033Z" fill="#FFCC00"/>
<path d="M9.49332 8.00454L9.1525 7.03135L8.69494 7.24172L9.49332 8.00454Z" fill="#FFCC00"/>
<path d="M9.49337 8.00455L8.67313 7.37968L9.0146 7.00951L9.49337 8.00455Z" fill="#FFCC00"/>
<path d="M8.33219 8.00455L9.15243 7.37968L8.81097 7.00951L8.33219 8.00455Z" fill="#FFCC00"/>
<path d="M8.33224 8.00454L8.67306 7.03135L9.13063 7.24172L8.33224 8.00454Z" fill="#FFCC00"/>
<path d="M7.9734 6.90027L8.82115 7.48727L9.06768 7.04813L7.9734 6.90027Z" fill="#FFCC00"/>
<path d="M7.97338 6.90026L9.00426 6.92367L8.94559 7.42385L7.97338 6.90026Z" fill="#FFCC00"/>
<path d="M9.85204 6.90027L9.00429 7.48727L8.75776 7.04813L9.85204 6.90027Z" fill="#FFCC00"/>
<path d="M9.85206 6.90026L8.82118 6.92367L8.87985 7.42385L9.85206 6.90026Z" fill="#FFCC00"/>
<path d="M8.91269 6.21783L9.20898 7.20549L8.71516 7.30425L8.91269 6.21783Z" fill="#FFCC00"/>
<path d="M8.91263 6.21783L8.61633 7.20549L9.11016 7.30425L8.91263 6.21783Z" fill="#FFCC00"/>
<path d="M9.85316 12.8404L8.82228 12.8639L8.88095 13.364L9.85316 12.8404Z" fill="#FFCC00"/>
<path d="M9.85314 12.8405L9.00539 13.4275L8.75885 12.9883L9.85314 12.8405Z" fill="#FFCC00"/>
<path d="M9.4943 13.9447L9.15348 12.9715L8.69591 13.1819L9.4943 13.9447Z" fill="#FFCC00"/>
<path d="M9.49435 13.9447L8.67411 13.3199L9.01557 12.9497L9.49435 13.9447Z" fill="#FFCC00"/>
<path d="M8.33317 13.9447L9.1534 13.3198L8.81194 12.9496L8.33317 13.9447Z" fill="#FFCC00"/>
<path d="M8.33321 13.9447L8.67403 12.9715L9.1316 13.1818L8.33321 13.9447Z" fill="#FFCC00"/>
<path d="M8.91379 12.158L9.21008 13.1456L8.71626 13.2444L8.91379 12.158Z" fill="#FFCC00"/>
<path d="M8.91373 12.158L8.61743 13.1456L9.11126 13.2444L8.91373 12.158Z" fill="#FFCC00"/>
<path d="M7.97448 12.8404L9.00535 12.8639L8.94669 13.364L7.97448 12.8404Z" fill="#FFCC00"/>
<path d="M7.9745 12.8405L8.82225 13.4275L9.06878 12.9883L7.9745 12.8405Z" fill="#FFCC00"/>
<path d="M11.9967 14.8284L10.9658 14.8518L11.0245 15.3519L11.9967 14.8284Z" fill="#FFCC00"/>
<path d="M11.9967 14.8284L11.1489 15.4154L10.9024 14.9762L11.9967 14.8284Z" fill="#FFCC00"/>
<path d="M11.6379 15.9326L11.297 14.9595L10.8395 15.1698L11.6379 15.9326Z" fill="#FFCC00"/>
<path d="M11.6379 15.9327L10.8177 15.3078L11.1591 14.9376L11.6379 15.9327Z" fill="#FFCC00"/>
<path d="M10.4767 15.9326L11.297 15.3077L10.9555 14.9376L10.4767 15.9326Z" fill="#FFCC00"/>
<path d="M10.4768 15.9326L10.8176 14.9594L11.2752 15.1698L10.4768 15.9326Z" fill="#FFCC00"/>
<path d="M11.0573 14.1459L11.3536 15.1335L10.8598 15.2323L11.0573 14.1459Z" fill="#FFCC00"/>
<path d="M11.0573 14.1459L10.761 15.1335L11.2548 15.2323L11.0573 14.1459Z" fill="#FFCC00"/>
<path d="M10.118 14.8284L11.1489 14.8518L11.0902 15.3519L10.118 14.8284Z" fill="#FFCC00"/>
<path d="M10.118 14.8284L10.9658 15.4154L11.2123 14.9762L10.118 14.8284Z" fill="#FFCC00"/>
<path d="M14 9.10815L14.2963 10.0958L13.8024 10.1946L14 9.10815Z" fill="#FFCC00"/>
<path d="M13.9999 9.10815L13.7036 10.0958L14.1974 10.1946L13.9999 9.10815Z" fill="#FFCC00"/>
<path d="M13.0607 9.79058L14.0915 9.81399L14.0329 10.3142L13.0607 9.79058Z" fill="#FFCC00"/>
<path d="M13.0607 9.79059L13.9084 10.3776L14.155 9.93845L13.0607 9.79059Z" fill="#FFCC00"/>
<path d="M13.4194 10.8948L13.7602 9.92161L14.2178 10.132L13.4194 10.8948Z" fill="#FFCC00"/>
<path d="M13.4193 10.8948L14.2396 10.2699L13.8981 9.89977L13.4193 10.8948Z" fill="#FFCC00"/>
<path d="M14.9393 9.79058L13.9085 9.81399L13.9671 10.3142L14.9393 9.79058Z" fill="#FFCC00"/>
<path d="M14.9393 9.79059L14.0916 10.3776L13.845 9.93845L14.9393 9.79059Z" fill="#FFCC00"/>
<path d="M14.5806 10.8948L14.2398 9.92161L13.7822 10.132L14.5806 10.8948Z" fill="#FFCC00"/>
<path d="M14.5807 10.8948L13.7604 10.2699L14.1019 9.89977L14.5807 10.8948Z" fill="#FFCC00"/>
<path d="M17.4708 5.80759L16.6506 5.18272L16.992 4.81255L17.4708 5.80759Z" fill="#FFCC00"/>
<path d="M17.4707 5.80758L17.1299 4.83439L16.6724 5.04476L17.4707 5.80758Z" fill="#FFCC00"/>
<path d="M17.8296 4.70331L16.9818 5.29031L16.7353 4.85117L17.8296 4.70331Z" fill="#FFCC00"/>
<path d="M17.8296 4.7033L16.7987 4.72671L16.8574 5.22689L17.8296 4.7033Z" fill="#FFCC00"/>
<path d="M16.8902 4.02087L17.1865 5.00853L16.6927 5.10729L16.8902 4.02087Z" fill="#FFCC00"/>
<path d="M16.8902 4.02087L16.5939 5.00853L17.0877 5.10729L16.8902 4.02087Z" fill="#FFCC00"/>
<path d="M16.3097 5.80759L17.13 5.18272L16.7885 4.81255L16.3097 5.80759Z" fill="#FFCC00"/>
<path d="M16.3098 5.80758L16.6506 4.83439L17.1082 5.04476L16.3098 5.80758Z" fill="#FFCC00"/>
<path d="M15.9509 4.70331L16.7987 5.29031L17.0452 4.85117L15.9509 4.70331Z" fill="#FFCC00"/>
<path d="M15.9509 4.7033L16.9818 4.72671L16.9231 5.22689L15.9509 4.7033Z" fill="#FFCC00"/>
<path d="M18.5067 8.00454L18.8475 7.03135L19.3051 7.24172L18.5067 8.00454Z" fill="#FFCC00"/>
<path d="M18.5066 8.00455L19.3269 7.37968L18.9854 7.00951L18.5066 8.00455Z" fill="#FFCC00"/>
<path d="M19.6678 8.00455L18.8476 7.37968L19.189 7.00951L19.6678 8.00455Z" fill="#FFCC00"/>
<path d="M19.6678 8.00454L19.3269 7.03135L18.8694 7.24172L19.6678 8.00454Z" fill="#FFCC00"/>
<path d="M20.0266 6.90027L19.1788 7.48727L18.9323 7.04813L20.0266 6.90027Z" fill="#FFCC00"/>
<path d="M20.0266 6.90026L18.9957 6.92367L19.0544 7.42385L20.0266 6.90026Z" fill="#FFCC00"/>
<path d="M18.148 6.90027L18.9957 7.48727L19.2422 7.04813L18.148 6.90027Z" fill="#FFCC00"/>
<path d="M18.1479 6.90026L19.1788 6.92367L19.1201 7.42385L18.1479 6.90026Z" fill="#FFCC00"/>
<path d="M19.0873 6.21783L18.791 7.20549L19.2848 7.30425L19.0873 6.21783Z" fill="#FFCC00"/>
<path d="M19.0874 6.21783L19.3837 7.20549L18.8898 7.30425L19.0874 6.21783Z" fill="#FFCC00"/>
<path d="M18.1468 12.8404L19.1777 12.8639L19.119 13.364L18.1468 12.8404Z" fill="#FFCC00"/>
<path d="M18.1469 12.8405L18.9946 13.4275L19.2411 12.9883L18.1469 12.8405Z" fill="#FFCC00"/>
<path d="M18.5057 13.9447L18.8465 12.9715L19.3041 13.1819L18.5057 13.9447Z" fill="#FFCC00"/>
<path d="M18.5057 13.9447L19.3259 13.3199L18.9844 12.9497L18.5057 13.9447Z" fill="#FFCC00"/>
<path d="M19.6668 13.9447L18.8466 13.3198L19.1881 12.9496L19.6668 13.9447Z" fill="#FFCC00"/>
<path d="M19.6668 13.9447L19.326 12.9715L18.8684 13.1818L19.6668 13.9447Z" fill="#FFCC00"/>
<path d="M19.0862 12.158L18.7899 13.1456L19.2837 13.2444L19.0862 12.158Z" fill="#FFCC00"/>
<path d="M19.0863 12.158L19.3826 13.1456L18.8887 13.2444L19.0863 12.158Z" fill="#FFCC00"/>
<path d="M20.0255 12.8404L18.9946 12.8639L19.0533 13.364L20.0255 12.8404Z" fill="#FFCC00"/>
<path d="M20.0255 12.8405L19.1778 13.4275L18.9312 12.9883L20.0255 12.8405Z" fill="#FFCC00"/>
<path d="M16.0033 14.8284L17.0342 14.8518L16.9755 15.3519L16.0033 14.8284Z" fill="#FFCC00"/>
<path d="M16.0033 14.8284L16.8511 15.4154L17.0976 14.9762L16.0033 14.8284Z" fill="#FFCC00"/>
<path d="M16.3621 15.9326L16.703 14.9595L17.1605 15.1698L16.3621 15.9326Z" fill="#FFCC00"/>
<path d="M16.3621 15.9327L17.1823 15.3078L16.8409 14.9376L16.3621 15.9327Z" fill="#FFCC00"/>
<path d="M17.5233 15.9326L16.703 15.3077L17.0445 14.9376L17.5233 15.9326Z" fill="#FFCC00"/>
<path d="M17.5232 15.9326L17.1824 14.9594L16.7248 15.1698L17.5232 15.9326Z" fill="#FFCC00"/>
<path d="M16.9427 14.1459L16.6464 15.1335L17.1402 15.2323L16.9427 14.1459Z" fill="#FFCC00"/>
<path d="M16.9427 14.1459L17.239 15.1335L16.7452 15.2323L16.9427 14.1459Z" fill="#FFCC00"/>
<path d="M17.882 14.8284L16.8511 14.8518L16.9098 15.3519L17.882 14.8284Z" fill="#FFCC00"/>
<path d="M17.882 14.8284L17.0342 15.4154L16.7877 14.9762L17.882 14.8284Z" fill="#FFCC00"/>
</g>
<defs>
<clipPath id="clip0_80_1214">
<rect width="26.6667" height="20" fill="white" transform="translate(0.666626)"/>
</clipPath>
</defs>
</svg>
