<svg width="28" height="20" viewBox="0 0 28 20" fill="none" xmlns="http://www.w3.org/2000/svg">
<g clip-path="url(#clip0_80_869)">
<path d="M0.666626 0H27.3333V6.66667H0.666626V0Z" fill="#FF9933"/>
<path d="M0.666626 6.66669H27.3333V13.3334H0.666626V6.66669Z" fill="white"/>
<path d="M0.666626 13.3333H27.3333V20H0.666626V13.3333Z" fill="#128807"/>
<path d="M14 12.6666C15.4728 12.6666 16.6667 11.4727 16.6667 9.99998C16.6667 8.52722 15.4728 7.33331 14 7.33331C12.5273 7.33331 11.3334 8.52722 11.3334 9.99998C11.3334 11.4727 12.5273 12.6666 14 12.6666Z" fill="#000088"/>
<path d="M14 12.3333C15.2886 12.3333 16.3333 11.2886 16.3333 9.99996C16.3333 8.71129 15.2886 7.66663 14 7.66663C12.7113 7.66663 11.6666 8.71129 11.6666 9.99996C11.6666 11.2886 12.7113 12.3333 14 12.3333Z" fill="white"/>
<path d="M14 10.4667C14.2577 10.4667 14.4667 10.2577 14.4667 9.99999C14.4667 9.74226 14.2577 9.53333 14 9.53333C13.7423 9.53333 13.5333 9.74226 13.5333 9.99999C13.5333 10.2577 13.7423 10.4667 14 10.4667Z" fill="#000088"/>
<path d="M16.2977 10.4244C16.3634 10.433 16.4237 10.3868 16.4324 10.3211C16.441 10.2554 16.3948 10.1951 16.3291 10.1864C16.2633 10.1778 16.2031 10.224 16.1944 10.2897C16.1858 10.3555 16.232 10.4157 16.2977 10.4244Z" fill="#000088"/>
<path d="M14 12.3333L14.08 10.9333L14 10.2667L13.92 10.9333L14 12.3333Z" fill="#000088"/>
<path d="M16.1096 11.0046C16.1708 11.03 16.241 11.0009 16.2664 10.9396C16.2917 10.8784 16.2627 10.8082 16.2014 10.7829C16.1402 10.7575 16.07 10.7866 16.0447 10.8478C16.0193 10.909 16.0484 10.9792 16.1096 11.0046Z" fill="#000088"/>
<path d="M13.3961 12.2538L13.8358 10.9222L13.931 10.2575L13.6812 10.8808L13.3961 12.2538Z" fill="#000088"/>
<path d="M15.7776 11.5163C15.8302 11.5567 15.9055 11.5468 15.9458 11.4942C15.9862 11.4416 15.9763 11.3663 15.9237 11.3259C15.8711 11.2856 15.7958 11.2955 15.7554 11.3481C15.7151 11.4006 15.725 11.476 15.7776 11.5163Z" fill="#000088"/>
<path d="M12.8333 12.0206L13.6026 10.8482L13.8666 10.2309L13.464 10.7682L12.8333 12.0206Z" fill="#000088"/>
<path d="M15.3247 11.9247C15.365 11.9773 15.4403 11.9872 15.4929 11.9469C15.5455 11.9065 15.5554 11.8312 15.5151 11.7786C15.4747 11.726 15.3994 11.7161 15.3468 11.7565C15.2942 11.7968 15.2843 11.8721 15.3247 11.9247Z" fill="#000088"/>
<path d="M12.3502 11.6499L13.3967 10.7165L13.8116 10.1885L13.2836 10.6034L12.3502 11.6499Z" fill="#000088"/>
<path d="M14.7813 12.202C14.8067 12.2632 14.8769 12.2923 14.9381 12.2669C14.9994 12.2416 15.0284 12.1714 15.0031 12.1101C14.9777 12.0489 14.9075 12.0198 14.8463 12.0452C14.7851 12.0706 14.756 12.1407 14.7813 12.202Z" fill="#000088"/>
<path d="M11.9793 11.1666L13.2318 10.5359L13.7691 10.1332L13.1518 10.3973L11.9793 11.1666Z" fill="#000088"/>
<path d="M14.1848 12.3292C14.1935 12.3949 14.2538 12.4412 14.3195 12.4325C14.3852 12.4239 14.4314 12.3636 14.4228 12.2979C14.4141 12.2322 14.3538 12.1859 14.2881 12.1946C14.2224 12.2032 14.1762 12.2635 14.1848 12.3292Z" fill="#000088"/>
<path d="M11.7463 10.6039L13.1193 10.3189L13.7425 10.069L13.0779 10.1643L11.7463 10.6039Z" fill="#000088"/>
<path d="M13.5757 12.2977C13.5671 12.3634 13.6133 12.4237 13.679 12.4323C13.7448 12.441 13.805 12.3947 13.8137 12.329C13.8223 12.2633 13.7761 12.203 13.7104 12.1944C13.6447 12.1857 13.5844 12.232 13.5757 12.2977Z" fill="#000088"/>
<path d="M11.6669 9.99998L13.0669 10.08L13.7335 9.99998L13.0669 9.91998L11.6669 9.99998Z" fill="#000088"/>
<path d="M12.9955 12.1095C12.9702 12.1707 12.9992 12.2409 13.0605 12.2663C13.1217 12.2916 13.1919 12.2625 13.2173 12.2013C13.2426 12.1401 13.2135 12.0699 13.1523 12.0445C13.0911 12.0192 13.0209 12.0482 12.9955 12.1095Z" fill="#000088"/>
<path d="M11.7462 9.39602L13.0778 9.83564L13.7425 9.93091L13.1192 9.68109L11.7462 9.39602Z" fill="#000088"/>
<path d="M12.4835 11.7777C12.4431 11.8302 12.4531 11.9056 12.5056 11.9459C12.5582 11.9863 12.6336 11.9763 12.6739 11.9238C12.7142 11.8712 12.7043 11.7958 12.6517 11.7555C12.5992 11.7152 12.5238 11.7251 12.4835 11.7777Z" fill="#000088"/>
<path d="M11.9792 8.83337L13.1516 9.60266L13.769 9.86671L13.2316 9.46409L11.9792 8.83337Z" fill="#000088"/>
<path d="M12.0751 11.3246C12.0225 11.3649 12.0126 11.4403 12.053 11.4929C12.0933 11.5454 12.1686 11.5554 12.2212 11.515C12.2738 11.4747 12.2837 11.3993 12.2434 11.3468C12.203 11.2942 12.1277 11.2843 12.0751 11.3246Z" fill="#000088"/>
<path d="M12.35 8.3501L13.2834 9.39662L13.8114 9.81145L13.3965 9.28348L12.35 8.3501Z" fill="#000088"/>
<path d="M11.7979 10.7813C11.7367 10.8067 11.7076 10.8769 11.733 10.9381C11.7583 10.9994 11.8285 11.0284 11.8897 11.0031C11.951 10.9777 11.9801 10.9075 11.9547 10.8463C11.9293 10.7851 11.8591 10.756 11.7979 10.7813Z" fill="#000088"/>
<path d="M12.8332 7.97934L13.4639 9.23178L13.8665 9.76913L13.6025 9.15178L12.8332 7.97934Z" fill="#000088"/>
<path d="M11.6706 10.1848C11.6049 10.1934 11.5587 10.2537 11.5673 10.3194C11.576 10.3851 11.6362 10.4314 11.7019 10.4227C11.7677 10.4141 11.8139 10.3538 11.8053 10.2881C11.7966 10.2224 11.7363 10.1761 11.6706 10.1848Z" fill="#000088"/>
<path d="M13.396 7.7462L13.6811 9.1192L13.9309 9.74245L13.8356 9.07779L13.396 7.7462Z" fill="#000088"/>
<path d="M11.7023 9.57555C11.6366 9.5669 11.5763 9.61316 11.5676 9.67886C11.559 9.74457 11.6052 9.80485 11.6709 9.8135C11.7367 9.82215 11.7969 9.7759 11.8056 9.71019C11.8142 9.64448 11.768 9.5842 11.7023 9.57555Z" fill="#000088"/>
<path d="M14 7.66661L13.92 9.06661L14 9.73328L14.08 9.06661L14 7.66661Z" fill="#000088"/>
<path d="M11.8904 8.99535C11.8292 8.96999 11.759 8.99906 11.7336 9.06029C11.7083 9.12152 11.7373 9.19172 11.7986 9.21708C11.8598 9.24244 11.93 9.21336 11.9553 9.15213C11.9807 9.09091 11.9516 9.02071 11.8904 8.99535Z" fill="#000088"/>
<path d="M14.6039 7.74617L14.1642 9.07776L14.069 9.74242L14.3188 9.11917L14.6039 7.74617Z" fill="#000088"/>
<path d="M12.2224 8.48361C12.1698 8.44327 12.0945 8.45319 12.0542 8.50577C12.0138 8.55834 12.0237 8.63367 12.0763 8.67402C12.1289 8.71436 12.2042 8.70445 12.2446 8.65187C12.2849 8.59929 12.275 8.52396 12.2224 8.48361Z" fill="#000088"/>
<path d="M15.1667 7.9793L14.3974 9.15173L14.1334 9.76908L14.536 9.23173L15.1667 7.9793Z" fill="#000088"/>
<path d="M12.6753 8.07522C12.635 8.02264 12.5597 8.01273 12.5071 8.05307C12.4545 8.09342 12.4446 8.16875 12.4849 8.22133C12.5253 8.2739 12.6006 8.28382 12.6532 8.24348C12.7058 8.20313 12.7157 8.1278 12.6753 8.07522Z" fill="#000088"/>
<path d="M15.6498 8.35006L14.6033 9.28344L14.1884 9.81141L14.7164 9.39658L15.6498 8.35006Z" fill="#000088"/>
<path d="M13.2188 7.79796C13.1934 7.73673 13.1232 7.70766 13.062 7.73302C13.0008 7.75838 12.9717 7.82858 12.997 7.88981C13.0224 7.95104 13.0926 7.98011 13.1538 7.95475C13.2151 7.92939 13.2441 7.85919 13.2188 7.79796Z" fill="#000088"/>
<path d="M16.0208 8.83336L14.7683 9.46408L14.231 9.86669L14.8483 9.60264L16.0208 8.83336Z" fill="#000088"/>
<path d="M13.8153 7.67075C13.8067 7.60504 13.7464 7.55878 13.6807 7.56744C13.615 7.57609 13.5687 7.63636 13.5774 7.70207C13.586 7.76778 13.6463 7.81403 13.712 7.80538C13.7777 7.79673 13.824 7.73645 13.8153 7.67075Z" fill="#000088"/>
<path d="M16.2539 9.39601L14.8809 9.68108L14.2576 9.9309L14.9223 9.83563L16.2539 9.39601Z" fill="#000088"/>
<path d="M14.4244 7.70227C14.433 7.63656 14.3868 7.57628 14.3211 7.56763C14.2554 7.55898 14.1951 7.60524 14.1864 7.67094C14.1778 7.73665 14.224 7.79693 14.2897 7.80558C14.3555 7.81423 14.4157 7.76798 14.4244 7.70227Z" fill="#000088"/>
<path d="M16.3333 9.99996L14.9333 9.91996L14.2666 9.99996L14.9333 10.08L16.3333 9.99996Z" fill="#000088"/>
<path d="M15.0046 7.89046C15.03 7.82923 15.0009 7.75904 14.9396 7.73368C14.8784 7.70831 14.8082 7.73739 14.7829 7.79862C14.7575 7.85985 14.7866 7.93004 14.8478 7.95541C14.909 7.98077 14.9792 7.95169 15.0046 7.89046Z" fill="#000088"/>
<path d="M16.2539 10.6039L14.9223 10.1643L14.2576 10.069L14.8809 10.3188L16.2539 10.6039Z" fill="#000088"/>
<path d="M15.5164 8.22235C15.5567 8.16977 15.5468 8.09444 15.4942 8.05409C15.4417 8.01375 15.3663 8.02367 15.326 8.07625C15.2856 8.12882 15.2956 8.20415 15.3481 8.2445C15.4007 8.28484 15.476 8.27493 15.5164 8.22235Z" fill="#000088"/>
<path d="M16.0207 11.1666L14.8483 10.3973L14.2309 10.1333L14.7683 10.5359L16.0207 11.1666Z" fill="#000088"/>
<path d="M15.9248 8.6754C15.9774 8.63505 15.9873 8.55972 15.9469 8.50714C15.9066 8.45457 15.8313 8.44465 15.7787 8.48499C15.7261 8.52534 15.7162 8.60067 15.7565 8.65325C15.7969 8.70583 15.8722 8.71574 15.9248 8.6754Z" fill="#000088"/>
<path d="M15.6499 11.6499L14.7165 10.6034L14.1885 10.1885L14.6034 10.7165L15.6499 11.6499Z" fill="#000088"/>
<path d="M16.202 9.21866C16.2632 9.19329 16.2923 9.1231 16.2669 9.06187C16.2416 9.00064 16.1714 8.97156 16.1101 8.99692C16.0489 9.02229 16.0198 9.09248 16.0452 9.15371C16.0706 9.21494 16.1407 9.24402 16.202 9.21866Z" fill="#000088"/>
<path d="M15.1667 12.0207L14.536 10.7682L14.1334 10.2309L14.3974 10.8482L15.1667 12.0207Z" fill="#000088"/>
<path d="M16.3293 9.81524C16.395 9.80659 16.4412 9.74631 16.4326 9.6806C16.4239 9.6149 16.3636 9.56864 16.2979 9.57729C16.2322 9.58594 16.186 9.64622 16.1946 9.71193C16.2033 9.77764 16.2635 9.82389 16.3293 9.81524Z" fill="#000088"/>
<path d="M14.6039 12.2538L14.3188 10.8808L14.069 10.2576L14.1642 10.9222L14.6039 12.2538Z" fill="#000088"/>
</g>
<defs>
<clipPath id="clip0_80_869">
<rect width="26.6667" height="20" fill="white" transform="translate(0.666626)"/>
</clipPath>
</defs>
</svg>
