<svg width="30" height="31" viewBox="0 0 30 31" fill="none" xmlns="http://www.w3.org/2000/svg">
<path d="M15 0.722412C6.71562 0.722412 0 7.43804 0 15.7224C0 24.0068 6.71562 30.7224 15 30.7224C23.2844 30.7224 30 24.0068 30 15.7224C30 7.43804 23.2844 0.722412 15 0.722412ZM11.3281 21.9396H8.29062V12.1646H11.3281V21.9396ZM9.79062 10.9646C8.83125 10.9646 8.21094 10.2849 8.21094 9.44429C8.21094 8.58647 8.85 7.9271 9.82969 7.9271C10.8094 7.9271 11.4094 8.58647 11.4281 9.44429C11.4281 10.2849 10.8094 10.9646 9.79062 10.9646ZM22.4219 21.9396H19.3844V16.5224C19.3844 15.2615 18.9437 14.4052 17.8453 14.4052C17.0063 14.4052 16.5078 14.9849 16.2875 15.5427C16.2062 15.7412 16.1859 16.0224 16.1859 16.3021V21.938H13.1469V15.2818C13.1469 14.0615 13.1078 13.0412 13.0672 12.163H15.7062L15.8453 13.5208H15.9062C16.3062 12.8833 17.2859 11.9427 18.925 11.9427C20.9234 11.9427 22.4219 13.2818 22.4219 16.1599V21.9396Z" fill="#F5F4F8"/>
</svg>
