<svg width="258" height="129" viewBox="0 0 258 129" fill="none" xmlns="http://www.w3.org/2000/svg">
<path d="M0 109.275H4.6044C6.009 109.275 7.12818 109.696 7.96192 110.538C8.79567 111.381 9.21254 112.509 9.21254 113.915V116.191C9.21254 117.601 8.79567 118.725 7.96192 119.568C7.13193 120.41 6.009 120.832 4.6044 120.832H2.94065V128.722H0V109.275ZM4.46919 118.056C5.04004 118.056 5.48697 117.898 5.79868 117.582C6.11415 117.27 6.27189 116.826 6.27189 116.251V113.859C6.27189 113.287 6.11415 112.844 5.79868 112.528C5.48321 112.208 5.04004 112.054 4.46919 112.054H2.94065V118.056H4.46919Z" fill="#9D9D9D"/>
<path d="M18.2824 128.722L16.1454 120.696H14.6206V128.722H11.68V109.275H16.2844C17.689 109.275 18.8082 109.696 19.6419 110.538C20.4757 111.381 20.8925 112.509 20.8925 113.915V116.052C20.8925 116.943 20.716 117.729 20.363 118.413C20.01 119.098 19.5142 119.636 18.8645 120.027L21.3319 128.722H18.2824ZM14.6206 117.917H16.1454C16.7163 117.917 17.1632 117.759 17.4749 117.443C17.7904 117.131 17.9481 116.687 17.9481 116.112V113.859C17.9481 113.287 17.7904 112.844 17.4749 112.528C17.1594 112.208 16.7163 112.054 16.1454 112.054H14.6206V117.917Z" fill="#9D9D9D"/>
<path d="M24.8022 127.71C23.9346 126.849 23.499 125.713 23.499 124.307V113.694C23.499 112.287 23.9346 111.155 24.8022 110.29C25.6735 109.429 26.8077 109 28.216 109C29.6206 109 30.7586 109.429 31.6261 110.29C32.4937 111.155 32.9293 112.287 32.9293 113.694V124.307C32.9293 125.713 32.4937 126.849 31.6261 127.71C30.7548 128.571 29.6169 129 28.216 129C26.8077 129 25.6735 128.568 24.8022 127.71ZM29.5192 125.721C29.8347 125.39 29.9887 124.92 29.9887 124.307V113.694C29.9887 113.084 29.8309 112.61 29.5192 112.279C29.2038 111.945 28.7681 111.779 28.216 111.779C27.6602 111.779 27.2245 111.945 26.9128 112.279C26.5973 112.61 26.4396 113.084 26.4396 113.694V124.307C26.4396 124.92 26.5973 125.39 26.9128 125.721C27.2283 126.055 27.6602 126.221 28.216 126.221C28.7681 126.221 29.2038 126.055 29.5192 125.721Z" fill="#9D9D9D"/>
<path d="M34.9536 109.275H44.3314V112.05H41.1128V128.718H38.1722V112.05H34.9536V109.275Z" fill="#9D9D9D"/>
<path d="M46.6073 109.275H54.956V112.05H49.5442V117.469H53.8444V120.245H49.5442V125.939H54.956V128.714H46.6073V109.275Z" fill="#9D9D9D"/>
<path d="M57.4272 109.275H60.3679V128.722H57.4272V109.275Z" fill="#9D9D9D"/>
<path d="M63.5827 109.275H66.8276L70.5719 122.332V109.275H73.4562V128.722H70.3503L66.467 116.277V128.722H63.5827V109.275Z" fill="#9D9D9D"/>
<path d="M82.2256 109.275H90.4391V112.05H85.1662V117.748H89.3275V120.523H85.1662V128.718H82.2256V109.275Z" fill="#9D9D9D"/>
<path d="M93.7666 127.71C92.8991 126.849 92.4634 125.713 92.4634 124.307V113.694C92.4634 112.287 92.8991 111.155 93.7666 110.29C94.6379 109.429 95.7721 109 97.1805 109C98.5851 109 99.723 109.429 100.594 110.29C101.462 111.155 101.898 112.287 101.898 113.694V124.307C101.898 125.713 101.462 126.849 100.594 127.71C99.723 128.571 98.5889 129 97.1805 129C95.7721 129 94.6379 128.568 93.7666 127.71ZM98.4837 125.721C98.7992 125.39 98.9531 124.92 98.9531 124.307V113.694C98.9531 113.084 98.7954 112.61 98.4837 112.279C98.1682 111.945 97.7326 111.779 97.1805 111.779C96.6247 111.779 96.189 111.945 95.8773 112.279C95.5618 112.61 95.4041 113.084 95.4041 113.694V124.307C95.4041 124.92 95.5618 125.39 95.8773 125.721C96.1928 126.055 96.6284 126.221 97.1805 126.221C97.7326 126.221 98.1682 126.055 98.4837 125.721Z" fill="#9D9D9D"/>
<path d="M105.916 127.71C105.049 126.849 104.613 125.713 104.613 124.307V113.694C104.613 112.287 105.049 111.155 105.916 110.29C106.787 109.429 107.922 109 109.33 109C110.735 109 111.872 109.429 112.74 110.29C113.608 111.155 114.043 112.287 114.043 113.694V124.307C114.043 125.713 113.608 126.849 112.74 127.71C111.869 128.571 110.735 129 109.33 129C107.925 129 106.787 128.568 105.916 127.71ZM110.633 125.721C110.949 125.39 111.103 124.92 111.103 124.307V113.694C111.103 113.084 110.945 112.61 110.633 112.279C110.318 111.945 109.882 111.779 109.33 111.779C108.774 111.779 108.338 111.945 108.027 112.279C107.711 112.61 107.554 113.084 107.554 113.694V124.307C107.554 124.92 107.711 125.39 108.027 125.721C108.342 126.055 108.778 126.221 109.33 126.221C109.886 126.221 110.318 126.055 110.633 125.721Z" fill="#9D9D9D"/>
<path d="M117.014 109.275H121.618C123.023 109.275 124.142 109.696 124.976 110.538C125.81 111.381 126.226 112.509 126.226 113.915V124.085C126.226 125.491 125.81 126.616 124.976 127.458C124.142 128.3 123.023 128.722 121.618 128.722H117.014V109.275ZM121.483 125.942C122.054 125.942 122.501 125.784 122.813 125.472C123.128 125.153 123.286 124.713 123.286 124.137V113.859C123.286 113.287 123.128 112.844 122.813 112.528C122.497 112.208 122.054 112.054 121.483 112.054H119.958V125.946H121.483V125.942Z" fill="#9D9D9D"/>
<path d="M135.739 127.721C134.887 126.871 134.463 125.758 134.463 124.389V113.607C134.463 112.242 134.887 111.125 135.739 110.275C136.588 109.425 137.7 109 139.067 109C140.434 109 141.546 109.425 142.394 110.275C143.243 111.125 143.671 112.242 143.671 113.607V115.886H140.787V113.607C140.787 113.05 140.629 112.607 140.314 112.276C139.998 111.941 139.593 111.775 139.093 111.775C138.594 111.775 138.188 111.941 137.873 112.276C137.561 112.607 137.403 113.05 137.403 113.607V124.389C137.403 124.946 137.561 125.39 137.873 125.721C138.188 126.055 138.594 126.221 139.093 126.221C139.593 126.221 139.998 126.055 140.314 125.721C140.626 125.39 140.787 124.946 140.787 124.389V121.614H143.671V124.389C143.671 125.758 143.243 126.871 142.394 127.721C141.546 128.571 140.434 128.996 139.067 128.996C137.7 129 136.592 128.571 135.739 127.721Z" fill="#9D9D9D"/>
<path d="M147.532 127.71C146.661 126.849 146.225 125.713 146.225 124.307V113.694C146.225 112.287 146.661 111.155 147.532 110.29C148.4 109.429 149.538 109 150.942 109C152.351 109 153.489 109.429 154.356 110.29C155.227 111.155 155.663 112.287 155.663 113.694V124.307C155.663 125.713 155.227 126.849 154.356 127.71C153.489 128.571 152.351 129 150.942 129C149.538 129 148.4 128.568 147.532 127.71ZM152.245 125.721C152.557 125.39 152.715 124.92 152.715 124.307V113.694C152.715 113.084 152.557 112.61 152.245 112.279C151.934 111.945 151.494 111.779 150.938 111.779C150.383 111.779 149.951 111.945 149.635 112.279C149.324 112.61 149.166 113.084 149.166 113.694V124.307C149.166 124.92 149.324 125.39 149.635 125.721C149.947 126.055 150.383 126.221 150.938 126.221C151.494 126.221 151.934 126.055 152.245 125.721Z" fill="#9D9D9D"/>
<path d="M171.996 109.275V128.722H169.056V115.386L166.31 128.722H164.256L161.511 115.386V128.722H158.626V109.275H162.787L165.341 121.693L167.782 109.275H171.996Z" fill="#9D9D9D"/>
<path d="M175.215 109.275H179.823C181.228 109.275 182.347 109.696 183.177 110.538C184.007 111.381 184.424 112.509 184.424 113.915V116.191C184.424 117.601 184.007 118.725 183.177 119.568C182.343 120.41 181.228 120.832 179.823 120.832H178.159V128.722H175.215V109.275ZM179.68 118.056C180.255 118.056 180.694 117.898 181.014 117.582C181.325 117.27 181.483 116.826 181.483 116.251V113.859C181.483 113.287 181.325 112.844 181.014 112.528C180.694 112.208 180.255 112.054 179.68 112.054H178.156V118.056H179.68Z" fill="#9D9D9D"/>
<path d="M191.638 124.416H188.476L187.838 128.722H184.897L188.112 109.275H192.051L195.274 128.722H192.277L191.638 124.416ZM191.251 121.58L190.061 113.442L188.867 121.58H191.251Z" fill="#9D9D9D"/>
<path d="M197.549 109.275H200.798L204.542 122.332V109.275H207.427V128.722H204.317L200.434 116.277V128.722H197.549V109.275Z" fill="#9D9D9D"/>
<path d="M220.406 109.275L216.467 120.58V128.718H213.526V120.583L209.586 109.278H212.722L214.998 116.695L217.33 109.278H220.406V109.275Z" fill="#9D9D9D"/>
<path d="M228.117 109.275H231.057V125.942H236.3V128.718H228.117V109.275Z" fill="#9D9D9D"/>
<path d="M238.576 109.275H241.52V125.942H246.763V128.718H238.576V109.275Z" fill="#9D9D9D"/>
<path d="M250.064 127.721C249.216 126.871 248.791 125.758 248.791 124.389V113.607C248.791 112.242 249.216 111.125 250.064 110.275C250.913 109.425 252.025 109 253.392 109C254.759 109 255.871 109.425 256.719 110.275C257.568 111.125 258 112.242 258 113.607V115.886H255.116V113.607C255.116 113.05 254.954 112.607 254.643 112.276C254.331 111.941 253.921 111.775 253.422 111.775C252.926 111.775 252.517 111.941 252.201 112.276C251.89 112.607 251.732 113.05 251.732 113.607V124.389C251.732 124.946 251.89 125.39 252.201 125.721C252.521 126.055 252.926 126.221 253.422 126.221C253.921 126.221 254.331 126.055 254.643 125.721C254.954 125.39 255.116 124.946 255.116 124.389V121.614H258V124.389C258 125.758 257.572 126.871 256.719 127.721C255.871 128.571 254.759 128.996 253.392 128.996C252.025 129 250.913 128.571 250.064 127.721Z" fill="#9D9D9D"/>
<path d="M15.4739 11.9873C15.4739 11.9873 14.0189 10.7985 11.9074 11.9873C9.78881 13.1797 5.82129 13.5736 3.97238 17.275C2.11992 20.9763 -0.655213 23.095 0.139711 28.2513C0.931086 33.4077 2.64869 45.8213 1.99217 50.3246C1.32855 54.8245 0.537177 61.9646 1.46341 64.6759C2.38963 67.3907 3.0497 66.1983 3.18101 70.5597C3.31586 74.9247 3.84108 76.9085 3.84108 76.9085C3.84108 76.9085 5.55868 75.8509 5.42738 72.8096C5.29607 69.7719 5.29607 67.7846 5.29607 67.7846C5.29607 67.7846 7.45727 63.157 6.30747 61.1732C5.16122 59.1895 5.68998 58.6607 5.68998 58.6607C5.68998 58.6607 9.12164 63.5544 7.73408 66.727C6.35006 69.8996 6.5275 72.4157 6.30392 74.002C6.08035 75.5883 6.39264 79.1584 6.30392 82.4658C6.2152 85.7697 5.15767 93.8361 5.15767 93.8361C5.15767 93.8361 8.72773 97.0051 12.2978 97.2713C15.8679 97.5339 15.4704 96.2137 15.4704 96.2137C15.4704 96.2137 14.1467 93.4351 14.0154 92.6437C13.8841 91.8488 12.8266 90.5286 12.8266 90.5286C12.8266 90.5286 11.5064 86.9586 12.0352 84.1799C12.5639 81.4012 14.5725 79.8184 15.4846 78.3635C16.3966 76.9085 18.2491 72.4122 18.2491 72.4122C18.2491 72.4122 24.0691 83.1223 23.2741 85.6349C22.4792 88.151 21.9504 89.9005 21.9504 89.9005C21.9504 89.9005 25.2543 93.0412 28.9592 93.4386C32.6606 93.8361 35.0418 92.2462 35.0418 92.2462C35.0418 92.2462 31.997 89.7337 31.2056 88.5449C30.4142 87.356 30.2829 83.9173 28.4305 81.2734C28.4305 81.2734 26.9755 77.9695 28.033 74.7934C29.0906 71.6243 30.2794 70.9607 30.2794 70.9607L30.9395 68.8457C30.9395 68.8457 31.4682 71.2269 32.2631 70.9607C33.0545 70.6981 32.9232 68.4518 32.9232 68.4518C32.9232 68.4518 35.3045 66.0705 37.9483 66.468C40.5921 66.8619 46.0146 66.468 46.0146 66.468C46.0146 66.468 53.6835 67.6568 58.5737 68.9805C63.4675 70.3042 67.4314 68.7144 67.4314 68.7144C67.4314 68.7144 84.2242 68.4517 86.6054 68.5831C88.9866 68.7144 90.1755 69.1118 90.3068 70.5668C90.4381 72.0218 91.6269 76.9439 92.5496 79.9036C93.4758 82.8633 92.287 88.6158 92.5496 89.904C92.8158 91.1922 92.0244 96.157 96.251 97.3103C100.481 98.4637 103.526 99.3296 102.997 97.3103C102.465 95.2946 101.407 93.5735 101.407 93.5735C101.407 93.5735 100.747 92.9808 99.9523 89.904C99.1574 86.8308 98.0999 84.0557 98.4973 82.4694C98.8735 80.9612 101.035 77.7886 101.028 74.5343C101.028 74.3569 101.024 74.183 101.006 74.0056C100.744 70.5633 103.111 78.4983 103.054 80.4821C102.994 82.4694 103.054 88.8146 103.054 88.8146C103.054 88.8146 105.506 89.7408 106.564 90.5357C107.621 91.3271 112.249 92.122 114.63 91.5933C114.63 91.5933 111.064 89.7408 110.797 88.6868C110.535 87.6257 110.002 86.9657 110.002 86.9657C110.002 86.9657 108.551 83.7966 108.285 80.8831C108.019 77.9731 108.416 76.7843 109.474 74.6692C110.535 72.5541 110.929 71.8905 110.929 71.8905C110.929 71.8905 120.581 70.3042 122.963 66.0741C125.344 61.8439 126.529 56.425 126.398 49.6788C126.266 42.9361 126.135 42.4074 127.988 39.6322C129.836 36.8535 132.214 35.7924 132.214 34.0784C132.214 34.0784 131.412 33.2835 134.457 32.7547C137.505 32.2259 139.219 30.6396 139.219 30.6396C139.219 30.6396 142.396 30.3735 142.79 28.1236C143.187 25.8807 140.806 23.3647 139.354 21.5122C137.899 19.6597 138.428 15.4296 138.428 15.4296C138.428 15.4296 139.617 14.2408 141.732 12.658C143.847 11.0682 144.638 7.10421 144.638 7.10421C144.638 7.10421 140.674 6.04312 136.835 7.10421C136.835 7.10421 136.572 4.85429 138.687 4.72299C140.806 4.59168 147.417 5.64921 147.811 2.0756C147.811 2.0756 146.09 3.00183 144.11 2.60437C142.122 2.20691 137.896 1.28423 135.121 2.0756C135.121 2.0756 133.967 1.01807 129.851 0.620612C125.734 0.223151 120.312 0.624156 118.988 2.47306C118.988 2.47306 118.459 2.87053 116.216 2.47306C113.966 2.0756 112.646 2.06141 112.515 0.482211C112.515 0.482211 109.868 0.223145 110.925 2.20691C111.986 4.19422 114.229 5.12045 114.229 5.12045C114.229 5.12045 111.323 6.17798 110.925 7.36327C110.925 7.36327 109.736 7.76073 106.035 8.2895C102.334 8.81827 97.8408 11.9909 85.6756 11.3343C73.5105 10.6707 69.5465 9.74804 55.9263 11.4656C55.9263 11.4656 49.1837 10.6743 44.4212 10.5394C39.6623 10.4081 31.9935 10.0106 25.1195 10.6707C18.2491 11.3272 15.4739 11.9873 15.4739 11.9873Z" fill="#9D9D9D"/>
<path d="M151.395 50.3069C151.395 50.3069 148.358 46.3429 151.395 42.379C151.395 42.379 152.588 47.1379 153.383 46.8717C154.174 46.6091 156.289 44.4905 156.289 44.4905C156.289 44.4905 154.965 42.5067 154.834 41.4527C154.834 41.4527 157.215 40.9204 159.064 42.2441C159.064 42.2441 165.274 39.0751 175.722 38.8089C186.166 38.5463 206 39.7351 219.879 39.7351C233.766 39.7351 245.267 39.87 250.161 41.8537C250.161 41.8537 251.35 39.6038 253.728 39.7351C256.109 39.8664 258.093 42.2086 256.244 44.5402C256.244 44.5402 262.855 63.7993 250.424 78.3422C250.424 78.3422 250.558 79.5346 251.35 81.2486C252.145 82.9698 250.69 84.8151 250.424 85.8762C250.161 86.9337 249.501 88.2858 249.895 90.7167C250.292 93.1476 250.161 94.0739 248.969 93.0163C248.969 93.0163 248.174 96.0612 243.944 94.7375L243.021 97.25C243.021 97.25 239.71 99.8903 238.656 98.8363C237.598 97.7788 238.787 95.2698 239.848 94.741C240.906 94.2087 241.172 91.8275 241.172 90.1134C241.172 88.3923 237.996 82.842 237.996 81.5219C237.996 81.5219 236.537 80.3295 234.951 81.7845C233.365 83.2395 220.146 87.207 216.969 86.9408C213.8 86.6782 212.345 85.7485 206.263 85.2197C200.18 84.6909 188.412 82.5794 188.146 83.7647C187.884 84.9571 186.826 91.831 187.089 94.2087C187.355 96.5935 183.646 98.9712 181.404 98.3075C179.154 97.6475 179.686 94.8723 180.08 94.741C180.477 94.6062 177.567 95.6637 177.699 94.8723C177.83 94.0774 179.686 91.43 180.08 89.4498C180.477 87.4661 178.096 82.7107 177.436 81.2522C176.772 79.7972 169.632 76.2307 168.312 71.8657C168.312 71.8657 166.328 71.6031 163.685 70.6768C163.685 70.6768 160.775 71.4682 158.266 72.1318C155.757 72.7919 150.728 72.6606 149.277 71.8657C147.822 71.0708 147.818 67.3729 150.465 67.1068C150.465 67.1068 150.465 64.8569 151.92 63.5367C153.379 62.2166 154.17 60.3215 154.17 60.3215C154.17 60.3215 152.453 58.6465 153.113 56.535C153.116 56.5243 150.075 52.8194 151.395 50.3069Z" fill="#9D9D9D"/>
</svg>
