<svg width="28" height="20" viewBox="0 0 28 20" fill="none" xmlns="http://www.w3.org/2000/svg">
<g clip-path="url(#clip0_80_970)">
<path d="M0.666626 13.3209H27.3333V20H0.666626V13.3209Z" fill="#0038A8"/>
<path d="M0.666626 6.66669H27.3333V13.3334H0.666626V6.66669Z" fill="white"/>
<path d="M0.666626 0H27.3333V6.66667H0.666626V0Z" fill="#D52B1E"/>
<path d="M13.9985 12.5576C15.411 12.5576 16.5561 11.4125 16.5561 10C16.5561 8.58751 15.411 7.44244 13.9985 7.44244C12.586 7.44244 11.4409 8.58751 11.4409 10C11.4409 11.4125 12.586 12.5576 13.9985 12.5576Z" stroke="black" stroke-width="0.200001"/>
<path d="M13.9985 12.103C15.16 12.103 16.1016 11.1615 16.1016 10C16.1016 8.83853 15.16 7.89697 13.9985 7.89697C12.8371 7.89697 11.8955 8.83853 11.8955 10C11.8955 11.1615 12.8371 12.103 13.9985 12.103Z" stroke="black" stroke-width="0.0909094"/>
<path d="M13.9985 11.6121C14.8888 11.6121 15.6106 10.8904 15.6106 10C15.6106 9.10965 14.8888 8.38788 13.9985 8.38788C13.1081 8.38788 12.3864 9.10965 12.3864 10C12.3864 10.8904 13.1081 11.6121 13.9985 11.6121Z" stroke="black" stroke-width="0.0727275"/>
<path d="M12.6375 10.9875L12.3416 11.1625L12.25 11.0083C12.2372 10.9876 12.2273 10.9651 12.2208 10.9416C12.2161 10.9236 12.2176 10.9046 12.225 10.8875C12.2333 10.8708 12.2458 10.8583 12.2666 10.8458C12.2833 10.8375 12.2958 10.8333 12.3125 10.8333C12.3282 10.8323 12.3439 10.8351 12.3583 10.8416L12.3916 10.8666V10.8125L12.4041 10.7916L12.4666 10.6958L12.525 10.8L12.4666 10.9L12.4541 10.9333L12.4583 10.9583L12.4625 10.9666L12.5875 10.8958L12.6375 10.9875ZM12.4083 11L12.3833 10.9583L12.3666 10.9375C12.3639 10.9348 12.3606 10.9327 12.3571 10.9312C12.3535 10.9298 12.3497 10.9291 12.3458 10.9291C12.3386 10.9282 12.3313 10.9297 12.325 10.9333L12.3083 10.9583C12.3083 10.9666 12.3125 10.9791 12.325 10.9958L12.3458 11.0375L12.4083 11ZM12.1291 10.7708L12.0375 10.5L12.1083 10.475L12.1625 10.6458L12.2166 10.6291L12.1625 10.4708L12.2291 10.45L12.2833 10.6041L12.3458 10.5833L12.2875 10.4083L12.3625 10.3875L12.4541 10.6625L12.1291 10.7708ZM12.0083 10.3666L11.9916 10.1916C11.9833 10.15 11.9916 10.125 12.0083 10.1041C12.025 10.0791 12.05 10.0666 12.0833 10.0625C12.1166 10.0625 12.1458 10.0666 12.1666 10.0875C12.1875 10.1041 12.2 10.1375 12.2083 10.1791L12.2125 10.2375L12.3375 10.2208L12.3541 10.3291L12.0083 10.3666ZM12.1458 10.2416L12.1416 10.2166C12.1416 10.1958 12.1333 10.1833 12.125 10.175C12.1211 10.1714 12.1165 10.1688 12.1114 10.1673C12.1063 10.1659 12.101 10.1656 12.0958 10.1666C12.0857 10.1689 12.0768 10.1748 12.0708 10.1833C12.0625 10.1875 12.0625 10.2041 12.0625 10.225L12.0666 10.2541L12.1458 10.2416ZM12 9.72081L12.0125 9.61248L12.2125 9.63748C12.2327 9.6396 12.2525 9.64524 12.2708 9.65415C12.2875 9.66248 12.3041 9.67081 12.3125 9.68748C12.3291 9.69998 12.3333 9.71665 12.3375 9.72915C12.3458 9.75415 12.3458 9.77915 12.3416 9.80831L12.3333 9.86248C12.3291 9.88331 12.3208 9.89581 12.3125 9.90831C12.2953 9.9353 12.2685 9.95468 12.2375 9.96248H12.1791L11.975 9.94165L11.9875 9.83748L12.1958 9.85831C12.2125 9.85831 12.2291 9.85831 12.2375 9.84998C12.2541 9.84165 12.2583 9.82498 12.2625 9.80831C12.2638 9.79333 12.2594 9.7784 12.25 9.76665C12.2416 9.74998 12.225 9.74581 12.2083 9.74165L12 9.72081ZM12.0416 9.47081L12.1125 9.27915C12.1208 9.24581 12.1375 9.22498 12.1583 9.21665C12.1682 9.21071 12.1793 9.2069 12.1908 9.20546C12.2022 9.20403 12.2139 9.205 12.225 9.20831C12.2458 9.21665 12.2583 9.22915 12.2666 9.24581C12.275 9.25831 12.2791 9.27081 12.2791 9.28748C12.2916 9.26665 12.3083 9.25415 12.325 9.24581C12.3438 9.23878 12.3645 9.23878 12.3833 9.24581C12.3997 9.25116 12.4143 9.26103 12.4254 9.2743C12.4364 9.28757 12.4435 9.30369 12.4458 9.32081V9.36248L12.4333 9.40415L12.3708 9.57915L12.0416 9.47081ZM12.2083 9.41248L12.225 9.36665C12.225 9.34998 12.2291 9.33748 12.225 9.33331C12.225 9.32498 12.2166 9.31665 12.2083 9.31248C12.2044 9.31063 12.2001 9.30967 12.1958 9.30967C12.1915 9.30967 12.1872 9.31063 12.1833 9.31248C12.175 9.32081 12.1666 9.32915 12.1625 9.34581L12.1458 9.38748L12.2083 9.41248ZM12.3333 9.45415L12.3541 9.40415C12.3583 9.38748 12.3625 9.37498 12.3541 9.36248C12.3508 9.35508 12.3449 9.34915 12.3375 9.34581C12.333 9.34325 12.328 9.34191 12.3229 9.34191C12.3178 9.34191 12.3127 9.34325 12.3083 9.34581L12.2875 9.38331L12.2708 9.43331L12.3333 9.45415ZM12.2083 9.05415L12.2625 8.96248L12.4875 9.09581L12.5708 8.95415L12.6458 8.99581L12.5041 9.22915L12.2083 9.05415ZM12.4166 8.73748L12.4833 8.65415L12.75 8.87498L12.6833 8.95831L12.4166 8.73748ZM12.8791 8.55831L12.9708 8.51665C12.9833 8.54165 12.9875 8.56665 12.9916 8.58748C12.9928 8.60903 12.9885 8.63052 12.9791 8.64998C12.9672 8.67417 12.9501 8.69549 12.9291 8.71248C12.9064 8.73553 12.8774 8.75145 12.8458 8.75831C12.8186 8.76642 12.7897 8.76642 12.7625 8.75831C12.7291 8.74423 12.7002 8.72115 12.6791 8.69165C12.6375 8.64998 12.6208 8.60831 12.625 8.56248C12.6273 8.53887 12.6344 8.51599 12.6459 8.49521C12.6574 8.47444 12.6729 8.45622 12.6916 8.44165C12.7186 8.41832 12.752 8.40378 12.7875 8.39998C12.8166 8.39581 12.85 8.39998 12.8833 8.42081L12.825 8.49998C12.8174 8.49436 12.809 8.49013 12.8 8.48748C12.7904 8.48518 12.7804 8.48518 12.7708 8.48748C12.7612 8.49092 12.7527 8.49664 12.7458 8.50415C12.7368 8.51075 12.7298 8.51965 12.7254 8.5299C12.721 8.54016 12.7194 8.55141 12.7208 8.56248C12.7208 8.57915 12.7375 8.59998 12.7541 8.62081C12.7791 8.64998 12.8 8.66665 12.8208 8.67081C12.8375 8.67081 12.8541 8.67081 12.8708 8.65415C12.8875 8.64165 12.8958 8.62915 12.8958 8.61248C12.8958 8.59581 12.8916 8.57915 12.8791 8.55831ZM13.2458 8.42498L13.1416 8.48331L13.1541 8.54165L13.0583 8.59165L13.0083 8.22915L13.1125 8.17498L13.3875 8.41665L13.2875 8.47081L13.2458 8.42498ZM13.1916 8.37081L13.1 8.27915L13.125 8.40415L13.1916 8.37081ZM13.5166 8.01665L13.675 7.99165C13.6997 7.98671 13.7252 7.98671 13.75 7.99165C13.7708 7.99581 13.7916 8.00415 13.8041 8.02081C13.8166 8.03748 13.8333 8.04998 13.8416 8.07081C13.85 8.08748 13.8583 8.11248 13.8583 8.13331C13.8666 8.17081 13.8666 8.19998 13.8625 8.21665C13.8587 8.23773 13.8501 8.25768 13.8375 8.27498C13.827 8.2908 13.8126 8.3037 13.7958 8.31248C13.776 8.32215 13.755 8.32916 13.7333 8.33331L13.5791 8.35831L13.5166 8.01665ZM13.6375 8.07498L13.6708 8.26248L13.6958 8.25831C13.7166 8.25415 13.7333 8.24998 13.7375 8.24165C13.75 8.23748 13.7541 8.22498 13.7583 8.21248V8.15415C13.75 8.11665 13.7375 8.09581 13.725 8.08331C13.7125 8.07081 13.6916 8.06665 13.6625 8.07081L13.6375 8.07498ZM13.9625 7.95831L14.2458 7.97081V8.04581L14.0666 8.03748L14.0625 8.09165L14.2291 8.09998L14.225 8.17081L14.0583 8.16248V8.22915L14.2416 8.23748L14.2375 8.31665L13.9458 8.30415L13.9625 7.95831ZM14.3791 7.99165L14.4791 8.01665L14.4166 8.26665L14.5833 8.30831L14.5583 8.39165L14.2958 8.32498L14.3791 7.99165ZM14.9291 8.17498L15.0833 8.26665C15.1166 8.28331 15.1375 8.30831 15.1416 8.33331C15.15 8.35831 15.1416 8.38748 15.1291 8.41665C15.1221 8.43036 15.1121 8.44233 15.0998 8.45169C15.0876 8.46106 15.0734 8.46759 15.0583 8.47081C15.0333 8.47498 15 8.47081 14.9625 8.44581L14.9125 8.41665L14.8458 8.52498L14.7541 8.47081L14.9291 8.17498ZM14.9458 8.35831L14.9708 8.37081L15.0125 8.38331C15.0177 8.38269 15.0226 8.38085 15.027 8.37796C15.0313 8.37506 15.0349 8.37119 15.0375 8.36665C15.041 8.35724 15.041 8.34688 15.0375 8.33748C15.0375 8.32498 15.0291 8.31665 15.0125 8.30415L14.9875 8.29165L14.9458 8.35831ZM15.2458 8.75831L15.1583 8.67498L15.1083 8.70415L15.025 8.63331L15.3583 8.46665L15.4416 8.54998L15.3 8.88748L15.2166 8.81248L15.2458 8.75831ZM15.2791 8.68748L15.3375 8.57081L15.225 8.63748L15.2791 8.68748ZM15.3208 8.91665L15.6083 8.72081L15.7041 8.86665L15.7458 8.93748L15.7416 8.98748C15.7332 9.00695 15.7186 9.02307 15.7 9.03331C15.6875 9.04581 15.6708 9.04998 15.6583 9.04998C15.6412 9.05174 15.6239 9.04886 15.6083 9.04165C15.6 9.04165 15.5875 9.02915 15.575 9.02081L15.5833 9.04998L15.575 9.07498C15.573 9.08356 15.5702 9.09193 15.5666 9.09998L15.5125 9.19581L15.4458 9.09998L15.5 8.99165L15.5125 8.96248C15.5135 8.95206 15.5105 8.94164 15.5041 8.93331L15.5 8.92498L15.3833 9.00831L15.3208 8.91665ZM15.55 8.89165L15.5791 8.92915L15.5958 8.94581C15.6041 8.95415 15.6083 8.95415 15.6166 8.95415C15.6239 8.95507 15.6312 8.9536 15.6375 8.94998C15.6412 8.94697 15.6443 8.94317 15.6465 8.93885C15.6486 8.93454 15.6498 8.9298 15.65 8.92498C15.65 8.91665 15.65 8.90415 15.6375 8.88748L15.6083 8.84998L15.55 8.89165ZM15.6583 9.40831L15.6166 9.29165L15.5541 9.29998L15.5125 9.19581L15.8833 9.19165L15.925 9.29998L15.6541 9.54998L15.6125 9.44165L15.6583 9.40831ZM15.7208 9.35831L15.8208 9.27498L15.6916 9.28748L15.7208 9.35831ZM15.8083 9.73331L15.8791 9.72498L15.9041 9.88748L15.7583 9.90831C15.7369 9.88595 15.7186 9.86071 15.7041 9.83331C15.6916 9.80699 15.6831 9.77888 15.6791 9.74998C15.6717 9.71547 15.6731 9.67962 15.6833 9.64581C15.6952 9.61924 15.7139 9.59625 15.7375 9.57915C15.7645 9.55931 15.796 9.54643 15.8291 9.54165C15.8627 9.53623 15.897 9.5391 15.9291 9.54998C15.9583 9.56155 15.983 9.58195 16 9.60831C16.0166 9.63331 16.025 9.66248 16.0333 9.69998V9.78331C16.03 9.80329 16.0214 9.822 16.0083 9.83748C15.9958 9.85415 15.9791 9.86248 15.9583 9.87498L15.925 9.77498C15.9375 9.77081 15.9458 9.76248 15.9541 9.74998C15.9625 9.73748 15.9583 9.72498 15.9541 9.70831C15.9531 9.6984 15.9499 9.68881 15.9449 9.6802C15.9399 9.67158 15.9331 9.66412 15.925 9.65831C15.9083 9.64581 15.8833 9.64165 15.8416 9.64998C15.8156 9.65205 15.7908 9.66225 15.7708 9.67915C15.7541 9.69581 15.75 9.72081 15.7541 9.74165C15.7541 9.75415 15.7583 9.76665 15.7666 9.77498L15.7875 9.80831H15.8208L15.8083 9.73331ZM16.0333 10.2333L16.025 10.3416L15.8166 10.325C15.7978 10.3224 15.7795 10.3168 15.7625 10.3083C15.7463 10.3003 15.7321 10.289 15.7208 10.275C15.7093 10.2616 15.7008 10.246 15.6958 10.2291C15.6886 10.2048 15.6858 10.1794 15.6875 10.1541L15.6958 10.1L15.7166 10.05C15.7255 10.0369 15.7369 10.0255 15.75 10.0166C15.7625 10.0082 15.7767 10.0026 15.7916 9.99998C15.8106 9.9944 15.8302 9.99159 15.85 9.99165L16.0583 10.0125L16.0458 10.1166L15.8375 10.1C15.8166 10.1 15.8 10.1 15.7916 10.1125C15.7855 10.1176 15.7805 10.124 15.7769 10.1311C15.7733 10.1383 15.7712 10.1461 15.7708 10.1541C15.7708 10.1708 15.7708 10.1875 15.7833 10.1958C15.7916 10.2083 15.8041 10.2166 15.825 10.2166L16.0333 10.2333ZM15.6541 10.6L15.6916 10.4833L15.6416 10.45L15.675 10.3458L15.9666 10.5791L15.925 10.6875L15.5583 10.7041L15.5958 10.6H15.6541ZM15.7333 10.6L15.8583 10.6041L15.7541 10.5291L15.7333 10.6ZM15.8583 10.8833L15.7958 10.9833H15.6583L15.7208 11.1041L15.6625 11.2041L15.5583 10.9875L15.4333 10.9125L15.4916 10.8208L15.6166 10.8958L15.8583 10.8833Z" fill="black"/>
<path d="M14.3375 8.80414C14.3375 8.80414 15.3125 9.22497 15.1417 10.0916C14.975 10.9583 14.4333 10.95 14.2167 11.05C14.0083 11.1416 13.8583 11.2791 13.775 11.2583C13.6917 11.2416 13.5792 11.175 13.5792 11.175C13.5792 11.175 13.5708 11.3208 13.7417 11.3416C13.9125 11.3708 14.1375 11.1208 14.2417 11.0916C14.35 11.0666 15.0125 10.9916 15.175 10.1125C15.3625 9.1708 14.3417 8.8333 14.3417 8.80414H14.3375Z" fill="#009B3A" stroke="black" stroke-width="0.0125"/>
<path d="M14.8292 8.99165C14.832 9.01405 14.8323 9.03302 14.83 9.04632C14.8278 9.05961 14.8231 9.06668 14.8165 9.06668C14.81 9.06668 14.8018 9.05961 14.7929 9.04632C14.7841 9.03302 14.775 9.01405 14.7667 8.99165C14.7594 8.97198 14.7529 8.95033 14.7479 8.92872C14.743 8.9071 14.7396 8.8862 14.7382 8.86794C14.7368 8.84969 14.7373 8.83467 14.7398 8.82427C14.7423 8.81386 14.7466 8.80841 14.7524 8.80841C14.7582 8.80841 14.7652 8.81386 14.7729 8.82427C14.7805 8.83467 14.7885 8.84969 14.7962 8.86794C14.8038 8.8862 14.8109 8.9071 14.8166 8.92872C14.8224 8.95033 14.8267 8.97198 14.8292 8.99165Z" fill="#009B3A" stroke="black" stroke-width="0.0125"/>
<path d="M14.7958 9C14.8042 9.01705 14.8118 9.0342 14.8182 9.05047C14.8245 9.06675 14.8295 9.08183 14.8328 9.09485C14.836 9.10787 14.8376 9.11858 14.8372 9.12637C14.8369 9.13415 14.8348 9.13887 14.831 9.14024C14.8272 9.1416 14.8217 9.1396 14.8149 9.13434C14.8082 9.12908 14.8002 9.12067 14.7915 9.10958C14.7828 9.09849 14.7736 9.08495 14.7643 9.06972C14.755 9.0545 14.7459 9.03788 14.7374 9.02084C14.7204 8.98641 14.7071 8.95229 14.7004 8.92599C14.6938 8.8997 14.6945 8.88337 14.7022 8.88061C14.7099 8.87784 14.7242 8.88887 14.7417 8.91126C14.7592 8.93365 14.7787 8.96557 14.7958 9ZM14.6999 9.0625C14.7301 9.07229 14.7576 9.0844 14.7771 9.0965C14.7967 9.10861 14.8069 9.11986 14.8059 9.12811C14.8049 9.13637 14.7926 9.14104 14.7715 9.14123C14.7505 9.14143 14.722 9.13713 14.6916 9.12917C14.6614 9.11938 14.6339 9.10728 14.6144 9.09517C14.5948 9.08307 14.5846 9.07181 14.5856 9.06356C14.5867 9.05531 14.5989 9.05064 14.62 9.05044C14.6411 9.05025 14.6695 9.05454 14.6999 9.0625Z" fill="#009B3A" stroke="black" stroke-width="0.0125"/>
<path d="M14.7124 9.02919C14.7442 9.05054 14.7731 9.07388 14.7928 9.09406C14.8125 9.11424 14.8214 9.12961 14.8175 9.13679C14.8136 9.14397 14.7973 9.14238 14.7721 9.13236C14.747 9.12234 14.715 9.10471 14.6833 9.08335C14.6675 9.07278 14.6524 9.06161 14.6386 9.05048C14.6248 9.03935 14.6127 9.02847 14.6029 9.01848C14.5832 8.9983 14.5743 8.98293 14.5782 8.97575C14.582 8.96856 14.5983 8.97016 14.6235 8.98018C14.6487 8.9902 14.6807 9.00783 14.7124 9.02919Z" fill="#009B3A" stroke="black" stroke-width="0.0125"/>
<path d="M14.7542 9.01248C14.7797 9.03904 14.802 9.0667 14.8161 9.08939C14.8302 9.11207 14.8351 9.12792 14.8295 9.13345C14.824 9.13897 14.8086 9.13372 14.7866 9.11885C14.7647 9.10398 14.738 9.0807 14.7125 9.05415C14.687 9.02759 14.6647 8.99992 14.6506 8.97724C14.6364 8.95455 14.6316 8.9387 14.6371 8.93317C14.6426 8.92765 14.6581 8.9329 14.68 8.94777C14.702 8.96265 14.7286 8.98592 14.7542 9.01248Z" fill="#009B3A" stroke="black" stroke-width="0.0125"/>
<path d="M14.8208 9.13336L14.7791 9.15836C14.7666 9.15836 14.7541 9.14586 14.7291 9.15836C14.7041 9.17086 14.6874 9.19586 14.6833 9.20836C14.6791 9.22086 14.6916 9.22919 14.7208 9.21253C14.7499 9.20003 14.7583 9.17503 14.7708 9.16669L14.8249 9.13753L14.8583 9.08336C14.8708 9.06669 14.9083 9.04169 14.9249 9.00836C14.9374 8.98336 14.9333 8.96253 14.9166 8.97086C14.8949 8.98348 14.8775 9.00236 14.8666 9.02503C14.8583 9.04169 14.8666 9.06669 14.8541 9.08336L14.8208 9.13336ZM15.1249 9.23336C15.1259 9.29131 15.122 9.34579 15.1141 9.38481C15.1062 9.42384 15.0949 9.44421 15.0828 9.44144C15.0706 9.43868 15.0586 9.41301 15.0493 9.37008C15.04 9.32715 15.0342 9.27048 15.0333 9.21253C15.0323 9.15458 15.0362 9.1001 15.0441 9.06107C15.052 9.02205 15.0633 9.00168 15.0754 9.00444C15.0876 9.00721 15.0996 9.03288 15.1089 9.07581C15.1182 9.11874 15.124 9.17541 15.1249 9.23336Z" fill="#009B3A" stroke="black" stroke-width="0.0125"/>
<path d="M15.075 9.22916C15.0875 9.28777 15.0947 9.34419 15.095 9.38602C15.0953 9.42785 15.0886 9.45166 15.0765 9.45222C15.0643 9.45277 15.0477 9.43002 15.0302 9.38897C15.0127 9.34792 14.9959 9.29193 14.9833 9.23333C14.9775 9.20589 14.9728 9.17873 14.9696 9.15338C14.9665 9.12803 14.9648 9.105 14.9647 9.0856C14.9647 9.0662 14.9662 9.05082 14.9693 9.04032C14.9724 9.02982 14.9769 9.02441 14.9827 9.02441C14.9884 9.02441 14.9952 9.02982 15.0028 9.04032C15.0103 9.05082 15.0184 9.0662 15.0266 9.0856C15.0348 9.105 15.0429 9.12803 15.0505 9.15338C15.0581 9.17873 15.065 9.20589 15.0708 9.23333L15.075 9.22916Z" fill="#009B3A" stroke="black" stroke-width="0.0125"/>
<path d="M14.9166 9.27917C14.938 9.29358 14.9587 9.30904 14.9777 9.32466C14.9967 9.34028 15.0136 9.35576 15.0273 9.3702C15.0411 9.38465 15.0514 9.39779 15.0578 9.40887C15.0642 9.41994 15.0666 9.42874 15.0646 9.43476C15.0627 9.44078 15.0566 9.4439 15.0467 9.44395C15.0367 9.44399 15.0232 9.44096 15.0067 9.43502C14.9902 9.42909 14.9712 9.42036 14.9508 9.40935C14.9303 9.39834 14.9088 9.38525 14.8874 9.37083C14.8661 9.35642 14.8453 9.34096 14.8263 9.32534C14.8073 9.30972 14.7905 9.29425 14.7767 9.2798C14.763 9.26535 14.7526 9.25221 14.7462 9.24113C14.7398 9.23006 14.7375 9.22126 14.7394 9.21524C14.7413 9.20922 14.7474 9.2061 14.7574 9.20606C14.7673 9.20601 14.7809 9.20904 14.7974 9.21498C14.8138 9.22092 14.8328 9.22964 14.8533 9.24065C14.8737 9.25167 14.8953 9.26475 14.9166 9.27917Z" fill="#009B3A" stroke="black" stroke-width="0.0125"/>
<path d="M14.9499 9.23334C14.9868 9.27802 15.019 9.32438 15.0396 9.36222C15.0601 9.40006 15.0673 9.42629 15.0596 9.43513C15.0519 9.44397 15.0298 9.4347 14.9983 9.40936C14.9668 9.38402 14.9284 9.34468 14.8916 9.30001C14.8559 9.25663 14.8248 9.21173 14.8051 9.1752C14.7853 9.13866 14.7786 9.11348 14.7863 9.10519C14.7941 9.09691 14.8156 9.10619 14.8463 9.131C14.877 9.15582 14.9143 9.19413 14.9499 9.23751V9.23334Z" fill="#009B3A" stroke="black" stroke-width="0.0125"/>
<path d="M15.0124 9.22917C15.0399 9.28029 15.0623 9.33151 15.0746 9.37156C15.087 9.41161 15.0884 9.43722 15.0784 9.44274C15.0685 9.44827 15.048 9.43326 15.0216 9.40102C14.9952 9.36878 14.9649 9.32196 14.9374 9.27084C14.9238 9.24553 14.9114 9.21993 14.9007 9.1955C14.89 9.17107 14.8814 9.14829 14.8752 9.12846C14.8629 9.08841 14.8615 9.0628 14.8715 9.05728C14.8814 9.05175 14.9018 9.06676 14.9283 9.09899C14.9547 9.13123 14.985 9.17806 15.0124 9.22917Z" fill="#009B3A" stroke="black" stroke-width="0.0125"/>
<path d="M15.0666 9.43335L14.9916 9.45002C14.9791 9.45002 14.9666 9.42085 14.9291 9.42919C14.8916 9.43752 14.8583 9.46252 14.8458 9.47919C14.8375 9.49585 14.85 9.51252 14.8958 9.50419C14.9458 9.49585 14.9625 9.46252 14.9875 9.46252C15.0083 9.45419 15.0458 9.44585 15.0708 9.44585C15.0791 9.42919 15.1125 9.39585 15.1333 9.37919C15.1541 9.35835 15.2166 9.33752 15.2458 9.30419C15.275 9.27085 15.275 9.23752 15.2458 9.24169C15.2139 9.25244 15.1852 9.27107 15.1625 9.29585C15.1416 9.32085 15.1458 9.35835 15.125 9.37919L15.0666 9.43335ZM15.2791 9.63752C15.2698 9.6932 15.2565 9.7444 15.2421 9.77986C15.2277 9.81532 15.2134 9.83214 15.2023 9.82661C15.1913 9.82109 15.1844 9.79367 15.1832 9.7504C15.1819 9.70712 15.1865 9.65153 15.1958 9.59585C15.2004 9.56829 15.2061 9.54153 15.2124 9.5171C15.2188 9.49268 15.2257 9.47107 15.2328 9.45352C15.24 9.43596 15.2472 9.42279 15.254 9.41477C15.2608 9.40675 15.2671 9.40403 15.2726 9.40676C15.2781 9.4095 15.2826 9.41764 15.2859 9.43071C15.2892 9.44379 15.2912 9.46155 15.2918 9.48298C15.2924 9.50441 15.2916 9.52908 15.2894 9.5556C15.2872 9.58212 15.2837 9.60995 15.2791 9.63752Z" fill="#009B3A" stroke="black" stroke-width="0.0125"/>
<path d="M15.2333 9.62497C15.2347 9.65402 15.2349 9.68319 15.2338 9.71058C15.2328 9.73797 15.2305 9.76298 15.2271 9.78399C15.2238 9.80501 15.2195 9.82156 15.2145 9.83257C15.2094 9.84359 15.2038 9.84883 15.198 9.84795C15.1921 9.84707 15.1861 9.8401 15.1805 9.82747C15.1748 9.81485 15.1695 9.79686 15.165 9.77467C15.1605 9.75248 15.1568 9.72658 15.1542 9.69864C15.1516 9.6707 15.1502 9.64135 15.15 9.61247C15.1486 9.58342 15.1484 9.55426 15.1495 9.52687C15.1506 9.49948 15.1528 9.47447 15.1562 9.45346C15.1595 9.43244 15.1638 9.41589 15.1688 9.40487C15.1739 9.39386 15.1795 9.38862 15.1854 9.3895C15.1912 9.39038 15.1972 9.39735 15.2029 9.40998C15.2085 9.4226 15.2138 9.44059 15.2183 9.46278C15.2228 9.48497 15.2265 9.51087 15.2291 9.53881C15.2317 9.56675 15.2331 9.5961 15.2333 9.62497Z" fill="#009B3A" stroke="black" stroke-width="0.0125"/>
<path d="M15.0708 9.64166C15.0923 9.66032 15.1141 9.68158 15.1345 9.70377C15.1549 9.72595 15.1734 9.74845 15.1884 9.7695C15.2035 9.79055 15.2147 9.80958 15.2213 9.82508C15.2278 9.84058 15.2295 9.85214 15.2261 9.85884C15.2228 9.86555 15.2145 9.86721 15.2019 9.86371C15.1894 9.86021 15.1729 9.85163 15.1538 9.83866C15.1348 9.82568 15.1135 9.80867 15.0919 9.78894C15.0703 9.76922 15.0488 9.74733 15.0291 9.72499C15.0076 9.70633 14.9858 9.68507 14.9654 9.66289C14.945 9.6407 14.9265 9.6182 14.9114 9.59715C14.8964 9.5761 14.8851 9.55708 14.8786 9.54157C14.8721 9.52607 14.8704 9.51451 14.8738 9.50781C14.8771 9.50111 14.8854 9.49944 14.8979 9.50295C14.9105 9.50645 14.9269 9.51502 14.946 9.528C14.9651 9.54097 14.9863 9.55799 15.008 9.57771C15.0296 9.59743 15.0511 9.61932 15.0708 9.64166Z" fill="#009B3A" stroke="black" stroke-width="0.0125"/>
<path d="M15.1124 9.60416C15.1262 9.62954 15.139 9.65537 15.15 9.68018C15.161 9.70499 15.17 9.72829 15.1764 9.74875C15.1829 9.76921 15.1868 9.78643 15.1878 9.79943C15.1888 9.81243 15.1869 9.82095 15.1822 9.82451C15.1776 9.82806 15.1703 9.82659 15.1607 9.82016C15.1511 9.81374 15.1394 9.80248 15.1264 9.78705C15.1133 9.77162 15.0991 9.75231 15.0845 9.73023C15.07 9.70814 15.0554 9.68371 15.0416 9.65833C15.0277 9.63295 15.015 9.60712 15.004 9.58231C14.993 9.5575 14.984 9.5342 14.9775 9.51374C14.971 9.49328 14.9672 9.47606 14.9662 9.46306C14.9652 9.45006 14.9671 9.44154 14.9717 9.43798C14.9764 9.43443 14.9837 9.43591 14.9933 9.44233C15.0029 9.44876 15.0145 9.46001 15.0276 9.47544C15.0407 9.49087 15.0549 9.51018 15.0694 9.53227C15.084 9.55435 15.0986 9.57878 15.1124 9.60416Z" fill="#009B3A" stroke="black" stroke-width="0.0125"/>
<path d="M15.1708 9.61249C15.1793 9.63939 15.1867 9.66641 15.1926 9.69199C15.1985 9.71757 15.2028 9.74123 15.2051 9.7616C15.2075 9.78198 15.2079 9.79867 15.2064 9.81074C15.2049 9.8228 15.2014 9.82999 15.1962 9.83191C15.191 9.83382 15.1842 9.83042 15.1761 9.8219C15.168 9.81337 15.1589 9.79989 15.1492 9.78223C15.1395 9.76456 15.1294 9.74306 15.1195 9.71894C15.1096 9.69482 15.1001 9.66856 15.0916 9.64166C15.0827 9.61349 15.0749 9.58521 15.0688 9.55845C15.0626 9.53169 15.0582 9.50697 15.0558 9.48569C15.0509 9.44272 15.0543 9.41641 15.0654 9.41254C15.0764 9.40868 15.0942 9.42757 15.1147 9.46507C15.1353 9.50257 15.1569 9.5556 15.1749 9.61249H15.1708Z" fill="#009B3A" stroke="black" stroke-width="0.0125"/>
<path d="M15.1875 9.825H15.1166C15.1041 9.825 15.0958 9.79167 15.0583 9.79167C15.0261 9.7922 14.9952 9.804 14.9708 9.825C14.9541 9.84167 14.9666 9.85834 15.0125 9.85834C15.0583 9.85834 15.0833 9.8375 15.1083 9.83334H15.1916L15.2666 9.78334C15.2916 9.76667 15.3541 9.75834 15.3916 9.72917C15.4208 9.70417 15.4291 9.67084 15.4041 9.67084C15.3696 9.67513 15.3366 9.68802 15.3083 9.70834C15.2875 9.725 15.2833 9.7625 15.2583 9.77917C15.2416 9.7875 15.1916 9.825 15.1875 9.82084M15.2916 10.0875C15.2623 10.1342 15.231 10.1752 15.2048 10.2016C15.1786 10.228 15.1595 10.2375 15.1517 10.2281C15.144 10.2187 15.1483 10.1912 15.1635 10.1515C15.1788 10.1119 15.2039 10.0634 15.2333 10.0167C15.2627 9.96998 15.2939 9.92893 15.3201 9.90256C15.3464 9.87619 15.3654 9.86665 15.3732 9.87604C15.3809 9.88544 15.3767 9.91299 15.3614 9.95265C15.3461 9.99231 15.321 10.0408 15.2916 10.0875Z" fill="#009B3A"/>
<path d="M15.1875 9.825H15.1166C15.1041 9.825 15.0958 9.79167 15.0583 9.79167C15.0261 9.7922 14.9952 9.804 14.9708 9.825C14.9541 9.84167 14.9666 9.85834 15.0125 9.85834C15.0583 9.85834 15.0833 9.8375 15.1083 9.83334H15.1916L15.2666 9.78334C15.2916 9.76667 15.3541 9.75834 15.3916 9.72917C15.4208 9.70417 15.4291 9.67084 15.4041 9.67084C15.3696 9.67513 15.3366 9.68802 15.3083 9.70834C15.2875 9.725 15.2833 9.7625 15.2583 9.77917C15.2416 9.7875 15.1916 9.825 15.1875 9.82084M15.2916 10.0875C15.2623 10.1342 15.231 10.1752 15.2048 10.2016C15.1786 10.228 15.1595 10.2375 15.1517 10.2281C15.144 10.2187 15.1483 10.1912 15.1635 10.1515C15.1788 10.1119 15.2039 10.0634 15.2333 10.0167C15.2627 9.96998 15.2939 9.92893 15.3201 9.90256C15.3464 9.87619 15.3654 9.86665 15.3732 9.87604C15.3809 9.88544 15.3767 9.91299 15.3614 9.95265C15.3461 9.99231 15.321 10.0408 15.2916 10.0875Z" stroke="black" stroke-width="0.0125"/>
<path d="M15.2541 10.0542C15.2336 10.1076 15.2099 10.1564 15.1884 10.1899C15.1668 10.2234 15.1491 10.2388 15.1391 10.2327C15.1292 10.2266 15.1278 10.1996 15.1353 10.1575C15.1428 10.1154 15.1586 10.0618 15.1791 10.0083C15.1997 9.95491 15.2233 9.90609 15.2449 9.87261C15.2665 9.83912 15.2842 9.82373 15.2941 9.82981C15.3041 9.83589 15.3054 9.86294 15.2979 9.90501C15.2904 9.94709 15.2747 10.0007 15.2541 10.0542ZM15.1 10.0042C15.1208 10.0588 15.1369 10.1145 15.1446 10.159C15.1523 10.2035 15.151 10.2331 15.1411 10.2414C15.1312 10.2497 15.1133 10.2359 15.0915 10.2032C15.0698 10.1704 15.0458 10.1213 15.025 10.0667C15.0041 10.012 14.9881 9.95636 14.9803 9.91187C14.9726 9.86738 14.9739 9.83773 14.9838 9.82945C14.9938 9.82116 15.0116 9.83491 15.0334 9.86768C15.0552 9.90044 15.0791 9.94954 15.1 10.0042Z" fill="#009B3A" stroke="black" stroke-width="0.0125"/>
<path d="M15.1499 9.98748C15.1552 10.0446 15.1558 10.1005 15.1517 10.1428C15.1476 10.1852 15.1391 10.2105 15.1281 10.2133C15.117 10.216 15.1043 10.196 15.0928 10.1575C15.0813 10.1191 15.0719 10.0654 15.0666 10.0083C15.064 9.98003 15.0625 9.95176 15.0622 9.92511C15.0619 9.89845 15.0628 9.87395 15.0648 9.85298C15.0668 9.83202 15.07 9.815 15.074 9.80292C15.0781 9.79083 15.083 9.78391 15.0885 9.78254C15.0939 9.78117 15.0999 9.78539 15.1059 9.79495C15.112 9.8045 15.118 9.81922 15.1237 9.83825C15.1294 9.85728 15.1347 9.88025 15.1392 9.90586C15.1437 9.93146 15.1473 9.9592 15.1499 9.98748Z" fill="#009B3A" stroke="black" stroke-width="0.0125"/>
<path d="M15.2083 10.0167C15.2029 10.0739 15.1933 10.1285 15.1817 10.1686C15.17 10.2087 15.1573 10.2309 15.1462 10.2303C15.1352 10.2298 15.1267 10.2065 15.1227 10.1657C15.1188 10.1248 15.1196 10.0697 15.125 10.0125C15.1276 9.98417 15.1314 9.95617 15.1359 9.9301C15.1405 9.90403 15.1458 9.8804 15.1516 9.86055C15.1574 9.84071 15.1635 9.82505 15.1695 9.81446C15.1756 9.80387 15.1816 9.79856 15.187 9.79884C15.1981 9.79939 15.2065 9.82265 15.2105 9.8635C15.2145 9.90435 15.2137 9.95945 15.2083 10.0167Z" fill="#009B3A" stroke="black" stroke-width="0.0125"/>
<path d="M15.1374 10.2208C15.1374 10.2208 15.0791 10.2 15.0707 10.1917C15.0582 10.1833 15.0666 10.1583 15.0291 10.1375C14.9995 10.1263 14.9669 10.1263 14.9374 10.1375C14.9166 10.1375 14.9207 10.1625 14.9624 10.1792C15.0041 10.2042 15.0374 10.1875 15.0582 10.1958L15.1332 10.2333C15.1541 10.225 15.1999 10.2208 15.2249 10.2167C15.2499 10.2125 15.3124 10.2333 15.3582 10.2167C15.3957 10.2042 15.4124 10.175 15.3874 10.1667C15.356 10.1584 15.323 10.1584 15.2916 10.1667C15.2624 10.1708 15.2457 10.2083 15.2166 10.2083C15.1957 10.2083 15.1374 10.225 15.1332 10.2208M15.1749 10.5417C15.1502 10.5652 15.1238 10.5879 15.0975 10.608C15.0712 10.6281 15.0457 10.6451 15.0231 10.6578C15.0004 10.6705 14.981 10.6785 14.9665 10.6813C14.9519 10.6841 14.9425 10.6815 14.939 10.6738C14.9355 10.666 14.9379 10.6534 14.946 10.6367C14.9542 10.62 14.968 10.5998 14.9862 10.5775C15.0045 10.5551 15.0268 10.5313 15.0516 10.5078C15.0763 10.4843 15.1028 10.4617 15.1291 10.4417C15.1541 10.4168 15.1816 10.3924 15.2094 10.3705C15.2371 10.3486 15.2643 10.3298 15.2887 10.3157C15.313 10.3016 15.3339 10.2925 15.3495 10.2893C15.3651 10.286 15.3751 10.2887 15.3786 10.297C15.382 10.3053 15.3789 10.3191 15.3695 10.3372C15.36 10.3553 15.3445 10.3772 15.3243 10.4011C15.304 10.425 15.2795 10.4502 15.2528 10.4746C15.2261 10.4991 15.198 10.522 15.1707 10.5417" fill="#009B3A"/>
<path d="M15.1374 10.2208C15.1374 10.2208 15.0791 10.2 15.0707 10.1917C15.0582 10.1833 15.0666 10.1583 15.0291 10.1375C14.9995 10.1263 14.9669 10.1263 14.9374 10.1375C14.9166 10.1375 14.9207 10.1625 14.9624 10.1792C15.0041 10.2042 15.0374 10.1875 15.0582 10.1958L15.1332 10.2333C15.1541 10.225 15.1999 10.2208 15.2249 10.2167C15.2499 10.2125 15.3124 10.2333 15.3582 10.2167C15.3957 10.2042 15.4124 10.175 15.3874 10.1667C15.356 10.1584 15.323 10.1584 15.2916 10.1667C15.2624 10.1708 15.2457 10.2083 15.2166 10.2083C15.1957 10.2083 15.1374 10.225 15.1332 10.2208M15.1749 10.5417C15.1502 10.5652 15.1238 10.5879 15.0975 10.608C15.0712 10.6281 15.0457 10.6451 15.0231 10.6578C15.0004 10.6705 14.981 10.6785 14.9665 10.6813C14.9519 10.6841 14.9425 10.6815 14.939 10.6738C14.9355 10.666 14.9379 10.6534 14.946 10.6367C14.9542 10.62 14.968 10.5998 14.9862 10.5775C15.0045 10.5551 15.0268 10.5313 15.0516 10.5078C15.0763 10.4843 15.1028 10.4617 15.1291 10.4417C15.1541 10.4168 15.1816 10.3924 15.2094 10.3705C15.2371 10.3486 15.2643 10.3298 15.2887 10.3157C15.313 10.3016 15.3339 10.2925 15.3495 10.2893C15.3651 10.286 15.3751 10.2887 15.3786 10.297C15.382 10.3053 15.3789 10.3191 15.3695 10.3372C15.36 10.3553 15.3445 10.3772 15.3243 10.4011C15.304 10.425 15.2795 10.4502 15.2528 10.4746C15.2261 10.4991 15.198 10.522 15.1707 10.5417" stroke="black" stroke-width="0.0125"/>
<path d="M15.1375 10.4958C15.0977 10.5464 15.0563 10.5904 15.0223 10.6184C14.9884 10.6463 14.9646 10.6558 14.9563 10.6447C14.9481 10.6337 14.9559 10.603 14.9782 10.5594C15.0004 10.5159 15.0352 10.463 15.075 10.4125C15.0947 10.3875 15.115 10.3638 15.1347 10.3427C15.1545 10.3217 15.1733 10.3038 15.1901 10.2899C15.2069 10.2761 15.2214 10.2667 15.2327 10.2622C15.2441 10.2576 15.252 10.2581 15.2561 10.2636C15.2602 10.2691 15.2604 10.2794 15.2567 10.294C15.2529 10.3087 15.2453 10.3273 15.2343 10.3489C15.2233 10.3704 15.2091 10.3945 15.1925 10.4197C15.1758 10.4449 15.1572 10.4708 15.1375 10.4958Z" fill="#009B3A" stroke="black" stroke-width="0.0125"/>
<path d="M14.9874 10.3833C14.9928 10.4164 14.9965 10.4526 14.9982 10.4889C14.9998 10.5251 14.9993 10.5603 14.9968 10.5917C14.9943 10.6231 14.9898 10.6496 14.9837 10.6692C14.9775 10.6888 14.97 10.7008 14.9616 10.7043C14.9533 10.7078 14.9443 10.7026 14.9355 10.6893C14.9268 10.6759 14.9184 10.6547 14.9112 10.6274C14.9039 10.6001 14.898 10.5675 14.8939 10.5323C14.8897 10.4971 14.8875 10.4603 14.8874 10.425C14.882 10.3918 14.8783 10.3557 14.8767 10.3194C14.8751 10.2832 14.8755 10.2479 14.878 10.2166C14.8806 10.1852 14.8851 10.1586 14.8912 10.1391C14.8973 10.1195 14.9049 10.1074 14.9132 10.104C14.9216 10.1005 14.9305 10.1056 14.9393 10.119C14.9481 10.1324 14.9564 10.1536 14.9637 10.1809C14.9709 10.2082 14.9769 10.2408 14.981 10.276C14.9851 10.3112 14.9873 10.348 14.9874 10.3833Z" fill="#009B3A" stroke="black" stroke-width="0.0125"/>
<path d="M15.0458 10.3833C15.0328 10.4323 15.0178 10.4748 15.0031 10.5047C14.9883 10.5346 14.9746 10.5502 14.9638 10.5493C14.9531 10.5483 14.946 10.5309 14.9435 10.4995C14.941 10.4682 14.9433 10.4245 14.95 10.375C14.9546 10.3386 14.9616 10.2999 14.9703 10.2622C14.979 10.2244 14.9891 10.1886 15 10.1577C15.0108 10.1268 15.022 10.1018 15.0326 10.0847C15.0432 10.0675 15.0529 10.0587 15.061 10.0591C15.069 10.0594 15.0751 10.0689 15.0788 10.0867C15.0825 10.1044 15.0836 10.13 15.0821 10.1613C15.0806 10.1926 15.0766 10.2286 15.0703 10.2665C15.064 10.3044 15.0556 10.343 15.0458 10.3792" fill="#009B3A"/>
<path d="M15.0458 10.3833C15.0328 10.4323 15.0178 10.4748 15.0031 10.5047C14.9883 10.5346 14.9746 10.5502 14.9638 10.5493C14.9531 10.5483 14.946 10.5309 14.9435 10.4995C14.941 10.4682 14.9433 10.4245 14.95 10.375C14.9546 10.3386 14.9616 10.2999 14.9703 10.2622C14.979 10.2244 14.9891 10.1886 15 10.1577C15.0108 10.1268 15.022 10.1018 15.0326 10.0847C15.0432 10.0675 15.0529 10.0587 15.061 10.0591C15.069 10.0594 15.0751 10.0689 15.0788 10.0867C15.0825 10.1044 15.0836 10.13 15.0821 10.1613C15.0806 10.1926 15.0766 10.2286 15.0703 10.2665C15.064 10.3044 15.0556 10.343 15.0458 10.3792" stroke="black" stroke-width="0.0125"/>
<path d="M15.0958 10.4333C15.0842 10.4694 15.0699 10.5075 15.0539 10.5443C15.0379 10.5811 15.0208 10.6156 15.004 10.6447C14.9872 10.6739 14.9713 10.6968 14.9576 10.7117C14.9438 10.7265 14.9327 10.7327 14.9252 10.7299C14.9176 10.727 14.9139 10.7151 14.9142 10.6951C14.9146 10.6752 14.919 10.6479 14.9272 10.6154C14.9353 10.583 14.947 10.5465 14.9611 10.5089C14.9752 10.4714 14.9914 10.434 15.0083 10.4C15.0198 10.3639 15.0342 10.3258 15.0502 10.289C15.0662 10.2522 15.0833 10.2178 15.1001 10.1886C15.1168 10.1595 15.1328 10.1365 15.1465 10.1217C15.1602 10.1068 15.1713 10.1006 15.1789 10.1035C15.1864 10.1063 15.1902 10.1183 15.1899 10.1382C15.1895 10.1581 15.1851 10.1855 15.1769 10.2179C15.1687 10.2503 15.1571 10.2869 15.143 10.3244C15.1288 10.3619 15.1126 10.3993 15.0958 10.4333Z" fill="#009B3A" stroke="black" stroke-width="0.0125"/>
<path d="M14.9583 10.6375C14.9349 10.6196 14.9126 10.6001 14.8917 10.5792C14.8833 10.5667 14.8958 10.5375 14.8625 10.5042C14.8292 10.4709 14.7875 10.4625 14.7625 10.4625C14.7375 10.4667 14.7375 10.4917 14.775 10.5292C14.8167 10.5709 14.8583 10.5625 14.875 10.5792C14.9 10.5959 14.9333 10.625 14.9458 10.6459L15.0542 10.6625C15.0833 10.6625 15.1458 10.7084 15.2 10.7084C15.2417 10.7084 15.275 10.6875 15.25 10.6667C15.2183 10.6434 15.1809 10.629 15.1417 10.625C15.1083 10.625 15.0792 10.6584 15.05 10.65L14.9542 10.6375M14.8583 10.9417C14.7929 10.9524 14.7308 10.9563 14.6856 10.9526C14.6405 10.9488 14.6161 10.9377 14.6178 10.9217C14.6194 10.9057 14.647 10.886 14.6945 10.8671C14.7419 10.8482 14.8054 10.8316 14.8708 10.8209C14.9033 10.8156 14.9352 10.8119 14.9648 10.81C14.9945 10.8081 15.0212 10.8081 15.0436 10.81C15.0659 10.8118 15.0834 10.8155 15.095 10.8208C15.1067 10.8261 15.1122 10.8329 15.1114 10.8409C15.1106 10.8488 15.1034 10.8577 15.0902 10.8671C15.0771 10.8764 15.0582 10.8861 15.0347 10.8954C15.0112 10.9048 14.9835 10.9137 14.9533 10.9216C14.923 10.9296 14.8908 10.9364 14.8583 10.9417Z" fill="#009B3A"/>
<path d="M14.9583 10.6375C14.9349 10.6196 14.9126 10.6001 14.8917 10.5792C14.8833 10.5667 14.8958 10.5375 14.8625 10.5042C14.8292 10.4709 14.7875 10.4625 14.7625 10.4625C14.7375 10.4667 14.7375 10.4917 14.775 10.5292C14.8167 10.5709 14.8583 10.5625 14.875 10.5792C14.9 10.5959 14.9333 10.625 14.9458 10.6459L15.0542 10.6625C15.0833 10.6625 15.1458 10.7084 15.2 10.7084C15.2417 10.7084 15.275 10.6875 15.25 10.6667C15.2183 10.6434 15.1809 10.629 15.1417 10.625C15.1083 10.625 15.0792 10.6584 15.05 10.65L14.9542 10.6375M14.8583 10.9417C14.7929 10.9524 14.7308 10.9563 14.6856 10.9526C14.6405 10.9488 14.6161 10.9377 14.6178 10.9217C14.6194 10.9057 14.647 10.886 14.6945 10.8671C14.7419 10.8482 14.8054 10.8316 14.8708 10.8209C14.9033 10.8156 14.9352 10.8119 14.9648 10.81C14.9945 10.8081 15.0212 10.8081 15.0436 10.81C15.0659 10.8118 15.0834 10.8155 15.095 10.8208C15.1067 10.8261 15.1122 10.8329 15.1114 10.8409C15.1106 10.8488 15.1034 10.8577 15.0902 10.8671C15.0771 10.8764 15.0582 10.8861 15.0347 10.8954C15.0112 10.9048 14.9835 10.9137 14.9533 10.9216C14.923 10.9296 14.8908 10.9364 14.8583 10.9417Z" stroke="black" stroke-width="0.0125"/>
<path d="M14.8541 10.875C14.788 10.9004 14.7236 10.9191 14.6749 10.9269C14.6262 10.9347 14.5973 10.9311 14.5946 10.9167C14.5918 10.9023 14.6154 10.8785 14.6602 10.8503C14.7049 10.8222 14.7672 10.7921 14.8333 10.7666C14.9017 10.7403 14.9684 10.721 15.0188 10.7129C15.0691 10.7049 15.0989 10.7087 15.1017 10.7236C15.1045 10.7386 15.0799 10.7633 15.0335 10.7925C14.9871 10.8216 14.9225 10.8528 14.8541 10.8791" fill="#009B3A"/>
<path d="M14.8541 10.875C14.788 10.9004 14.7236 10.9191 14.6749 10.9269C14.6262 10.9347 14.5973 10.9311 14.5946 10.9167C14.5918 10.9023 14.6154 10.8785 14.6602 10.8503C14.7049 10.8222 14.7672 10.7921 14.8333 10.7666C14.9017 10.7403 14.9684 10.721 15.0188 10.7129C15.0691 10.7049 15.0989 10.7087 15.1017 10.7236C15.1045 10.7386 15.0799 10.7633 15.0335 10.7925C14.9871 10.8216 14.9225 10.8528 14.8541 10.8791" stroke="black" stroke-width="0.0125"/>
<path d="M14.7667 10.6833C14.7399 10.7334 14.7112 10.7774 14.6851 10.8081C14.6591 10.8388 14.6375 10.8542 14.6238 10.8517C14.6101 10.8493 14.6053 10.8291 14.6101 10.7947C14.6148 10.7602 14.6289 10.7136 14.65 10.6625C14.6637 10.6293 14.6799 10.5953 14.6974 10.5631C14.7149 10.5308 14.7333 10.501 14.7512 10.4759C14.7692 10.4508 14.7862 10.431 14.801 10.418C14.8159 10.405 14.8282 10.3991 14.8371 10.4006C14.8459 10.4022 14.8512 10.4113 14.8523 10.4272C14.8535 10.4431 14.8506 10.4654 14.8439 10.4925C14.8371 10.5195 14.8267 10.5507 14.8134 10.5838C14.8 10.6168 14.784 10.6508 14.7667 10.6833Z" fill="#009B3A" stroke="black" stroke-width="0.0125"/>
<path d="M14.8291 10.7167C14.7795 10.7729 14.7268 10.8235 14.6828 10.8574C14.6387 10.8913 14.6068 10.9056 14.594 10.8974C14.5813 10.8891 14.5889 10.8588 14.615 10.8132C14.6411 10.7676 14.6837 10.7104 14.7333 10.6542C14.7579 10.6263 14.7835 10.5996 14.8086 10.5754C14.8337 10.5513 14.8579 10.5302 14.8797 10.5135C14.9238 10.4796 14.9557 10.4652 14.9684 10.4735C14.9811 10.4818 14.9736 10.512 14.9475 10.5577C14.9345 10.5802 14.9174 10.6059 14.8971 10.6332C14.8768 10.6605 14.8537 10.6888 14.8291 10.7167Z" fill="#009B3A" stroke="black" stroke-width="0.0125"/>
<path d="M14.8457 10.7958C14.8156 10.8205 14.7837 10.8445 14.752 10.8661C14.7204 10.8876 14.6898 10.9063 14.6626 10.9207C14.6353 10.9351 14.612 10.9449 14.5942 10.9495C14.5765 10.954 14.5647 10.9532 14.5598 10.947C14.5548 10.9408 14.5568 10.9295 14.5656 10.9137C14.5744 10.898 14.5898 10.8782 14.6107 10.8559C14.6316 10.8335 14.6575 10.8091 14.6866 10.7843C14.7157 10.7596 14.7473 10.735 14.7791 10.7125C14.8303 10.6762 14.8796 10.6468 14.9182 10.6296C14.9568 10.6124 14.9824 10.6084 14.9903 10.6183C14.9983 10.6283 14.9882 10.6515 14.9617 10.684C14.9353 10.7164 14.8942 10.756 14.8457 10.7958Z" fill="#009B3A" stroke="black" stroke-width="0.0125"/>
<path d="M14.5999 10.9041C14.5882 10.8742 14.5785 10.8436 14.5707 10.8125C14.5666 10.7958 14.5957 10.7791 14.5832 10.7291C14.5691 10.6888 14.5411 10.6548 14.5041 10.6333C14.4832 10.6208 14.4666 10.6416 14.4832 10.7C14.4999 10.7583 14.5416 10.7791 14.5541 10.8083L14.5874 10.9083L14.6791 10.9875C14.7041 11.0083 14.7416 11.0875 14.7916 11.1166C14.8332 11.1458 14.8749 11.1375 14.8666 11.1083C14.8478 11.0684 14.8191 11.034 14.7832 11.0083C14.7541 10.9833 14.7082 10.9958 14.6791 10.975C14.6624 10.9541 14.5957 10.9083 14.5957 10.9041" fill="#009B3A"/>
<path d="M14.5999 10.9041C14.5882 10.8742 14.5785 10.8436 14.5707 10.8125C14.5666 10.7958 14.5957 10.7791 14.5832 10.7291C14.5691 10.6888 14.5411 10.6548 14.5041 10.6333C14.4832 10.6208 14.4666 10.6416 14.4832 10.7C14.4999 10.7583 14.5416 10.7791 14.5541 10.8083L14.5874 10.9083L14.6791 10.9875C14.7041 11.0083 14.7416 11.0875 14.7916 11.1166C14.8332 11.1458 14.8749 11.1375 14.8666 11.1083C14.8478 11.0684 14.8191 11.034 14.7832 11.0083C14.7541 10.9833 14.7082 10.9958 14.6791 10.975C14.6624 10.9541 14.5957 10.9083 14.5957 10.9041" stroke="black" stroke-width="0.0125"/>
<path d="M14.45 11.1666C14.3946 11.1636 14.3452 11.155 14.31 11.1424C14.2747 11.1297 14.2555 11.1137 14.2555 11.0968C14.2555 11.08 14.2747 11.0633 14.31 11.0496C14.3452 11.0358 14.3946 11.0256 14.45 11.0208C14.5054 11.0239 14.5548 11.0324 14.59 11.0451C14.6253 11.0578 14.6445 11.0738 14.6445 11.0906C14.6445 11.1075 14.6253 11.1241 14.59 11.1379C14.5548 11.1517 14.5054 11.1618 14.45 11.1666Z" fill="#009B3A" stroke="black" stroke-width="0.0125"/>
<path d="M14.4166 10.9375C14.3729 10.9939 14.3252 11.0431 14.2838 11.0744C14.2424 11.1057 14.2108 11.1164 14.1959 11.1043C14.181 11.0921 14.184 11.0581 14.2043 11.0096C14.2246 10.9611 14.2604 10.9022 14.3041 10.8458C14.3252 10.8186 14.3475 10.7928 14.3698 10.7699C14.392 10.747 14.4138 10.7275 14.4337 10.7125C14.4537 10.6974 14.4715 10.6872 14.4862 10.6823C14.5009 10.6775 14.5121 10.6781 14.5192 10.6841C14.5263 10.6901 14.5292 10.7014 14.5277 10.7174C14.5262 10.7334 14.5203 10.7538 14.5103 10.7773C14.5004 10.8008 14.4867 10.8271 14.4699 10.8546C14.4531 10.8821 14.4335 10.9102 14.4124 10.9375" fill="#009B3A"/>
<path d="M14.4166 10.9375C14.3729 10.9939 14.3252 11.0431 14.2838 11.0744C14.2424 11.1057 14.2108 11.1164 14.1959 11.1043C14.181 11.0921 14.184 11.0581 14.2043 11.0096C14.2246 10.9611 14.2604 10.9022 14.3041 10.8458C14.3252 10.8186 14.3475 10.7928 14.3698 10.7699C14.392 10.747 14.4138 10.7275 14.4337 10.7125C14.4537 10.6974 14.4715 10.6872 14.4862 10.6823C14.5009 10.6775 14.5121 10.6781 14.5192 10.6841C14.5263 10.6901 14.5292 10.7014 14.5277 10.7174C14.5262 10.7334 14.5203 10.7538 14.5103 10.7773C14.5004 10.8008 14.4867 10.8271 14.4699 10.8546C14.4531 10.8821 14.4335 10.9102 14.4124 10.9375" stroke="black" stroke-width="0.0125"/>
<path d="M14.4499 11.0542C14.385 11.082 14.3202 11.1015 14.2696 11.1083C14.219 11.1151 14.1869 11.1087 14.1802 11.0905C14.1736 11.0722 14.193 11.0437 14.2342 11.0111C14.2754 10.9785 14.335 10.9445 14.3999 10.9167C14.4648 10.8888 14.5297 10.8693 14.5803 10.8625C14.6309 10.8557 14.663 10.8621 14.6696 10.8804C14.6763 10.8986 14.6568 10.9272 14.6156 10.9597C14.5744 10.9923 14.5148 11.0263 14.4499 11.0542ZM14.5208 8.82917C14.5493 8.8559 14.5729 8.88236 14.5869 8.90333C14.601 8.9243 14.6044 8.93826 14.5966 8.94244C14.5887 8.94663 14.5702 8.94074 14.5445 8.92594C14.5189 8.91114 14.4882 8.88851 14.4583 8.8625C14.4417 8.8481 14.4259 8.83311 14.412 8.81848C14.398 8.80386 14.3861 8.78992 14.3771 8.77754C14.368 8.76517 14.362 8.75464 14.3595 8.74661C14.3569 8.73859 14.3578 8.73325 14.3622 8.73093C14.3665 8.72861 14.3742 8.72936 14.3847 8.73314C14.3953 8.73692 14.4084 8.74364 14.4233 8.75288C14.4382 8.76212 14.4546 8.77367 14.4714 8.7868C14.4881 8.79994 14.505 8.81436 14.5208 8.82917ZM14.4416 8.89167C14.4761 8.89807 14.507 8.9063 14.5296 8.91511C14.5522 8.92392 14.5653 8.9328 14.5667 8.94039C14.5681 8.94798 14.5579 8.95385 14.5375 8.95709C14.5171 8.96034 14.4878 8.96077 14.4541 8.95834C14.4305 8.95663 14.4056 8.95358 14.3811 8.94942C14.3567 8.94525 14.3335 8.94009 14.3133 8.93433C14.2931 8.92857 14.2764 8.92236 14.2646 8.91619C14.2528 8.91002 14.2461 8.90405 14.2451 8.89875C14.2441 8.89345 14.2488 8.88896 14.2589 8.88562C14.2689 8.88228 14.284 8.88018 14.303 8.8795C14.322 8.87881 14.3444 8.87956 14.3684 8.88167C14.3925 8.88378 14.4175 8.8872 14.4416 8.89167Z" fill="#009B3A" stroke="black" stroke-width="0.0125"/>
<path d="M14.475 8.84998C14.4962 8.86076 14.5167 8.87213 14.5355 8.88345C14.5542 8.89476 14.5708 8.9058 14.5842 8.91594C14.5977 8.92607 14.6077 8.9351 14.6138 8.94251C14.6199 8.94992 14.6219 8.95557 14.6197 8.95912C14.6175 8.96268 14.6112 8.96408 14.6011 8.96324C14.5909 8.9624 14.5772 8.95935 14.5607 8.95424C14.5441 8.94914 14.5251 8.94208 14.5047 8.93349C14.4843 8.92489 14.4628 8.91492 14.4416 8.90415C14.3988 8.88238 14.3595 8.85866 14.3324 8.83819C14.3052 8.81772 14.2925 8.80219 14.2969 8.795C14.3013 8.78782 14.3225 8.78958 14.3559 8.79989C14.3893 8.8102 14.4322 8.82822 14.475 8.84998ZM13.3208 10.9166C13.3208 10.9166 13.5333 10.9625 13.7208 11.0291C13.9083 11.1 14.1916 11.3291 14.2666 11.3458C14.35 11.3458 14.4708 11.3166 14.5166 11.1958C14.3833 11.2291 14.3083 11.2833 14.1833 11.2166C14.1375 11.2 13.9916 11.0666 13.8291 10.9958C13.6708 10.925 13.35 10.8458 13.35 10.8458L13.3208 10.9166ZM13.55 8.97915L13.7958 8.84998L13.525 8.92081L13.4916 8.96665L13.55 8.97915Z" fill="#009B3A" stroke="black" stroke-width="0.0125"/>
<path d="M13.7833 9.04167C13.6875 9.02084 13.5416 8.98751 13.45 8.98334C13.5125 8.91251 13.6 8.78751 13.6583 8.71667C13.6166 8.78751 13.5625 8.88334 13.5416 8.94584C13.6041 8.98334 13.7083 9.01251 13.7833 9.03751" fill="#009B3A"/>
<path d="M13.7833 9.04167C13.6875 9.02084 13.5416 8.98751 13.45 8.98334C13.5125 8.91251 13.6 8.78751 13.6583 8.71667C13.6166 8.78751 13.5625 8.88334 13.5416 8.94584C13.6041 8.98334 13.7083 9.01251 13.7833 9.03751" stroke="black" stroke-width="0.0125"/>
<path d="M13.5041 8.99585C13.5771 8.93812 13.6508 8.88117 13.725 8.82501L13.4708 8.93751L13.4458 8.99168H13.5041" fill="#009B3A"/>
<path d="M13.5041 8.99585C13.5771 8.93812 13.6508 8.88117 13.725 8.82501L13.4708 8.93751L13.4458 8.99168H13.5041" stroke="black" stroke-width="0.0125"/>
<path d="M13.7375 9.03751C13.6417 9.01668 13.4958 8.98335 13.4042 8.97501C13.4625 8.90418 13.55 8.77918 13.6042 8.70001C13.5708 8.77501 13.5125 8.87085 13.4917 8.94168C13.5583 8.97918 13.6625 9.00835 13.7417 9.03751" fill="#009B3A"/>
<path d="M13.7375 9.03751C13.6417 9.01668 13.4958 8.98335 13.4042 8.97501C13.4625 8.90418 13.55 8.77918 13.6042 8.70001C13.5708 8.77501 13.5125 8.87085 13.4917 8.94168C13.5583 8.97918 13.6625 9.00835 13.7417 9.03751" stroke="black" stroke-width="0.0125"/>
<path d="M13.4708 9.00836L13.725 8.90002L13.45 8.94586L13.4125 8.98752L13.4666 9.00836" fill="#009B3A"/>
<path d="M13.4708 9.00836L13.725 8.90002L13.45 8.94586L13.4125 8.98752L13.4666 9.00836" stroke="black" stroke-width="0.0125"/>
<path d="M13.7082 9.04169C13.6124 9.02919 13.4582 9.01252 13.3666 9.01669C13.4207 8.93336 13.4916 8.79586 13.5374 8.71252C13.5124 8.79169 13.4666 8.89586 13.4541 8.96669C13.5249 9.00002 13.6332 9.01669 13.7082 9.03752" fill="#009B3A"/>
<path d="M13.7082 9.04169C13.6124 9.02919 13.4582 9.01252 13.3666 9.01669C13.4207 8.93336 13.4916 8.79586 13.5374 8.71252C13.5124 8.79169 13.4666 8.89586 13.4541 8.96669C13.5249 9.00002 13.6332 9.01669 13.7082 9.03752" stroke="black" stroke-width="0.0125"/>
<path d="M13.4416 9.00832L13.6166 8.79999L13.3958 8.96249L13.3833 9.01665L13.4416 9.00832Z" fill="#009B3A" stroke="black" stroke-width="0.0125"/>
<path d="M13.7083 9.05415C13.6042 9.05415 13.4417 9.04165 13.3417 9.05415C13.3917 8.95831 13.4542 8.80415 13.4917 8.70831C13.475 8.79581 13.4375 8.91665 13.4333 8.99581C13.5083 9.02081 13.625 9.03748 13.7083 9.05415Z" fill="#009B3A" stroke="black" stroke-width="0.0125"/>
<path d="M13.4083 9.05835L13.6167 8.85419L13.3625 9.00002L13.3458 9.05835H13.4083Z" fill="#009B3A" stroke="black" stroke-width="0.0125"/>
<path d="M13.6624 9.05833C13.5499 9.05833 13.3791 9.05417 13.2666 9.06667C13.3416 8.9625 13.4416 8.79167 13.4999 8.6875C13.4583 8.78333 13.3999 8.9125 13.3749 9C13.4541 9.02917 13.5749 9.04167 13.6624 9.05833Z" fill="#009B3A" stroke="black" stroke-width="0.0125"/>
<path d="M13.3333 9.07499L13.6083 8.84583L13.2999 9.00832L13.2666 9.07499H13.3333Z" fill="#009B3A" stroke="black" stroke-width="0.0125"/>
<path d="M13.6249 9.06664C13.5124 9.08331 13.3374 9.09998 13.2333 9.12914C13.2874 9.01664 13.3624 8.83748 13.4083 8.72498C13.3833 8.82498 13.3374 8.95831 13.3249 9.04998C13.4083 9.06664 13.5333 9.06248 13.6208 9.06664" fill="#009B3A"/>
<path d="M13.6249 9.06664C13.5124 9.08331 13.3374 9.09998 13.2333 9.12914C13.2874 9.01664 13.3624 8.83748 13.4083 8.72498C13.3833 8.82498 13.3374 8.95831 13.3249 9.04998C13.4083 9.06664 13.5333 9.06248 13.6208 9.06664" stroke="black" stroke-width="0.0125"/>
<path d="M13.2999 9.12083L13.5083 8.82916L13.2458 9.06666L13.2333 9.1375L13.2999 9.12083Z" fill="#009B3A" stroke="black" stroke-width="0.0125"/>
<path d="M13.5583 9.1C13.45 9.1125 13.275 9.12083 13.1666 9.14167C13.2291 9.03333 13.3125 8.85833 13.3666 8.75C13.3333 8.84583 13.2833 8.97917 13.2666 9.07083C13.35 9.09167 13.475 9.09167 13.5583 9.1Z" fill="#009B3A" stroke="black" stroke-width="0.0125"/>
<path d="M13.2625 9.15L13.5291 8.92084L13.225 9.08334L13.1958 9.15H13.2625Z" fill="#009B3A" stroke="black" stroke-width="0.0125"/>
<path d="M13.5291 9.11252C13.4166 9.13752 13.2416 9.16669 13.1375 9.20002C13.1875 9.08752 13.2541 8.90419 13.2958 8.79169C13.275 8.89169 13.2375 9.02502 13.2291 9.11669C13.3125 9.12919 13.4375 9.11669 13.5291 9.11252Z" fill="#009B3A" stroke="black" stroke-width="0.0125"/>
<path d="M13.2167 9.16666L13.3833 8.84583L13.1583 9.12082L13.1542 9.19166L13.2167 9.16249" fill="#009B3A"/>
<path d="M13.2167 9.16666L13.3833 8.84583L13.1583 9.12082L13.1542 9.19166L13.2167 9.16249" stroke="black" stroke-width="0.0125"/>
<path d="M13.5291 9.12916C13.4041 9.16249 13.2208 9.20416 13.1124 9.24582C13.1541 9.11666 13.1999 8.91249 13.2333 8.78333C13.2208 8.89583 13.1958 9.04583 13.1999 9.14999C13.2958 9.15833 13.4291 9.13749 13.5249 9.12916" fill="#009B3A"/>
<path d="M13.5291 9.12916C13.4041 9.16249 13.2208 9.20416 13.1124 9.24582C13.1541 9.11666 13.1999 8.91249 13.2333 8.78333C13.2208 8.89583 13.1958 9.04583 13.1999 9.14999C13.2958 9.15833 13.4291 9.13749 13.5249 9.12916" stroke="black" stroke-width="0.0125"/>
<path d="M13.1833 9.2375L13.3999 8.92084L13.1249 9.175L13.1124 9.25834L13.1833 9.2375Z" fill="#009B3A" stroke="black" stroke-width="0.0125"/>
<path d="M13.4791 9.16669C13.3625 9.20419 13.1791 9.25419 13.0708 9.30419C13.1041 9.17086 13.1458 8.96669 13.1708 8.83752C13.1666 8.95002 13.15 9.10002 13.1583 9.20002C13.25 9.20419 13.3833 9.17502 13.4791 9.16669Z" fill="#009B3A" stroke="black" stroke-width="0.0125"/>
<path d="M13.1416 9.28335L13.3041 8.93335L13.0708 9.23335V9.31668L13.1416 9.28335Z" fill="#009B3A" stroke="black" stroke-width="0.0125"/>
<path d="M13.4333 9.21667C13.3166 9.24167 13.1291 9.27917 13.0166 9.31667C13.0624 9.19167 13.1208 8.98334 13.1583 8.85834C13.1416 8.97084 13.1124 9.125 13.1124 9.22084C13.2041 9.23334 13.3374 9.21667 13.4333 9.2125" fill="#009B3A"/>
<path d="M13.4333 9.21667C13.3166 9.24167 13.1291 9.27917 13.0166 9.31667C13.0624 9.19167 13.1208 8.98334 13.1583 8.85834C13.1416 8.97084 13.1124 9.125 13.1124 9.22084C13.2041 9.23334 13.3374 9.21667 13.4333 9.2125" stroke="black" stroke-width="0.0125"/>
<path d="M13.1 9.31669L13.3667 9.04169L13.0542 9.24585L13.0292 9.32085L13.1 9.31669Z" fill="#009B3A" stroke="black" stroke-width="0.0125"/>
<path d="M13.3833 9.2625C13.2625 9.27917 13.0792 9.29583 12.9667 9.325C13.0208 9.2 13.0917 9 13.1333 8.875C13.1083 8.9875 13.0708 9.1375 13.0625 9.2375C13.1542 9.25833 13.2875 9.25417 13.3833 9.2625Z" fill="#009B3A" stroke="black" stroke-width="0.0125"/>
<path d="M13.0499 9.2917L13.2291 8.94586L12.9833 9.23753V9.3167L13.0499 9.28753" fill="#009B3A"/>
<path d="M13.0499 9.2917L13.2291 8.94586L12.9833 9.23753V9.3167L13.0499 9.28753" stroke="black" stroke-width="0.0125"/>
<path d="M13.3958 9.2208C13.2708 9.27497 13.0625 9.3458 12.9417 9.41247C12.9833 9.2583 13.025 9.01664 13.05 8.86664C13.05 8.9958 13.0291 9.17497 13.0375 9.28747C13.1416 9.28747 13.2875 9.24164 13.3958 9.2208Z" fill="#009B3A" stroke="black" stroke-width="0.0125"/>
<path d="M13.025 9.39167L13.2416 9L12.9541 9.33333L12.9458 9.425L13.025 9.39167Z" fill="#009B3A" stroke="black" stroke-width="0.0125"/>
<path d="M13.3458 9.27082C13.2208 9.32915 13.0208 9.41248 12.9042 9.48332C12.9375 9.33332 12.9667 9.08748 12.9875 8.94165C12.9875 9.06665 12.9792 9.24582 12.9917 9.35832C13.0958 9.34582 13.2417 9.29582 13.3458 9.27082Z" fill="#009B3A" stroke="black" stroke-width="0.0125"/>
<path d="M12.9791 9.45001L13.1374 9.02917L12.8999 9.40417L12.9082 9.50001L12.9791 9.45001Z" fill="#009B3A" stroke="black" stroke-width="0.0125"/>
<path d="M13.2916 9.30419C13.1666 9.36669 12.9666 9.45002 12.85 9.52502C12.8791 9.37085 12.9083 9.12919 12.9291 8.97919C12.9291 9.10419 12.9208 9.28335 12.9375 9.39585C13.0416 9.38335 13.1875 9.32919 13.2916 9.30419Z" fill="#009B3A" stroke="black" stroke-width="0.0125"/>
<path d="M12.9457 9.49998L13.1874 9.12915L12.8791 9.43332L12.8666 9.52498L12.9457 9.49998Z" fill="#009B3A" stroke="black" stroke-width="0.0125"/>
<path d="M13.2791 9.28332C13.1666 9.37498 12.9875 9.50832 12.8875 9.60832C12.8875 9.44998 12.8666 9.21248 12.8541 9.06665C12.8791 9.18748 12.9083 9.35832 12.95 9.46248C13.05 9.42498 13.1791 9.33748 13.2833 9.28748" fill="#009B3A"/>
<path d="M13.2791 9.28332C13.1666 9.37498 12.9875 9.50832 12.8875 9.60832C12.8875 9.44998 12.8666 9.21248 12.8541 9.06665C12.8791 9.18748 12.9083 9.35832 12.95 9.46248C13.05 9.42498 13.1791 9.33748 13.2833 9.28748" stroke="black" stroke-width="0.0125"/>
<path d="M12.9582 9.52085L12.9832 9.07501L12.8666 9.50835L12.8999 9.59168L12.9582 9.52085Z" fill="#009B3A" stroke="black" stroke-width="0.0125"/>
<path d="M13.25 9.32502C13.1333 9.41669 12.9583 9.54585 12.8541 9.64585C12.8541 9.49169 12.8333 9.25002 12.8208 9.10419C12.85 9.22919 12.875 9.39585 12.9166 9.50002C13.0166 9.46669 13.1458 9.37502 13.25 9.32502Z" fill="#009B3A" stroke="black" stroke-width="0.0125"/>
<path d="M12.9292 9.59583L13.0417 9.15833L12.8458 9.55832L12.8583 9.64999L12.9292 9.59583Z" fill="#009B3A" stroke="black" stroke-width="0.0125"/>
<path d="M13.2333 9.33333C13.1291 9.44166 12.9583 9.59999 12.8624 9.70833C12.8458 9.55416 12.7999 9.30833 12.7708 9.15833C12.8124 9.28333 12.8583 9.45416 12.9124 9.55416C13.0083 9.50833 13.1374 9.40416 13.2333 9.33749" fill="#009B3A"/>
<path d="M13.2333 9.33333C13.1291 9.44166 12.9583 9.59999 12.8624 9.70833C12.8458 9.55416 12.7999 9.30833 12.7708 9.15833C12.8124 9.28333 12.8583 9.45416 12.9124 9.55416C13.0083 9.50833 13.1374 9.40416 13.2333 9.33749" stroke="black" stroke-width="0.0125"/>
<path d="M12.9291 9.65L12.9499 9.1875L12.8374 9.6375L12.8707 9.72083L12.9291 9.65Z" fill="#009B3A" stroke="black" stroke-width="0.0125"/>
<path d="M13.2 9.41667C13.0875 9.50833 12.9083 9.64583 12.8 9.75C12.8 9.59167 12.7708 9.34167 12.7583 9.1875C12.7875 9.3125 12.8208 9.49167 12.8625 9.6C12.9666 9.55833 13.1 9.47083 13.2 9.4125" fill="#009B3A"/>
<path d="M13.2 9.41667C13.0875 9.50833 12.9083 9.64583 12.8 9.75C12.8 9.59167 12.7708 9.34167 12.7583 9.1875C12.7875 9.3125 12.8208 9.49167 12.8625 9.6C12.9666 9.55833 13.1 9.47083 13.2 9.4125" stroke="black" stroke-width="0.0125"/>
<path d="M12.8958 9.70416L13.0542 9.26666L12.8125 9.65416L12.8208 9.75L12.8958 9.70416Z" fill="#009B3A" stroke="black" stroke-width="0.0125"/>
<path d="M13.2 9.41665C13.0958 9.52082 12.9375 9.68332 12.8458 9.79582C12.8291 9.63749 12.7833 9.38749 12.7583 9.23749C12.8 9.36249 12.8416 9.53749 12.8916 9.63749C12.9875 9.58749 13.1041 9.48332 13.2 9.41665Z" fill="#009B3A" stroke="black" stroke-width="0.0125"/>
<path d="M12.8999 9.725L12.8832 9.26666L12.8082 9.725L12.8499 9.80416L12.8999 9.725Z" fill="#009B3A" stroke="black" stroke-width="0.0125"/>
<path d="M13.1499 9.45002C13.0499 9.55836 12.8958 9.72086 12.8083 9.83752C12.7874 9.67086 12.7333 9.42919 12.7041 9.27502C12.7458 9.40002 12.7999 9.57502 12.8499 9.67502C12.9416 9.62502 13.0583 9.51669 13.1499 9.45002Z" fill="#009B3A" stroke="black" stroke-width="0.0125"/>
<path d="M12.875 9.7708L12.925 9.30414L12.7875 9.7458L12.8166 9.83747L12.875 9.7708Z" fill="#009B3A" stroke="black" stroke-width="0.0125"/>
<path d="M13.1249 9.46667C13.0416 9.58751 12.8958 9.75834 12.8166 9.88334C12.7833 9.72501 12.7124 9.48751 12.6708 9.34167C12.7249 9.45834 12.7874 9.62501 12.8458 9.72084C12.9333 9.66251 13.0416 9.54584 13.1291 9.47084" fill="#009B3A"/>
<path d="M13.1249 9.46667C13.0416 9.58751 12.8958 9.75834 12.8166 9.88334C12.7833 9.72501 12.7124 9.48751 12.6708 9.34167C12.7249 9.45834 12.7874 9.62501 12.8458 9.72084C12.9333 9.66251 13.0416 9.54584 13.1291 9.47084" stroke="black" stroke-width="0.0125"/>
<path d="M12.875 9.81666L12.8417 9.34583L12.7833 9.81249L12.825 9.89583L12.8708 9.81249" fill="#009B3A"/>
<path d="M12.875 9.81666L12.8417 9.34583L12.7833 9.81249L12.825 9.89583L12.8708 9.81249" stroke="black" stroke-width="0.0125"/>
<path d="M13.1208 9.49585C13.0375 9.62085 12.9 9.80001 12.8292 9.92918C12.7875 9.77085 12.7042 9.53335 12.6542 9.38751C12.7125 9.50418 12.7833 9.67085 12.85 9.76251C12.9333 9.70001 13.0375 9.57501 13.1208 9.49585Z" fill="#009B3A" stroke="black" stroke-width="0.0125"/>
<path d="M12.9 9.85835L12.95 9.38751L12.8167 9.82918L12.8417 9.92501L12.9 9.85835Z" fill="#009B3A" stroke="black" stroke-width="0.0125"/>
<path d="M13.1 9.54168C13.0291 9.67085 12.9125 9.87502 12.85 10.0125C12.7958 9.86252 12.6917 9.63752 12.6292 9.49585C12.7 9.60418 12.7833 9.75835 12.8583 9.84585C12.9375 9.77085 13.025 9.62918 13.1 9.53752" fill="#009B3A"/>
<path d="M13.1 9.54168C13.0291 9.67085 12.9125 9.87502 12.85 10.0125C12.7958 9.86252 12.6917 9.63752 12.6292 9.49585C12.7 9.60418 12.7833 9.75835 12.8583 9.84585C12.9375 9.77085 13.025 9.62918 13.1 9.53752" stroke="black" stroke-width="0.0125"/>
<path d="M12.8875 9.90001L12.7542 9.45001L12.7958 9.92085L12.8583 9.98751L12.8833 9.90001" fill="#009B3A"/>
<path d="M12.8875 9.90001L12.7542 9.45001L12.7958 9.92085L12.8583 9.98751L12.8833 9.90001" stroke="black" stroke-width="0.0125"/>
<path d="M13.0999 9.59165C13.0249 9.72499 12.8999 9.92499 12.8374 10.0625C12.7833 9.91249 12.6791 9.68749 12.6124 9.54999C12.6833 9.65832 12.7708 9.81249 12.8458 9.89582C12.9291 9.82082 13.0208 9.68332 13.0958 9.59165" fill="#009B3A"/>
<path d="M13.0999 9.59165C13.0249 9.72499 12.8999 9.92499 12.8374 10.0625C12.7833 9.91249 12.6791 9.68749 12.6124 9.54999C12.6833 9.65832 12.7708 9.81249 12.8458 9.89582C12.9291 9.82082 13.0208 9.68332 13.0958 9.59165" stroke="black" stroke-width="0.0125"/>
<path d="M12.8916 9.98335L12.8416 9.51251L12.7999 9.98335L12.8458 10.0667L12.8916 9.98335Z" fill="#009B3A" stroke="black" stroke-width="0.0125"/>
<path d="M13.1082 9.63333C13.0291 9.7625 12.8999 9.9625 12.8374 10.0958C12.7832 9.94583 12.6832 9.72083 12.6207 9.57916C12.6916 9.6875 12.7749 9.84583 12.8499 9.92916C12.9332 9.85833 13.0291 9.72083 13.1082 9.63333Z" fill="#009B3A" stroke="black" stroke-width="0.0125"/>
<path d="M12.8874 10.0208L12.7999 9.5625L12.7958 10.0292L12.8499 10.1042L12.8874 10.0208Z" fill="#009B3A" stroke="black" stroke-width="0.0125"/>
<path d="M13.075 9.69999C12.9917 9.82499 12.8542 10.0125 12.7833 10.1458C12.7375 9.99165 12.6458 9.75415 12.5917 9.61249C12.6542 9.72499 12.7333 9.88749 12.8 9.97915C12.8875 9.91249 12.9917 9.78332 13.075 9.69999Z" fill="#009B3A" stroke="black" stroke-width="0.0125"/>
<path d="M12.8458 10.0708L12.8875 9.59998L12.7583 10.0458L12.7875 10.1375L12.8458 10.0708Z" fill="#009B3A" stroke="black" stroke-width="0.0125"/>
<path d="M13.0792 9.70832C13.0083 9.84582 12.8875 10.0542 12.8292 10.1917C12.7708 10.0458 12.6625 9.82498 12.5917 9.69165C12.6667 9.79165 12.7583 9.94165 12.8333 10.025C12.9167 9.94582 13 9.80415 13.0792 9.71248" fill="#009B3A"/>
<path d="M13.0792 9.70832C13.0083 9.84582 12.8875 10.0542 12.8292 10.1917C12.7708 10.0458 12.6625 9.82498 12.5917 9.69165C12.6667 9.79165 12.7583 9.94165 12.8333 10.025C12.9167 9.94582 13 9.80415 13.0792 9.71248" stroke="black" stroke-width="0.0125"/>
<path d="M12.8333 10.1125L12.6875 9.67084L12.7417 10.1375L12.8042 10.2042L12.8292 10.1125" fill="#009B3A"/>
<path d="M12.8333 10.1125L12.6875 9.67084L12.7417 10.1375L12.8042 10.2042L12.8292 10.1125" stroke="black" stroke-width="0.0125"/>
<path d="M13.0583 9.74585C13.0083 9.89585 12.925 10.1209 12.8916 10.275C12.8083 10.1417 12.6625 9.95002 12.575 9.82918C12.6625 9.91668 12.7791 10.0459 12.8666 10.1084C12.9333 10.0125 13 9.85835 13.0583 9.74585Z" fill="#009B3A" stroke="black" stroke-width="0.0125"/>
<path d="M12.9582 10.1459L12.8041 9.71252L12.8707 10.1792L12.9332 10.2375L12.9582 10.1459Z" fill="#009B3A" stroke="black" stroke-width="0.0125"/>
<path d="M13.0583 9.79169C13.0083 9.94169 12.925 10.1709 12.8916 10.3209C12.8083 10.1875 12.6666 10 12.575 9.88335C12.6625 9.96669 12.7791 10.0917 12.8666 10.1584C12.9333 10.0625 13 9.90419 13.0583 9.79169Z" fill="#009B3A" stroke="black" stroke-width="0.0125"/>
<path d="M12.9583 10.2208L12.7583 9.81665L12.875 10.2666L12.9458 10.3167L12.9625 10.2208" fill="#009B3A"/>
<path d="M12.9583 10.2208L12.7583 9.81665L12.875 10.2666L12.9458 10.3167L12.9625 10.2208" stroke="black" stroke-width="0.0125"/>
<path d="M13.0416 9.82916C13.0125 9.98333 12.9583 10.225 12.9375 10.3792C12.8416 10.2583 12.675 10.0875 12.575 9.9875C12.6708 10.0583 12.8 10.1708 12.8958 10.2167C12.95 10.1125 12.9958 9.94583 13.0416 9.82916Z" fill="#009B3A" stroke="black" stroke-width="0.0125"/>
<path d="M12.9749 10.2833L12.8666 9.82916L12.8832 10.3L12.9416 10.3708L12.9749 10.2875" fill="#009B3A"/>
<path d="M12.9749 10.2833L12.8666 9.82916L12.8832 10.3L12.9416 10.3708L12.9749 10.2875" stroke="black" stroke-width="0.0125"/>
<path d="M13.0417 9.875C13.025 10.0375 12.9917 10.2833 12.9917 10.4375C12.8833 10.3333 12.7042 10.1875 12.5958 10.1C12.6958 10.1583 12.8333 10.25 12.9333 10.2833C12.975 10.175 13.0083 10 13.0417 9.87917" fill="#009B3A"/>
<path d="M13.0417 9.875C13.025 10.0375 12.9917 10.2833 12.9917 10.4375C12.8833 10.3333 12.7042 10.1875 12.5958 10.1C12.6958 10.1583 12.8333 10.25 12.9333 10.2833C12.975 10.175 13.0083 10 13.0417 9.87917" stroke="black" stroke-width="0.0125"/>
<path d="M12.9792 10.3166L12.6917 9.99164L12.9083 10.3875L12.9916 10.4125L12.9792 10.3166Z" fill="#009B3A" stroke="black" stroke-width="0.0125"/>
<path d="M13.05 9.93335C13.0333 10.0917 13 10.3375 12.9958 10.4917C12.8875 10.3875 12.7083 10.2417 12.6 10.15C12.7041 10.2084 12.8416 10.3042 12.9375 10.3375C12.9833 10.2292 13.0125 10.0542 13.05 9.93335Z" fill="#009B3A" stroke="black" stroke-width="0.0125"/>
<path d="M13.0125 10.3917L12.7916 10L12.9291 10.4458L13 10.4917L13.0125 10.3958" fill="#009B3A"/>
<path d="M13.0125 10.3917L12.7916 10L12.9291 10.4458L13 10.4917L13.0125 10.3958" stroke="black" stroke-width="0.0125"/>
<path d="M13.0624 10C13.0499 10.1583 13.0291 10.4042 13.0291 10.5625C12.8986 10.4498 12.7623 10.3441 12.6207 10.2458C12.7291 10.2958 12.8707 10.3833 12.9666 10.4125C13.0082 10.3 13.0332 10.1208 13.0624 9.99585" fill="#009B3A"/>
<path d="M13.0624 10C13.0499 10.1583 13.0291 10.4042 13.0291 10.5625C12.8986 10.4498 12.7623 10.3441 12.6207 10.2458C12.7291 10.2958 12.8707 10.3833 12.9666 10.4125C13.0082 10.3 13.0332 10.1208 13.0624 9.99585" stroke="black" stroke-width="0.0125"/>
<path d="M13.0416 10.4667L12.7666 10.1208L12.9666 10.5292L13.0416 10.5625V10.4667Z" fill="#009B3A" stroke="black" stroke-width="0.0125"/>
<path d="M13.0667 10.075C13.0542 10.2334 13.0333 10.4792 13.0375 10.6375C12.925 10.5375 12.7417 10.4042 12.625 10.3209C12.7333 10.375 12.875 10.4584 12.975 10.4875C13.0167 10.375 13.0375 10.1959 13.0667 10.0709" fill="#009B3A"/>
<path d="M13.0667 10.075C13.0542 10.2334 13.0333 10.4792 13.0375 10.6375C12.925 10.5375 12.7417 10.4042 12.625 10.3209C12.7333 10.375 12.875 10.4584 12.975 10.4875C13.0167 10.375 13.0375 10.1959 13.0667 10.0709" stroke="black" stroke-width="0.0125"/>
<path d="M13.0625 10.525L12.875 10.1083L12.9792 10.5667L13.0458 10.6208L13.0625 10.525Z" fill="#009B3A" stroke="black" stroke-width="0.0125"/>
<path d="M13.0708 10.1208C13.0791 10.2833 13.0791 10.5292 13.0958 10.6875C12.9553 10.5949 12.8107 10.5087 12.6625 10.4292C12.7708 10.4667 12.9166 10.5292 13.0208 10.5459C13.05 10.425 13.0541 10.25 13.0708 10.1208Z" fill="#009B3A" stroke="black" stroke-width="0.0125"/>
<path d="M13.0958 10.5083L12.75 10.2708L13.0417 10.5958L13.125 10.6L13.0958 10.5083Z" fill="#009B3A" stroke="black" stroke-width="0.0125"/>
<path d="M13.0833 10.1375C13.0958 10.3 13.1125 10.5458 13.1375 10.7C13.0125 10.6208 12.8125 10.5208 12.6875 10.4583C12.8 10.4917 12.95 10.55 13.0542 10.5625C13.075 10.4417 13.0708 10.2667 13.0833 10.1375Z" fill="#009B3A" stroke="black" stroke-width="0.0125"/>
<path d="M13.1375 10.5958L12.8458 10.2625L13.0667 10.6625L13.1458 10.6917L13.1333 10.5958" fill="#009B3A"/>
<path d="M13.1375 10.5958L12.8458 10.2625L13.0667 10.6625L13.1458 10.6917L13.1333 10.5958" stroke="black" stroke-width="0.0125"/>
<path d="M13.1083 10.2C13.1291 10.3583 13.15 10.6042 13.1875 10.7583C13.0625 10.6875 12.8541 10.6 12.7291 10.5458C12.8416 10.5708 12.9958 10.6208 13.0958 10.6292C13.1125 10.5042 13.1041 10.3292 13.1083 10.2Z" fill="#009B3A" stroke="black" stroke-width="0.0125"/>
<path d="M13.1917 10.6542L12.8458 10.4083L13.1375 10.7417L13.2208 10.7458L13.1917 10.6542Z" fill="#009B3A" stroke="black" stroke-width="0.0125"/>
<path d="M13.1208 10.2667C13.15 10.425 13.1916 10.6708 13.2333 10.8208C13.1041 10.7583 12.8916 10.6917 12.7625 10.65C12.8791 10.6625 13.0333 10.7 13.1375 10.6917C13.1458 10.5708 13.125 10.4 13.1208 10.2667Z" fill="#009B3A" stroke="black" stroke-width="0.0125"/>
<path d="M13.2333 10.7042L12.9417 10.3625L13.1583 10.7667L13.2416 10.8L13.2333 10.7042Z" fill="#009B3A" stroke="black" stroke-width="0.0125"/>
<path d="M13.1375 10.3083C13.1833 10.4625 13.2458 10.7042 13.3041 10.85C13.1666 10.8083 12.9541 10.7667 12.8208 10.7417C12.9375 10.7417 13.0916 10.7542 13.1958 10.7375C13.1958 10.6125 13.1541 10.4417 13.1375 10.3125" fill="#009B3A"/>
<path d="M13.1375 10.3083C13.1833 10.4625 13.2458 10.7042 13.3041 10.85C13.1666 10.8083 12.9541 10.7667 12.8208 10.7417C12.9375 10.7417 13.0916 10.7542 13.1958 10.7375C13.1958 10.6125 13.1541 10.4417 13.1375 10.3125" stroke="black" stroke-width="0.0125"/>
<path d="M13.25 10.7042L12.8458 10.6208L13.225 10.8083L13.3042 10.7792L13.2458 10.7042" fill="#009B3A"/>
<path d="M13.25 10.7042L12.8458 10.6208L13.225 10.8083L13.3042 10.7792L13.2458 10.7042" stroke="black" stroke-width="0.0125"/>
<path d="M13.1667 10.3583C13.2083 10.5125 13.2708 10.75 13.325 10.8958C13.1917 10.8542 12.9792 10.8125 12.8458 10.7875C12.9625 10.7875 13.1167 10.8 13.2208 10.7875C13.2208 10.6625 13.1792 10.4875 13.1667 10.3583Z" fill="#009B3A" stroke="black" stroke-width="0.0125"/>
<path d="M13.3124 10.7458L12.9291 10.5583L13.2707 10.8375L13.3541 10.8292L13.3124 10.7458Z" fill="#009B3A" stroke="black" stroke-width="0.0125"/>
<path d="M13.1458 10.3834C13.2208 10.525 13.3333 10.7459 13.4166 10.8709C13.2749 10.8625 13.0583 10.8709 12.9249 10.8709C13.0374 10.85 13.1916 10.8292 13.2874 10.7875C13.2583 10.6667 13.1874 10.5084 13.1458 10.3834Z" fill="#009B3A" stroke="black" stroke-width="0.0125"/>
<path d="M13.375 10.7875L12.975 10.6791L13.35 10.8875L13.425 10.8666L13.3708 10.7833" fill="#009B3A"/>
<path d="M13.375 10.7875L12.975 10.6791L13.35 10.8875L13.425 10.8666L13.3708 10.7833" stroke="black" stroke-width="0.0125"/>
<path d="M13.1833 10.4459C13.2625 10.5834 13.375 10.8042 13.4625 10.9292C13.3208 10.9209 13.1042 10.9292 12.9708 10.9375C13.0792 10.9084 13.2375 10.8875 13.3292 10.8459C13.3042 10.725 13.2292 10.5667 13.1875 10.4459" fill="#009B3A"/>
<path d="M13.1833 10.4459C13.2625 10.5834 13.375 10.8042 13.4625 10.9292C13.3208 10.9209 13.1042 10.9292 12.9708 10.9375C13.0792 10.9084 13.2375 10.8875 13.3292 10.8459C13.3042 10.725 13.2292 10.5667 13.1875 10.4459" stroke="black" stroke-width="0.0125"/>
<path d="M13.4208 10.8208L13.0499 10.6L13.3749 10.9083H13.4583L13.4208 10.8208Z" fill="#009B3A" stroke="black" stroke-width="0.0125"/>
<path d="M13.2166 10.4792C13.3041 10.6084 13.4374 10.8125 13.5333 10.9334C13.3708 10.9464 13.2093 10.9701 13.0499 11.0042C13.1583 10.9625 13.3083 10.9209 13.3999 10.8667C13.3583 10.75 13.2708 10.5959 13.2166 10.4792Z" fill="#009B3A" stroke="black" stroke-width="0.0125"/>
<path d="M13.4499 10.8541L13.0499 10.8416L13.4458 10.9625L13.5166 10.9166L13.4499 10.8541ZM13.6833 8.91247L13.9708 8.86664L13.6833 8.8708L13.6333 8.8958L13.6833 8.91247Z" fill="#009B3A" stroke="black" stroke-width="0.0125"/>
<path d="M13.8416 8.97502C13.7583 8.95002 13.6333 8.90835 13.5458 8.89168L13.8541 8.74585C13.7916 8.78752 13.6958 8.83752 13.6458 8.87918C13.6958 8.91252 13.7833 8.94585 13.8416 8.97502Z" fill="#009B3A" stroke="black" stroke-width="0.0125"/>
<path d="M13.6666 8.92083L13.9499 8.84583L13.6582 8.88332L13.6166 8.91249L13.6707 8.92083" fill="#009B3A"/>
<path d="M13.6666 8.92083L13.9499 8.84583L13.6582 8.88332L13.6166 8.91249L13.6707 8.92083" stroke="black" stroke-width="0.0125"/>
<path d="M13.8541 8.99585C13.7541 8.98335 13.6041 8.96669 13.5083 8.96669C13.5833 8.90002 13.6833 8.79585 13.7458 8.72919C13.7041 8.79169 13.6375 8.87085 13.6083 8.92919C13.675 8.95835 13.7791 8.97502 13.8541 8.99585Z" fill="#009B3A" stroke="black" stroke-width="0.0125"/>
<path d="M13.5666 8.94169L13.8583 8.90836L13.5749 8.90002L13.5208 8.92502L13.5624 8.94169" fill="#009B3A"/>
<path d="M13.5666 8.94169L13.8583 8.90836L13.5749 8.90002L13.5208 8.92502L13.5624 8.94169" stroke="black" stroke-width="0.0125"/>
<path d="M13.7792 9.00419L13.4667 8.95002L13.7542 8.79169C13.6958 8.83335 13.6125 8.89169 13.5708 8.93335C13.625 8.95835 13.7167 8.98335 13.7792 9.00419Z" fill="#009B3A" stroke="black" stroke-width="0.0125"/>
<path d="M13.5416 8.94166L13.7958 8.82916L13.5166 8.90416L13.4833 8.9375H13.5416" fill="#009B3A"/>
<path d="M13.5416 8.94166L13.7958 8.82916L13.5166 8.90416L13.4833 8.9375H13.5416" stroke="black" stroke-width="0.0125"/>
<path d="M13.7708 9.0375C13.7 9.00834 13.5833 8.95417 13.5125 8.93334L13.6958 8.73334C13.6625 8.7875 13.6125 8.85834 13.5875 8.91667C13.6375 8.95834 13.7125 9 13.7708 9.0375Z" fill="#009B3A" stroke="black" stroke-width="0.0125"/>
<path d="M13.5541 8.95833L13.7541 8.875L13.5375 8.9L13.5125 8.94167L13.5541 8.95833ZM13.3875 10.8167H12.9791L13.3958 10.9208L13.4625 10.8792L13.3875 10.8167Z" fill="#009B3A" stroke="black" stroke-width="0.0125"/>
<path d="M13.4624 10.8417L13.0458 10.7458L13.4458 10.9417L13.5291 10.9167L13.4624 10.8417Z" fill="#009B3A" stroke="black" stroke-width="0.0125"/>
<path d="M13.5332 10.8708L13.1166 10.85L13.5332 10.975L13.6041 10.9333L13.5332 10.8708Z" fill="#009B3A" stroke="black" stroke-width="0.0125"/>
<path d="M13.2708 10.5792C13.3749 10.6958 13.5374 10.8875 13.6499 10.9917C13.5124 11.0125 13.3041 11.0667 13.1749 11.1042C13.2749 11.0542 13.4249 10.9958 13.5083 10.9375C13.4499 10.8292 13.3416 10.6875 13.2708 10.5792Z" fill="#009B3A" stroke="black" stroke-width="0.0125"/>
<path d="M13.5874 10.8916L13.1708 10.7542L13.5624 10.9875L13.6458 10.9708L13.5874 10.8875" fill="#009B3A"/>
<path d="M13.5874 10.8916L13.1708 10.7542L13.5624 10.9875L13.6458 10.9708L13.5874 10.8875" stroke="black" stroke-width="0.0125"/>
<path d="M13.3083 10.6042C13.4249 10.7125 13.5999 10.8834 13.7249 10.9792C13.5916 11.0167 13.3916 11.0959 13.2666 11.1459C13.3624 11.0875 13.4999 11.0125 13.5749 10.9375C13.5083 10.8375 13.3874 10.7084 13.3083 10.6042Z" fill="#009B3A" stroke="black" stroke-width="0.0125"/>
<path d="M13.625 10.9167L13.2291 10.9959L13.6458 11.0209L13.7041 10.9667L13.6208 10.9167" fill="#009B3A"/>
<path d="M13.625 10.9167L13.2291 10.9959L13.6458 11.0209L13.7041 10.9667L13.6208 10.9167" stroke="black" stroke-width="0.0125"/>
<path d="M13.5416 10.8917L13.1333 10.925L13.5541 10.9958L13.6208 10.9458L13.5375 10.8917" fill="#009B3A"/>
<path d="M13.5416 10.8917L13.1333 10.925L13.5541 10.9958L13.6208 10.9458L13.5375 10.8917" stroke="black" stroke-width="0.0125"/>
<path d="M13.6166 10.9167L13.1917 10.8458L13.6083 11.0125L13.6833 10.9833L13.6166 10.9125V10.9167Z" fill="#009B3A" stroke="black" stroke-width="0.0125"/>
<path d="M13.6874 10.9375L13.2708 10.9458L13.6958 11.0417L13.7624 10.9958L13.6874 10.9375Z" fill="#009B3A" stroke="black" stroke-width="0.0125"/>
<path d="M13.4042 10.6666C13.5208 10.775 13.6958 10.95 13.8167 11.05C13.6792 11.0791 13.4708 11.15 13.3458 11.1916C13.4458 11.1375 13.5875 11.0708 13.6667 11.0041C13.6 10.9 13.4833 10.7666 13.4042 10.6625V10.6666Z" fill="#009B3A" stroke="black" stroke-width="0.0125"/>
<path d="M13.7458 10.9542L13.3208 10.8458L13.7291 11.0542L13.8083 11.0292L13.7458 10.9542Z" fill="#009B3A" stroke="black" stroke-width="0.0125"/>
<path d="M13.4417 10.6875C13.5667 10.7875 13.7583 10.9458 13.8875 11.0292C13.7541 11.075 13.5625 11.175 13.4458 11.2333C13.5375 11.1625 13.6667 11.0792 13.7375 11.0042C13.6625 10.9042 13.5292 10.7833 13.4458 10.6875H13.4417Z" fill="#009B3A" stroke="black" stroke-width="0.0125"/>
<path d="M13.7833 10.975L13.3958 11.0833H13.8124L13.8666 11.0208L13.7833 10.9791V10.975Z" fill="#009B3A" stroke="black" stroke-width="0.0125"/>
<path d="M14.3166 10.3959L13.9999 10.175L13.6832 10.3959L13.8041 10.0459L13.5249 9.82919H13.8832L13.9999 9.47919L14.1166 9.82919H14.4749L14.1957 10.0459L14.3166 10.3959Z" fill="#FEDF00" stroke="black" stroke-width="0.05"/>
</g>
<defs>
<clipPath id="clip0_80_970">
<rect width="26.6667" height="20" fill="white" transform="translate(0.666626)"/>
</clipPath>
</defs>
</svg>
