<svg width="27" height="20" viewBox="0 0 27 20" fill="none" xmlns="http://www.w3.org/2000/svg">
<g clip-path="url(#clip0_80_1124)">
<path d="M0.166687 0H26.8334V20H0.166687V0Z" fill="white"/>
<path d="M11.25 2.22083H26.8334V4.44583H11.25V2.22083ZM11.25 6.66666H26.8334V8.88749H11.25V6.66666ZM0.166687 11.1125H26.8334V13.3333H0.166687V11.1125ZM0.166687 15.5542H26.8334V17.7792H0.166687V15.5542Z" fill="#0038A8"/>
<path d="M5.46931 6.64059L5.83713 7.18982C4.32574 8.28358 5.24846 8.93037 4.1774 9.28048C4.84356 8.63036 4.07251 8.57557 4.63378 7.22054" fill="#FCD116"/>
<path d="M5.46931 6.64059L5.83713 7.18982C4.32574 8.28358 5.24846 8.93037 4.1774 9.28048C4.84356 8.63036 4.07251 8.57557 4.63378 7.22054" stroke="black" stroke-width="0.22" stroke-miterlimit="20" stroke-linecap="square"/>
<path d="M5.20632 6.79625C4.37244 8.17064 4.91933 8.92634 4.17733 9.28045" stroke="black" stroke-width="0.22" stroke-miterlimit="20"/>
<path d="M5.72088 5.55414H6.45421L5.72088 9.58747L4.98755 5.55414H5.72088V9.58747V5.55414Z" fill="#FCD116"/>
<path d="M5.72088 5.55414H6.45421L5.72088 9.58747M5.72088 5.55414H4.98755L5.72088 9.58747M5.72088 5.55414V9.58747" stroke="black" stroke-width="0.22" stroke-miterlimit="20"/>
<path d="M4.77468 6.14449L4.6464 6.79294C2.80429 6.49763 2.9994 7.60744 1.99448 7.09764C2.92523 7.10899 2.41876 6.52503 3.77378 5.96376" fill="#FCD116"/>
<path d="M4.77468 6.14449L4.6464 6.79294C2.80429 6.49763 2.9994 7.60744 1.99448 7.09764C2.92523 7.10899 2.41876 6.52503 3.77378 5.96376" stroke="black" stroke-width="0.22" stroke-miterlimit="20" stroke-linecap="square"/>
<path d="M4.47874 6.06863C2.91726 6.45083 2.7696 7.37189 1.99454 7.09762" stroke="black" stroke-width="0.22" stroke-miterlimit="20"/>
<path d="M5.72081 5.55413L6.23936 6.07267L2.86882 8.40612L5.20227 5.03558L5.72081 5.55413L2.86882 8.40612L5.72081 5.55413Z" fill="#FCD116"/>
<path d="M5.72081 5.55413L6.23936 6.07267L2.86882 8.40612M5.72081 5.55413L5.20227 5.03558L2.86882 8.40612M5.72081 5.55413L2.86882 8.40612" stroke="black" stroke-width="0.22" stroke-miterlimit="20"/>
<path d="M4.63437 5.30263L4.08514 5.67044C2.99138 4.15906 2.34459 5.08178 1.99449 4.01071C2.6446 4.67688 2.6994 3.90582 4.05442 4.46709" fill="#FCD116"/>
<path d="M4.63437 5.30263L4.08514 5.67044C2.99138 4.15906 2.34459 5.08178 1.99449 4.01071C2.6446 4.67688 2.6994 3.90582 4.05442 4.46709" stroke="black" stroke-width="0.22" stroke-miterlimit="20" stroke-linecap="square"/>
<path d="M4.47878 5.0397C3.10438 4.20582 2.34869 4.7527 1.99457 4.0107" stroke="black" stroke-width="0.22" stroke-miterlimit="20"/>
<path d="M5.72083 5.55419V6.28753L1.6875 5.55419L5.72083 4.82086V5.55419H1.6875H5.72083Z" fill="#FCD116"/>
<path d="M5.72083 5.55419V6.28753L1.6875 5.55419M5.72083 5.55419V4.82086L1.6875 5.55419M5.72083 5.55419H1.6875" stroke="black" stroke-width="0.22" stroke-miterlimit="20"/>
<path d="M5.13054 4.60806L4.48209 4.47978C4.7774 2.63766 3.66758 2.83277 4.17738 1.82786C4.16603 2.7586 4.75 2.25213 5.31127 3.60715" fill="#FCD116"/>
<path d="M5.13054 4.60806L4.48209 4.47978C4.7774 2.63766 3.66758 2.83277 4.17738 1.82786C4.16603 2.7586 4.75 2.25213 5.31127 3.60715" stroke="black" stroke-width="0.22" stroke-miterlimit="20" stroke-linecap="square"/>
<path d="M5.20628 4.31205C4.82407 2.75057 3.90301 2.60292 4.17728 1.82785" stroke="black" stroke-width="0.22" stroke-miterlimit="20"/>
<path d="M5.72084 5.55413L5.20229 6.07267L2.86884 2.70213L6.23938 5.03558L5.72084 5.55413L2.86884 2.70213L5.72084 5.55413Z" fill="#FCD116"/>
<path d="M5.72084 5.55413L5.20229 6.07267L2.86884 2.70213M5.72084 5.55413L6.23938 5.03558L2.86884 2.70213M5.72084 5.55413L2.86884 2.70213" stroke="black" stroke-width="0.22" stroke-miterlimit="20"/>
<path d="M5.97246 4.46775L5.60464 3.91852C7.11603 2.82475 6.19331 2.17797 7.26437 1.82786C6.59821 2.47797 7.36927 2.53277 6.808 3.88779" fill="#FCD116"/>
<path d="M5.97246 4.46775L5.60464 3.91852C7.11603 2.82475 6.19331 2.17797 7.26437 1.82786C6.59821 2.47797 7.36927 2.53277 6.808 3.88779" stroke="black" stroke-width="0.22" stroke-miterlimit="20" stroke-linecap="square"/>
<path d="M6.23545 4.31209C7.06933 2.9377 6.52245 2.182 7.26444 1.82788" stroke="black" stroke-width="0.22" stroke-miterlimit="20"/>
<path d="M5.72089 5.5542H4.98756L5.72089 1.52087L6.45422 5.5542H5.72089V1.52087V5.5542Z" fill="#FCD116"/>
<path d="M5.72089 5.5542H4.98756L5.72089 1.52087M5.72089 5.5542H6.45422L5.72089 1.52087M5.72089 5.5542V1.52087" stroke="black" stroke-width="0.22" stroke-miterlimit="20"/>
<path d="M6.66697 4.96385L6.79525 4.3154C8.63736 4.61071 8.44225 3.5009 9.44717 4.01069C8.51642 3.99934 9.02289 4.58331 7.66787 5.14458" fill="#FCD116"/>
<path d="M6.66697 4.96385L6.79525 4.3154C8.63736 4.61071 8.44225 3.5009 9.44717 4.01069C8.51642 3.99934 9.02289 4.58331 7.66787 5.14458" stroke="black" stroke-width="0.22" stroke-miterlimit="20" stroke-linecap="square"/>
<path d="M6.96291 5.03971C8.52439 4.65751 8.67205 3.73645 9.44712 4.01072" stroke="black" stroke-width="0.22" stroke-miterlimit="20"/>
<path d="M5.72084 5.55421L5.20229 5.03567L8.57283 2.70222L6.23938 6.07275L5.72084 5.55421L8.57283 2.70222L5.72084 5.55421Z" fill="#FCD116"/>
<path d="M5.72084 5.55421L5.20229 5.03567L8.57283 2.70222M5.72084 5.55421L6.23938 6.07275L8.57283 2.70222M5.72084 5.55421L8.57283 2.70222" stroke="black" stroke-width="0.22" stroke-miterlimit="20"/>
<path d="M6.80728 5.80571L7.35651 5.43789C8.45027 6.94928 9.09706 6.02656 9.44716 7.09762C8.79705 6.43146 8.74225 7.20252 7.38723 6.64125" fill="#FCD116"/>
<path d="M6.80728 5.80571L7.35651 5.43789C8.45027 6.94928 9.09706 6.02656 9.44716 7.09762C8.79705 6.43146 8.74225 7.20252 7.38723 6.64125" stroke="black" stroke-width="0.22" stroke-miterlimit="20" stroke-linecap="square"/>
<path d="M6.96287 6.06864C8.33727 6.90252 9.09296 6.35564 9.44708 7.09763" stroke="black" stroke-width="0.22" stroke-miterlimit="20"/>
<path d="M5.72083 5.55414V4.82081L9.75415 5.55414L5.72083 6.28748V5.55414H9.75415H5.72083Z" fill="#FCD116"/>
<path d="M5.72083 5.55414V4.82081L9.75415 5.55414M5.72083 5.55414V6.28748L9.75415 5.55414M5.72083 5.55414H9.75415" stroke="black" stroke-width="0.22" stroke-miterlimit="20"/>
<path d="M6.31111 6.50028L6.95956 6.62856C6.66425 8.47068 7.77407 8.27556 7.26427 9.28048C7.27562 8.34973 6.69165 8.85621 6.13039 7.50118" fill="#FCD116"/>
<path d="M6.31111 6.50028L6.95956 6.62856C6.66425 8.47068 7.77407 8.27556 7.26427 9.28048C7.27562 8.34973 6.69165 8.85621 6.13039 7.50118" stroke="black" stroke-width="0.22" stroke-miterlimit="20" stroke-linecap="square"/>
<path d="M6.23537 6.79628C6.61758 8.35777 7.53864 8.50542 7.26437 9.28049" stroke="black" stroke-width="0.22" stroke-miterlimit="20"/>
<path d="M5.72081 5.55421L6.23936 5.03567L8.57281 8.4062L5.20227 6.07275L5.72081 5.55421L8.57281 8.4062L5.72081 5.55421Z" fill="#FCD116"/>
<path d="M5.72081 5.55421L6.23936 5.03567L8.57281 8.4062M5.72081 5.55421L5.20227 6.07275L8.57281 8.4062M5.72081 5.55421L8.57281 8.4062" stroke="black" stroke-width="0.22" stroke-miterlimit="20"/>
<path d="M5.72079 6.8986C6.4633 6.8986 7.06523 6.29667 7.06523 5.55416C7.06523 4.81164 6.4633 4.20972 5.72079 4.20972C4.97827 4.20972 4.37634 4.81164 4.37634 5.55416C4.37634 6.29667 4.97827 6.8986 5.72079 6.8986Z" fill="#FCD116" stroke="black" stroke-width="0.22" stroke-miterlimit="20"/>
<path d="M6.71077 5.01641C6.62521 5.11419 6.57632 4.94308 6.27077 4.94308C5.96522 4.94308 5.91633 5.12641 5.86744 5.08975C5.81855 5.05308 6.12411 4.83308 6.22188 4.82086C6.31966 4.80864 6.60077 4.90641 6.71077 5.01641ZM6.35632 5.12641C6.44188 5.19974 6.36855 5.35863 6.28299 5.35863C6.19744 5.35863 6.03855 5.21197 6.11188 5.11419" fill="black"/>
<path d="M5.953 5.23642C5.96523 5.08975 6.08745 5.06531 6.283 5.06531C6.47855 5.06531 6.56411 5.21197 6.63744 5.24864C6.55188 5.24864 6.47855 5.12642 6.283 5.12642C6.08745 5.12642 6.08745 5.12642 5.953 5.24864M5.98967 5.27308C6.03856 5.19975 6.09967 5.34642 6.23411 5.34642C6.36855 5.34642 6.44189 5.30975 6.52744 5.24864C6.613 5.18753 6.40522 5.3953 6.27078 5.3953C6.13633 5.3953 5.953 5.32197 5.98967 5.27308Z" fill="black"/>
<path d="M6.40522 5.34642C6.5641 5.26086 6.46633 5.13864 6.40522 5.1142C6.42966 5.13864 6.52744 5.26086 6.40522 5.34642ZM5.72078 6.07974C5.79411 6.07974 5.81856 6.0553 5.91633 6.0553C6.01411 6.0553 6.24633 6.18974 6.38077 6.14085C6.09966 6.25085 6.20966 6.17752 5.72078 6.17752H5.65967M6.42966 6.25085C6.38077 6.1653 6.39299 6.18974 6.29522 6.0553C6.39299 6.12863 6.41744 6.1653 6.42966 6.25085ZM5.72078 6.37307C6.02633 6.37307 5.97744 6.31196 6.38077 6.14085C6.08744 6.17752 6.02633 6.27529 5.72078 6.27529H5.65967M5.72078 5.92085C5.80633 5.92085 5.83078 5.85974 5.92855 5.85974C6.02633 5.85974 6.16077 5.89641 6.22188 5.9453C6.23411 5.95752 6.18522 5.84752 6.08744 5.8353C5.98966 5.82308 6.02633 5.66419 5.91633 5.63975C5.91633 5.68863 5.953 5.67641 5.96522 5.74975C5.96522 5.81086 5.85522 5.81086 5.83078 5.74975C5.85522 5.84752 5.78189 5.84752 5.72078 5.84752" fill="black"/>
<path d="M4.73089 5.01641C4.81644 5.11419 4.86533 4.94308 5.17088 4.94308C5.47643 4.94308 5.52532 5.12641 5.57421 5.08975C5.6231 5.05308 5.31755 4.83308 5.21977 4.82086C5.12199 4.80864 4.84088 4.90641 4.73089 5.01641ZM5.08533 5.12641C4.99977 5.19974 5.0731 5.35863 5.15866 5.35863C5.24421 5.35863 5.4031 5.21197 5.32977 5.11419" fill="black"/>
<path d="M5.48865 5.23642C5.47643 5.08975 5.3542 5.06531 5.15865 5.06531C4.9631 5.06531 4.87754 5.21197 4.80421 5.24864C4.88977 5.24864 4.9631 5.12642 5.15865 5.12642C5.3542 5.12642 5.3542 5.12642 5.48865 5.24864M5.45198 5.27308C5.40309 5.19975 5.34198 5.34642 5.20754 5.34642C5.0731 5.34642 4.99976 5.30975 4.91421 5.24864C4.82866 5.18753 5.03643 5.3953 5.17087 5.3953C5.30532 5.3953 5.48865 5.32197 5.45198 5.27308Z" fill="black"/>
<path d="M5.03644 5.34642C4.87755 5.26086 4.97532 5.13864 5.03644 5.1142C5.01199 5.13864 4.91421 5.26086 5.03644 5.34642ZM5.72087 6.07974C5.64754 6.07974 5.6231 6.0553 5.52532 6.0553C5.42754 6.0553 5.19532 6.18974 5.06088 6.14085C5.34199 6.25085 5.23199 6.17752 5.72087 6.17752H5.78198M5.01199 6.25085C5.06088 6.1653 5.04866 6.18974 5.14643 6.0553C5.04866 6.12863 5.02421 6.1653 5.01199 6.25085ZM5.72087 6.37307C5.41532 6.37307 5.46421 6.31196 5.06088 6.14085C5.35421 6.17752 5.41532 6.27529 5.72087 6.27529H5.78198M5.72087 5.92085C5.63532 5.92085 5.61087 5.85974 5.5131 5.85974C5.41532 5.85974 5.28088 5.89641 5.21977 5.9453C5.20754 5.95752 5.25643 5.84752 5.35421 5.8353C5.45199 5.82308 5.41532 5.66419 5.52532 5.63975C5.52532 5.68863 5.48865 5.67641 5.47643 5.74975C5.47643 5.81086 5.58643 5.81086 5.61087 5.74975C5.58643 5.84752 5.65976 5.84752 5.72087 5.84752" fill="black"/>
<path d="M5.72085 6.48309C5.65974 6.48309 5.50086 6.51976 5.72085 6.51976C5.94085 6.51976 5.78197 6.48309 5.72085 6.48309Z" fill="black"/>
</g>
<defs>
<clipPath id="clip0_80_1124">
<rect width="26.6667" height="20" fill="white" transform="translate(0.166687)"/>
</clipPath>
</defs>
</svg>
