<svg width="27" height="20" viewBox="0 0 27 20" fill="none" xmlns="http://www.w3.org/2000/svg">
<g clip-path="url(#clip0_80_1177)">
<path fill-rule="evenodd" clip-rule="evenodd" d="M0.166748 0H38.1668V1.53908H0.166748V0ZM0.166748 3.07812H38.1668V4.61721H0.166748V3.07812ZM0.166748 6.15233H38.1668V7.69529H0.166748V6.15233ZM0.166748 9.23046H38.1668V10.7695H0.166748V9.23046ZM0.166748 12.3086H38.1668V13.8477H0.166748V12.3086ZM0.166748 15.3828H38.1668V16.9219H0.166748V15.3828ZM0.166748 18.4609H38.1668V20H0.166748V18.4609Z" fill="#BD3D44"/>
<path fill-rule="evenodd" clip-rule="evenodd" d="M0.166748 1.53906H38.1668V3.0781H0.166748V1.53906ZM0.166748 4.61715H38.1668V6.15231H0.166748V4.61715ZM0.166748 7.6914H38.1668V9.23044H0.166748V7.6914ZM0.166748 10.7695H38.1668V12.3086H0.166748V10.7695ZM0.166748 13.8476H38.1668V15.3867H0.166748V13.8476ZM0.166748 16.9219H38.1668V18.4609H0.166748V16.9219Z" fill="white"/>
<path fill-rule="evenodd" clip-rule="evenodd" d="M0.166748 0H15.366V10.7695H0.166748V0Z" fill="#192F5D"/>
<path fill-rule="evenodd" clip-rule="evenodd" d="M1.43235 0.460938L1.57298 0.886646H2.01831L1.65889 1.1484L1.79564 1.57806L1.43235 1.31244L1.07298 1.57415L1.20969 1.1484L0.846436 0.886646H1.29956L1.43235 0.460938ZM3.96752 0.460938L4.10423 0.886646H4.55344L4.19014 1.1484L4.32689 1.57806L3.96752 1.31244L3.60423 1.57415L3.74094 1.1484L3.38156 0.886646H3.82689L3.96752 0.460938ZM6.49877 0.460938L6.63939 0.886687H7.08081L6.72144 1.14844L6.8581 1.5781L6.49485 1.31248L6.13548 1.57419L6.27219 1.14844L5.90889 0.886687H6.35814L6.49877 0.460938ZM9.03394 0.460938L9.1706 0.886687H9.61985L9.25656 1.14844L9.39719 1.5781L9.03389 1.31248L8.67064 1.57419L8.81127 1.14844L8.44798 0.886687H8.89331L9.03394 0.460938ZM11.5652 0.460938L11.7058 0.886687H12.1511L11.7917 1.14844L11.9284 1.5781L11.5651 1.31248L11.2058 1.57419L11.3425 1.14844L10.9831 0.886687H11.4284L11.5652 0.460938ZM14.1003 0.460938L14.237 0.886687H14.6863L14.323 1.14844L14.4636 1.5781L14.1003 1.31248L13.737 1.57419L13.8776 1.14844L13.5144 0.886687H13.9636L14.1003 0.460938ZM2.70189 1.53898L2.8386 1.96481H3.28781L2.92452 2.22648L3.05735 2.65231L2.70577 2.39056L2.34252 2.65227L2.47139 2.22652L2.11985 1.96477H2.56519L2.70189 1.53898ZM5.23314 1.53898L5.37377 1.96481H5.81906L5.45577 2.22648L5.59644 2.65231L5.2331 2.39056L4.86985 2.65227L5.01048 2.22652L4.64719 1.96477H5.09639L5.23314 1.53898ZM7.76831 1.53898L7.90498 1.96481H8.35423L7.99094 2.22648L8.12764 2.65231L7.76827 2.39056L7.40502 2.65227L7.54173 2.22656L7.18235 1.96481H7.62769L7.76831 1.53898ZM10.2996 1.53898L10.4402 1.96481H10.8855L10.5222 2.22648L10.6628 2.65231L10.2995 2.39056L9.94014 2.65227L10.0769 2.22652L9.7136 1.96477H10.1667L10.2996 1.53898ZM12.8347 1.53898L12.9714 1.96481H13.4206L13.0574 2.22648L13.1941 2.65231L12.8347 2.39056L12.4714 2.65227L12.6081 2.22652L12.2488 1.96477H12.6941L12.8347 1.53898ZM1.43235 2.61331L1.57298 3.0469H2.01831L1.65889 3.3086L1.79564 3.7344L1.43235 3.46877L1.07298 3.7344L1.20969 3.30469L0.846436 3.04302H1.29956L1.43235 2.61331ZM3.96752 2.61331L4.10423 3.0429H4.55344L4.19014 3.3046L4.32689 3.73044L3.96752 3.46477L3.60423 3.7304L3.74094 3.30073L3.38156 3.03902H3.82689L3.96752 2.61331ZM6.49877 2.61331L6.63939 3.04298H7.08081L6.72144 3.30469L6.8581 3.73052L6.49485 3.46485L6.13548 3.73048L6.27219 3.30081L5.90889 3.0391H6.35814L6.49877 2.61331ZM9.03394 2.61331L9.1706 3.04298H9.61985L9.25656 3.30469L9.39719 3.73052L9.03389 3.46485L8.67064 3.73048L8.81127 3.30081L8.44798 3.0391H8.89331L9.03394 2.61331ZM11.5652 2.61331L11.7058 3.04298H12.1511L11.7917 3.30465L11.9284 3.73048L11.5651 3.46481L11.2058 3.73044L11.3425 3.30077L10.9831 3.03906H11.4284L11.5652 2.61331ZM14.1003 2.61331L14.237 3.04298H14.6863L14.323 3.30469L14.4636 3.73052L14.1003 3.46485L13.737 3.73048L13.8776 3.30081L13.5144 3.0391H13.9636L14.1003 2.61331ZM2.70189 3.6914L2.8386 4.11719H3.28781L2.92452 4.37885L3.06127 4.80856L2.70189 4.54294L2.3386 4.80465L2.47531 4.3789L2.11594 4.11719H2.56131L2.70189 3.6914ZM5.23314 3.6914L5.37377 4.11719H5.81906L5.45577 4.37885L5.59644 4.80856L5.2331 4.54294L4.86985 4.80465L5.01048 4.3789L4.64719 4.11719H5.09639L5.23314 3.6914ZM7.76831 3.6914L7.90498 4.11719H8.35423L7.99094 4.37885L8.12764 4.80856L7.76827 4.54294L7.40502 4.80465L7.54173 4.3789L7.18235 4.11719H7.62769L7.76831 3.6914ZM10.2996 3.6914L10.4402 4.11719H10.8855L10.5261 4.37885L10.6628 4.80856L10.2995 4.54294L9.94014 4.80465L10.0769 4.3789L9.7136 4.11719H10.1667L10.2996 3.6914ZM12.8347 3.6914L12.9714 4.11719H13.4206L13.0574 4.37885L13.1941 4.80856L12.8347 4.54294L12.4714 4.80465L12.6081 4.3789L12.2488 4.11719H12.6941L12.8347 3.6914ZM1.43235 4.76952L1.57298 5.19531H2.01831L1.65889 5.45698L1.79564 5.88669L1.43235 5.62106L1.07298 5.88277L1.20969 5.45702L0.846436 5.19531H1.29956L1.43235 4.76952ZM3.96752 4.76952L4.10423 5.19531H4.55344L4.19014 5.45698L4.32689 5.88281L3.96752 5.62106L3.60423 5.88277L3.74094 5.45702L3.38156 5.19531H3.82689L3.96752 4.76952ZM6.49877 4.76952L6.63939 5.19531H7.08081L6.72144 5.45698L6.8581 5.88669L6.49485 5.62106L6.13548 5.88277L6.27219 5.45702L5.90889 5.19531H6.35814L6.49877 4.76952ZM9.03394 4.76952L9.1706 5.19531H9.61985L9.25656 5.45698L9.39719 5.88669L9.03389 5.62106L8.67064 5.88277L8.81127 5.45702L8.44798 5.19531H8.89331L9.03394 4.76952ZM11.5652 4.76952L11.7058 5.19531H12.1511L11.7917 5.45698L11.9284 5.88669L11.5651 5.62106L11.2058 5.88277L11.3425 5.45702L10.9831 5.19531H11.4284L11.5652 4.76952ZM14.1003 4.76952L14.237 5.19531H14.6863L14.323 5.45698L14.4636 5.88669L14.1003 5.62106L13.737 5.88277L13.8776 5.45702L13.5144 5.19531H13.9636L14.1003 4.76952ZM2.70189 5.84765L2.8386 6.27344H3.28781L2.92452 6.5351L3.06127 6.96094L2.70189 6.69531L2.3386 6.96094L2.47531 6.53123L2.11594 6.26952H2.56131L2.70189 5.84765ZM5.23314 5.84765L5.37377 6.27344H5.81906L5.45577 6.5351L5.59644 6.96094L5.2331 6.69531L4.86985 6.96094L5.01048 6.53123L4.64719 6.26952H5.09639L5.23314 5.84765ZM7.76831 5.84765L7.90498 6.27344H8.35423L7.99094 6.5351L8.12764 6.96094L7.76827 6.69531L7.40502 6.96094L7.54173 6.53123L7.18235 6.26952H7.62769L7.76831 5.84765ZM10.2996 5.84765L10.4402 6.27344H10.8855L10.5261 6.5351L10.6628 6.96094L10.2995 6.69531L9.94014 6.96094L10.0769 6.53123L9.7136 6.26952H10.1667L10.2996 5.84765ZM12.8347 5.84765L12.9714 6.27344H13.4206L13.0574 6.5351L13.1941 6.96094L12.8347 6.69531L12.4714 6.96094L12.6081 6.53123L12.2488 6.26952H12.6941L12.8347 5.84765ZM1.43235 6.92185L1.57298 7.35156H2.01831L1.65889 7.61323L1.79564 8.03514L1.43235 7.77344L1.07298 8.0351L1.20969 7.60935L0.846436 7.34764H1.29956L1.43235 6.92185ZM3.96752 6.92185L4.10423 7.35156H4.55344L4.19014 7.61323L4.33081 8.03514L3.96748 7.77344L3.60423 8.0351L3.74485 7.60935L3.38156 7.34764H3.82689L3.96752 6.92185ZM6.49877 6.92185L6.63939 7.35156H7.08081L6.72144 7.61323L6.8581 8.03514L6.49485 7.77344L6.13548 8.0351L6.27219 7.60935L5.90889 7.34764H6.35814L6.49877 6.92185ZM9.03394 6.92185L9.1706 7.35156H9.61985L9.25656 7.61323L9.39719 8.03514L9.03389 7.77344L8.67064 8.0351L8.81127 7.60935L8.44798 7.34764H8.89331L9.03394 6.92185ZM11.5652 6.92185L11.7058 7.35156H12.1511L11.7917 7.61323L11.9284 8.03514L11.5651 7.77344L11.2058 8.0351L11.3425 7.60935L10.9831 7.34764H11.4284L11.5652 6.92185ZM14.1003 6.92185L14.237 7.35156H14.6863L14.323 7.61323L14.4636 8.03514L14.1003 7.77344L13.737 8.0351L13.8776 7.60935L13.5144 7.34764H13.9636L14.1003 6.92185ZM2.70189 7.99998L2.8386 8.42577H3.28781L2.92452 8.68748L3.06127 9.11719L2.70189 8.85156L2.3386 9.11323L2.47531 8.68748L2.11594 8.42577H2.56131L2.70189 7.99998ZM5.23314 7.99998L5.37377 8.42577H5.81906L5.45577 8.68748L5.59644 9.11719L5.2331 8.85156L4.86985 9.11323L5.01048 8.68748L4.64719 8.42577H5.09639L5.23314 7.99998ZM7.76831 7.99998L7.90498 8.42577H8.35423L7.99094 8.68748L8.12764 9.11719L7.76827 8.85156L7.40502 9.11323L7.54173 8.68748L7.18235 8.42577H7.62769L7.76831 7.99998ZM10.2996 7.99998L10.4402 8.42577H10.8855L10.5261 8.68748L10.6628 9.11719L10.2995 8.85156L9.94014 9.11323L10.0769 8.68748L9.7136 8.42577H10.1667L10.2996 7.99998ZM12.8347 7.99998L12.9714 8.42577H13.4206L13.0574 8.68748L13.1941 9.11719L12.8347 8.85156L12.4714 9.11323L12.6081 8.68748L12.2488 8.42577H12.6941L12.8347 7.99998ZM1.43235 9.0781L1.57298 9.50389H2.01831L1.65889 9.7656L1.79564 10.1914L1.43235 9.92969L1.07298 10.1914L1.20969 9.76169L0.846436 9.49998H1.29956L1.43235 9.0781ZM3.96752 9.0781L4.10423 9.50389H4.55344L4.19014 9.7656L4.33081 10.1914L3.96748 9.92969L3.60423 10.1914L3.74485 9.76169L3.38156 9.49998H3.82689L3.96752 9.0781ZM6.49877 9.0781L6.63939 9.50389H7.08081L6.72923 9.7656L6.86594 10.1914L6.50264 9.92969L6.14327 10.1914L6.28002 9.76169L5.91673 9.49998H6.36594L6.49877 9.0781ZM9.03394 9.0781L9.1706 9.50389H9.61985L9.25656 9.7656L9.39719 10.1914L9.03389 9.92969L8.67064 10.1914L8.81127 9.76169L8.44798 9.49998H8.89331L9.03394 9.0781ZM11.5652 9.0781L11.7058 9.50389H12.1511L11.7917 9.7656L11.9284 10.1914L11.5651 9.92969L11.2058 10.1914L11.3425 9.76169L10.9831 9.49998H11.4284L11.5652 9.0781ZM14.1003 9.0781L14.237 9.50389H14.6863L14.323 9.7656L14.4636 10.1914L14.1003 9.92969L13.737 10.1914L13.8776 9.76169L13.5144 9.49998H13.9636L14.1003 9.0781Z" fill="white"/>
</g>
<defs>
<clipPath id="clip0_80_1177">
<rect width="26.6667" height="20" fill="white" transform="translate(0.166748)"/>
</clipPath>
</defs>
</svg>
